%TF.GenerationSoftware,KiCad,Pcbnew,10.0.5+dfsg-1*%
%TF.CreationDate,2026-09-04T09:16:21+02:00*%
%TF.ProjectId,thermohygro,74686572-6d6f-4687-9967-726f2e6b6963,1.2*%
%TF.SameCoordinates,Original*%
%TF.FileFunction,Soldermask,Bot*%
%TF.FilePolarity,Negative*%
%FSLAX46Y46*%
G04 Gerber Fmt 4.6, Leading zero omitted, Abs format (unit mm)*
G04 Created by KiCad (PCBNEW 10.0.5+dfsg-1) date 2026-09-04 09:16:21*
%MOMM*%
%LPD*%
G01*
G04 APERTURE LIST*
G04 Aperture macros list*
%AMRoundRect*
0 Rectangle with rounded corners*
0 $1 Rounding radius*
0 $2 $3 $4 $5 $6 $7 $8 $9 X,Y pos of 4 corners*
0 Add a 4 corners polygon primitive as box body*
4,1,4,$2,$3,$4,$5,$6,$7,$8,$9,$2,$3,0*
0 Add four circle primitives for the rounded corners*
1,1,$1+$1,$2,$3*
1,1,$1+$1,$4,$5*
1,1,$1+$1,$6,$7*
1,1,$1+$1,$8,$9*
0 Add four rect primitives between the rounded corners*
20,1,$1+$1,$2,$3,$4,$5,0*
20,1,$1+$1,$4,$5,$6,$7,0*
20,1,$1+$1,$6,$7,$8,$9,0*
20,1,$1+$1,$8,$9,$2,$3,0*%
G04 Aperture macros list end*
%ADD10C,1.860000*%
%ADD11RoundRect,0.080000X0.850000X-0.850000X0.850000X0.850000X-0.850000X0.850000X-0.850000X-0.850000X0*%
%ADD12RoundRect,0.080000X-0.800000X-0.800000X0.800000X-0.800000X0.800000X0.800000X-0.800000X0.800000X0*%
%ADD13C,1.760000*%
%ADD14C,2.860000*%
%ADD15C,3.410000*%
%ADD16RoundRect,0.080000X0.900000X0.900000X-0.900000X0.900000X-0.900000X-0.900000X0.900000X-0.900000X0*%
%ADD17C,1.960000*%
%ADD18C,3.160000*%
%ADD19C,1.684000*%
G04 APERTURE END LIST*
D10*
%TO.C,J3*%
X77860000Y-119600000D03*
X75320000Y-119600000D03*
X72780000Y-119600000D03*
X70240000Y-119600000D03*
X67700000Y-119600000D03*
X65160000Y-119600000D03*
X62620000Y-119600000D03*
D11*
X60080000Y-119600000D03*
%TD*%
D12*
%TO.C,RN1*%
X60080000Y-134840000D03*
D13*
X62620000Y-134840000D03*
X65160000Y-134840000D03*
X67700000Y-134840000D03*
X70240000Y-134840000D03*
X72780000Y-134840000D03*
X75320000Y-134840000D03*
X77860000Y-134840000D03*
X80400000Y-134840000D03*
X82940000Y-134840000D03*
%TD*%
D14*
%TO.C,MH1*%
X57540000Y-104360000D03*
%TD*%
%TO.C,MH1*%
X103260000Y-142460000D03*
%TD*%
%TO.C,MH1*%
X57540000Y-142460000D03*
%TD*%
%TO.C,MH1*%
X103260000Y-104360000D03*
%TD*%
D15*
%TO.C,J1*%
X76971000Y-104360000D03*
X65541000Y-104360000D03*
D16*
X75701000Y-110710000D03*
D17*
X74431000Y-113250000D03*
X73161000Y-110710000D03*
X71891000Y-113250000D03*
X70621000Y-110710000D03*
X69351000Y-113250000D03*
X68081000Y-110710000D03*
X66811000Y-113250000D03*
D18*
X79001000Y-107410000D03*
X63511000Y-107410000D03*
%TD*%
D15*
%TO.C,J2*%
X95259000Y-104360000D03*
X83829000Y-104360000D03*
D16*
X93989000Y-110710000D03*
D17*
X92719000Y-113250000D03*
X91449000Y-110710000D03*
X90179000Y-113250000D03*
X88909000Y-110710000D03*
X87639000Y-113250000D03*
X86369000Y-110710000D03*
X85099000Y-113250000D03*
D18*
X97289000Y-107410000D03*
X81799000Y-107410000D03*
%TD*%
D19*
%TO.C,U1*%
X103260000Y-119600000D03*
X100720000Y-119600000D03*
X98180000Y-119600000D03*
X95640000Y-119600000D03*
X93100000Y-119600000D03*
X90560000Y-119600000D03*
X88020000Y-119600000D03*
X88020000Y-134840000D03*
X90560000Y-134840000D03*
X93100000Y-134840000D03*
X95640000Y-134840000D03*
X98180000Y-134840000D03*
X100720000Y-134840000D03*
X103260000Y-134840000D03*
%TD*%
M02*
