%TF.GenerationSoftware,KiCad,Pcbnew,10.0.4+b1*%
%TF.CreationDate,2026-08-02T17:22:36+02:00*%
%TF.ProjectId,thermohygro,74686572-6d6f-4687-9967-726f2e6b6963,rev?*%
%TF.SameCoordinates,Original*%
%TF.FileFunction,Copper,L2,Bot*%
%TF.FilePolarity,Positive*%
%FSLAX46Y46*%
G04 Gerber Fmt 4.6, Leading zero omitted, Abs format (unit mm)*
G04 Created by KiCad (PCBNEW 10.0.4+b1) date 2026-08-02 17:22:36*
%MOMM*%
%LPD*%
G01*
G04 APERTURE LIST*
%TA.AperFunction,ComponentPad*%
%ADD10R,1.700000X1.700000*%
%TD*%
%TA.AperFunction,ComponentPad*%
%ADD11C,1.700000*%
%TD*%
%TA.AperFunction,ComponentPad*%
%ADD12R,1.800000X1.800000*%
%TD*%
%TA.AperFunction,ComponentPad*%
%ADD13C,1.800000*%
%TD*%
%TA.AperFunction,ComponentPad*%
%ADD14C,3.000000*%
%TD*%
%TA.AperFunction,ComponentPad*%
%ADD15C,1.524000*%
%TD*%
%TA.AperFunction,ComponentPad*%
%ADD16R,1.600000X1.600000*%
%TD*%
%TA.AperFunction,ComponentPad*%
%ADD17C,1.600000*%
%TD*%
%TA.AperFunction,Conductor*%
%ADD18C,0.500000*%
%TD*%
%TA.AperFunction,Conductor*%
%ADD19C,0.400000*%
%TD*%
G04 APERTURE END LIST*
D10*
%TO.P,J3,1,Pin_1_1*%
%TO.N,GND*%
X60080000Y-119600000D03*
D11*
%TO.P,J3,2,Pin_2_2*%
%TO.N,+3.3V*%
X62620000Y-119600000D03*
%TO.P,J3,3,Pin_3_3*%
%TO.N,/D0*%
X65160000Y-119600000D03*
%TO.P,J3,4,Pin_4_4*%
%TO.N,/D1*%
X67700000Y-119600000D03*
%TO.P,J3,5,Pin_5_5*%
%TO.N,/RES*%
X70240000Y-119600000D03*
%TO.P,J3,6,Pin_6_6*%
%TO.N,/DC*%
X72780000Y-119600000D03*
%TO.P,J3,7,Pin_7_7*%
%TO.N,/CS*%
X75320000Y-119600000D03*
%TD*%
D12*
%TO.P,J1,1*%
%TO.N,unconnected-(J1-Pad1)*%
X75701000Y-110710000D03*
D13*
%TO.P,J1,2*%
%TO.N,unconnected-(J1-Pad2)*%
X74431000Y-113250000D03*
%TO.P,J1,3*%
%TO.N,+3.3V*%
X73161000Y-110710000D03*
%TO.P,J1,4*%
%TO.N,/SCK1*%
X71891000Y-113250000D03*
%TO.P,J1,5*%
%TO.N,/SDA1*%
X70621000Y-110710000D03*
%TO.P,J1,6*%
%TO.N,GND*%
X69351000Y-113250000D03*
%TO.P,J1,7*%
%TO.N,unconnected-(J1-Pad7)*%
X68081000Y-110710000D03*
%TO.P,J1,8*%
%TO.N,unconnected-(J1-Pad8)*%
X66811000Y-113250000D03*
D14*
%TO.P,J1,SH*%
%TO.N,GND*%
X79001000Y-107410000D03*
X63511000Y-107410000D03*
%TD*%
D12*
%TO.P,J2,1*%
%TO.N,unconnected-(J2-Pad1)*%
X93989000Y-110710000D03*
D13*
%TO.P,J2,2*%
%TO.N,unconnected-(J2-Pad2)*%
X92719000Y-113250000D03*
%TO.P,J2,3*%
%TO.N,+3.3V*%
X91449000Y-110710000D03*
%TO.P,J2,4*%
%TO.N,/SCK2*%
X90179000Y-113250000D03*
%TO.P,J2,5*%
%TO.N,/SDA2*%
X88909000Y-110710000D03*
%TO.P,J2,6*%
%TO.N,GND*%
X87639000Y-113250000D03*
%TO.P,J2,7*%
%TO.N,unconnected-(J2-Pad7)*%
X86369000Y-110710000D03*
%TO.P,J2,8*%
%TO.N,unconnected-(J2-Pad8)*%
X85099000Y-113250000D03*
D14*
%TO.P,J2,SH*%
%TO.N,GND*%
X97289000Y-107410000D03*
X81799000Y-107410000D03*
%TD*%
D15*
%TO.P,U1,1,D0_1*%
%TO.N,/SCK2*%
X103260000Y-119600000D03*
%TO.P,U1,2,D1_2*%
%TO.N,/SDA2*%
X100720000Y-119600000D03*
%TO.P,U1,3,D2_3*%
%TO.N,/SCK1*%
X98180000Y-119600000D03*
%TO.P,U1,4,D3_4*%
%TO.N,/SDA1*%
X95640000Y-119600000D03*
%TO.P,U1,5,D4_5*%
%TO.N,/CS*%
X93100000Y-119600000D03*
%TO.P,U1,6,D5_6*%
%TO.N,/DC*%
X90560000Y-119600000D03*
%TO.P,U1,7,D6_7*%
%TO.N,unconnected-(U1-D6-Pad7)*%
X88020000Y-119600000D03*
%TO.P,U1,8,D7_8*%
%TO.N,unconnected-(U1-D7-Pad8)*%
X88020000Y-134840000D03*
%TO.P,U1,9,D8_9*%
%TO.N,/D0*%
X90560000Y-134840000D03*
%TO.P,U1,10,D9_10*%
%TO.N,/D1*%
X93100000Y-134840000D03*
%TO.P,U1,11,D10_11*%
%TO.N,/RES*%
X95640000Y-134840000D03*
%TO.P,U1,12,3V3_OUT_12*%
%TO.N,unconnected-(U1-3V3_OUT-Pad12)*%
X98180000Y-134840000D03*
%TO.P,U1,13,GND_13*%
%TO.N,GND*%
X100720000Y-134840000D03*
%TO.P,U1,14,VBUS_14*%
%TO.N,+3.3V*%
X103260000Y-134840000D03*
%TD*%
D16*
%TO.P,RN1,1,common_1*%
%TO.N,+3.3V*%
X60080000Y-132300000D03*
D17*
%TO.P,RN1,2,R1_2*%
%TO.N,/SDA1*%
X62620000Y-132300000D03*
%TO.P,RN1,3,R2_3*%
%TO.N,/SCK1*%
X65160000Y-132300000D03*
%TO.P,RN1,4,R3_4*%
%TO.N,/SDA2*%
X67700000Y-132300000D03*
%TO.P,RN1,5,R4_5*%
%TO.N,/SCK2*%
X70240000Y-132300000D03*
%TO.P,RN1,6,R5_6*%
%TO.N,unconnected-(RN1-R5-Pad6)*%
X72780000Y-132300000D03*
%TO.P,RN1,7,R6_7*%
%TO.N,unconnected-(RN1-R6-Pad7)*%
X75320000Y-132300000D03*
%TO.P,RN1,8,R7_8*%
%TO.N,unconnected-(RN1-R7-Pad8)*%
X77860000Y-132300000D03*
%TD*%
%TO.N,GND*%
D18*
X64540000Y-141840000D02*
X58048000Y-135348000D01*
X100720000Y-134840000D02*
X100720000Y-137380000D01*
X60080000Y-124680000D02*
X60080000Y-119600000D01*
X58048000Y-126712000D02*
X60080000Y-124680000D01*
D19*
X87385000Y-107410000D02*
X88020000Y-107410000D01*
X77985000Y-107410000D02*
X82180000Y-107410000D01*
X68335000Y-107410000D02*
X68970000Y-107410000D01*
D18*
X58048000Y-135348000D02*
X58048000Y-126712000D01*
D19*
X62495000Y-107410000D02*
X62495000Y-109311000D01*
X69351000Y-107791000D02*
X68970000Y-107410000D01*
X60080000Y-111726000D02*
X60080000Y-119092000D01*
X62495000Y-109311000D02*
X60080000Y-111726000D01*
X69351000Y-113250000D02*
X69351000Y-107791000D01*
D18*
X60080000Y-119600000D02*
X60080000Y-119092000D01*
D19*
X88020000Y-107410000D02*
X97670000Y-107410000D01*
X82180000Y-107410000D02*
X87385000Y-107410000D01*
D18*
X100720000Y-137380000D02*
X96260000Y-141840000D01*
D19*
X62495000Y-107410000D02*
X68970000Y-107410000D01*
D18*
X96260000Y-141840000D02*
X64540000Y-141840000D01*
D19*
X87639000Y-107664000D02*
X87385000Y-107410000D01*
X87639000Y-113250000D02*
X87639000Y-107664000D01*
X68970000Y-107410000D02*
X77985000Y-107410000D01*
%TO.N,/D0*%
D18*
X90560000Y-134840000D02*
X85480000Y-129760000D01*
X67700000Y-129760000D02*
X65160000Y-127220000D01*
X85480000Y-129760000D02*
X67700000Y-129760000D01*
X65160000Y-127220000D02*
X65160000Y-119600000D01*
%TO.N,/D1*%
X69224000Y-127728000D02*
X67700000Y-126204000D01*
X67700000Y-126204000D02*
X67700000Y-119600000D01*
X85988000Y-127728000D02*
X69224000Y-127728000D01*
X93100000Y-134840000D02*
X85988000Y-127728000D01*
%TO.N,/RES*%
X70875000Y-125950000D02*
X70240000Y-125315000D01*
X86750000Y-125950000D02*
X70875000Y-125950000D01*
X70240000Y-125315000D02*
X70240000Y-119600000D01*
X95640000Y-134840000D02*
X86750000Y-125950000D01*
%TO.N,/DC*%
X80400000Y-121505000D02*
X89925000Y-121505000D01*
X72780000Y-118965000D02*
X74050000Y-117695000D01*
X76590000Y-117695000D02*
X80400000Y-121505000D01*
X90560000Y-120870000D02*
X90560000Y-119600000D01*
X74050000Y-117695000D02*
X76590000Y-117695000D01*
X72780000Y-119600000D02*
X72780000Y-118965000D01*
X89925000Y-121505000D02*
X90560000Y-120870000D01*
%TO.N,/CS*%
X91830000Y-123410000D02*
X93100000Y-122140000D01*
X76590000Y-123410000D02*
X91830000Y-123410000D01*
X75320000Y-122140000D02*
X76590000Y-123410000D01*
X75320000Y-119600000D02*
X75320000Y-122140000D01*
X93100000Y-122140000D02*
X93100000Y-119600000D01*
%TO.N,/SCK1*%
D19*
X71891000Y-113250000D02*
X71891000Y-115297000D01*
X97672000Y-116186000D02*
X72780000Y-116186000D01*
X98180000Y-116694000D02*
X97672000Y-116186000D01*
X71891000Y-115297000D02*
X72780000Y-116186000D01*
X98180000Y-119600000D02*
X98180000Y-116694000D01*
%TO.N,/SDA1*%
X70621000Y-110710000D02*
X70621000Y-116171000D01*
X95640000Y-117568000D02*
X95640000Y-119600000D01*
X70621000Y-116171000D02*
X71186000Y-116736000D01*
X94808000Y-116736000D02*
X95640000Y-117568000D01*
X71186000Y-116736000D02*
X94808000Y-116736000D01*
%TO.N,/SCK2*%
X101357409Y-115086000D02*
X91126000Y-115086000D01*
X90179000Y-114139000D02*
X90560000Y-114520000D01*
X91126000Y-115086000D02*
X90560000Y-114520000D01*
X103260000Y-116988591D02*
X101357409Y-115086000D01*
X90179000Y-113250000D02*
X90179000Y-114139000D01*
X103260000Y-119600000D02*
X103260000Y-116988591D01*
%TO.N,/SDA2*%
X88929000Y-114280884D02*
X88929000Y-113737528D01*
X99296000Y-115636000D02*
X90299236Y-115636000D01*
X88929000Y-113737528D02*
X88909000Y-113717528D01*
X89148116Y-114500000D02*
X88929000Y-114280884D01*
X100720000Y-119600000D02*
X100720000Y-117060000D01*
X88909000Y-113717528D02*
X88909000Y-111091000D01*
X89163236Y-114500000D02*
X89148116Y-114500000D01*
X100720000Y-117060000D02*
X99296000Y-115636000D01*
X90299236Y-115636000D02*
X89163236Y-114500000D01*
%TD*%
%TA.AperFunction,Conductor*%
%TO.N,GND*%
G36*
X103804043Y-101895765D02*
G01*
X103935891Y-101904406D01*
X104001495Y-101928432D01*
X104015459Y-101940459D01*
X105679539Y-103604539D01*
X105713024Y-103665862D01*
X105715592Y-103684110D01*
X105724234Y-103815956D01*
X105724500Y-103824066D01*
X105724500Y-142995933D01*
X105724234Y-143004043D01*
X105715592Y-143135887D01*
X105691565Y-143201496D01*
X105679539Y-143215458D01*
X104015458Y-144879539D01*
X103954135Y-144913024D01*
X103935887Y-144915592D01*
X103804043Y-144924234D01*
X103795933Y-144924500D01*
X57004067Y-144924500D01*
X56995957Y-144924234D01*
X56864110Y-144915592D01*
X56798501Y-144891565D01*
X56784539Y-144879539D01*
X55120459Y-143215459D01*
X55086974Y-143154136D01*
X55084407Y-143135904D01*
X55075765Y-143004043D01*
X55075500Y-142995934D01*
X55075500Y-142353713D01*
X56189500Y-142353713D01*
X56189500Y-142566286D01*
X56222753Y-142776239D01*
X56288444Y-142978414D01*
X56384951Y-143167820D01*
X56509890Y-143339786D01*
X56660213Y-143490109D01*
X56832179Y-143615048D01*
X56832181Y-143615049D01*
X56832184Y-143615051D01*
X57021588Y-143711557D01*
X57223757Y-143777246D01*
X57433713Y-143810500D01*
X57433714Y-143810500D01*
X57646286Y-143810500D01*
X57646287Y-143810500D01*
X57856243Y-143777246D01*
X58058412Y-143711557D01*
X58247816Y-143615051D01*
X58408791Y-143498097D01*
X58419786Y-143490109D01*
X58419788Y-143490106D01*
X58419792Y-143490104D01*
X58570104Y-143339792D01*
X58570106Y-143339788D01*
X58570109Y-143339786D01*
X58695048Y-143167820D01*
X58695047Y-143167820D01*
X58695051Y-143167816D01*
X58791557Y-142978412D01*
X58857246Y-142776243D01*
X58890500Y-142566287D01*
X58890500Y-142353713D01*
X101909500Y-142353713D01*
X101909500Y-142566286D01*
X101942753Y-142776239D01*
X102008444Y-142978414D01*
X102104951Y-143167820D01*
X102229890Y-143339786D01*
X102380213Y-143490109D01*
X102552179Y-143615048D01*
X102552181Y-143615049D01*
X102552184Y-143615051D01*
X102741588Y-143711557D01*
X102943757Y-143777246D01*
X103153713Y-143810500D01*
X103153714Y-143810500D01*
X103366286Y-143810500D01*
X103366287Y-143810500D01*
X103576243Y-143777246D01*
X103778412Y-143711557D01*
X103967816Y-143615051D01*
X104128791Y-143498097D01*
X104139786Y-143490109D01*
X104139788Y-143490106D01*
X104139792Y-143490104D01*
X104290104Y-143339792D01*
X104290106Y-143339788D01*
X104290109Y-143339786D01*
X104415048Y-143167820D01*
X104415047Y-143167820D01*
X104415051Y-143167816D01*
X104511557Y-142978412D01*
X104577246Y-142776243D01*
X104610500Y-142566287D01*
X104610500Y-142353713D01*
X104577246Y-142143757D01*
X104511557Y-141941588D01*
X104415051Y-141752184D01*
X104415049Y-141752181D01*
X104415048Y-141752179D01*
X104290109Y-141580213D01*
X104139786Y-141429890D01*
X103967820Y-141304951D01*
X103778414Y-141208444D01*
X103778413Y-141208443D01*
X103778412Y-141208443D01*
X103576243Y-141142754D01*
X103576241Y-141142753D01*
X103576240Y-141142753D01*
X103414957Y-141117208D01*
X103366287Y-141109500D01*
X103153713Y-141109500D01*
X103105042Y-141117208D01*
X102943760Y-141142753D01*
X102741585Y-141208444D01*
X102552179Y-141304951D01*
X102380213Y-141429890D01*
X102229890Y-141580213D01*
X102104951Y-141752179D01*
X102008444Y-141941585D01*
X101942753Y-142143760D01*
X101909500Y-142353713D01*
X58890500Y-142353713D01*
X58857246Y-142143757D01*
X58791557Y-141941588D01*
X58695051Y-141752184D01*
X58695049Y-141752181D01*
X58695048Y-141752179D01*
X58570109Y-141580213D01*
X58419786Y-141429890D01*
X58247820Y-141304951D01*
X58058414Y-141208444D01*
X58058413Y-141208443D01*
X58058412Y-141208443D01*
X57856243Y-141142754D01*
X57856241Y-141142753D01*
X57856240Y-141142753D01*
X57694957Y-141117208D01*
X57646287Y-141109500D01*
X57433713Y-141109500D01*
X57385042Y-141117208D01*
X57223760Y-141142753D01*
X57021585Y-141208444D01*
X56832179Y-141304951D01*
X56660213Y-141429890D01*
X56509890Y-141580213D01*
X56384951Y-141752179D01*
X56288444Y-141941585D01*
X56222753Y-142143760D01*
X56189500Y-142353713D01*
X55075500Y-142353713D01*
X55075500Y-134750122D01*
X87107500Y-134750122D01*
X87107500Y-134929877D01*
X87142565Y-135106158D01*
X87142568Y-135106170D01*
X87211349Y-135272224D01*
X87211356Y-135272237D01*
X87311214Y-135421684D01*
X87311217Y-135421688D01*
X87438311Y-135548782D01*
X87438315Y-135548785D01*
X87587762Y-135648643D01*
X87587775Y-135648650D01*
X87753829Y-135717431D01*
X87753834Y-135717433D01*
X87930122Y-135752499D01*
X87930125Y-135752500D01*
X87930127Y-135752500D01*
X88109875Y-135752500D01*
X88109876Y-135752499D01*
X88286166Y-135717433D01*
X88452231Y-135648647D01*
X88601685Y-135548785D01*
X88728785Y-135421685D01*
X88828647Y-135272231D01*
X88897433Y-135106166D01*
X88932500Y-134929873D01*
X88932500Y-134750127D01*
X88932500Y-134750124D01*
X88932499Y-134750122D01*
X88897434Y-134573841D01*
X88897433Y-134573834D01*
X88862517Y-134489538D01*
X88828650Y-134407775D01*
X88828643Y-134407762D01*
X88728785Y-134258315D01*
X88728782Y-134258311D01*
X88601688Y-134131217D01*
X88601684Y-134131214D01*
X88452237Y-134031356D01*
X88452224Y-134031349D01*
X88286170Y-133962568D01*
X88286158Y-133962565D01*
X88109876Y-133927500D01*
X88109873Y-133927500D01*
X87930127Y-133927500D01*
X87930124Y-133927500D01*
X87753841Y-133962565D01*
X87753829Y-133962568D01*
X87587775Y-134031349D01*
X87587762Y-134031356D01*
X87438315Y-134131214D01*
X87438311Y-134131217D01*
X87311217Y-134258311D01*
X87311214Y-134258315D01*
X87211356Y-134407762D01*
X87211349Y-134407775D01*
X87142568Y-134573829D01*
X87142565Y-134573841D01*
X87107500Y-134750122D01*
X55075500Y-134750122D01*
X55075500Y-133114822D01*
X59129499Y-133114822D01*
X59138231Y-133158717D01*
X59138232Y-133158721D01*
X59138233Y-133158722D01*
X59171496Y-133208504D01*
X59221278Y-133241767D01*
X59221281Y-133241767D01*
X59221282Y-133241768D01*
X59265177Y-133250500D01*
X59265180Y-133250500D01*
X60894822Y-133250500D01*
X60938717Y-133241768D01*
X60938717Y-133241767D01*
X60938722Y-133241767D01*
X60988504Y-133208504D01*
X61021767Y-133158722D01*
X61030500Y-133114820D01*
X61030500Y-132206379D01*
X61669500Y-132206379D01*
X61669500Y-132393620D01*
X61706025Y-132577243D01*
X61706027Y-132577251D01*
X61777676Y-132750228D01*
X61777681Y-132750237D01*
X61881697Y-132905907D01*
X61881700Y-132905911D01*
X62014088Y-133038299D01*
X62014092Y-133038302D01*
X62169762Y-133142318D01*
X62169768Y-133142321D01*
X62169769Y-133142322D01*
X62342749Y-133213973D01*
X62482470Y-133241765D01*
X62526379Y-133250499D01*
X62526383Y-133250500D01*
X62526384Y-133250500D01*
X62713617Y-133250500D01*
X62713618Y-133250499D01*
X62897251Y-133213973D01*
X63070231Y-133142322D01*
X63225908Y-133038302D01*
X63358302Y-132905908D01*
X63462322Y-132750231D01*
X63533973Y-132577251D01*
X63570500Y-132393616D01*
X63570500Y-132206384D01*
X63570499Y-132206379D01*
X64209500Y-132206379D01*
X64209500Y-132393620D01*
X64246025Y-132577243D01*
X64246027Y-132577251D01*
X64317676Y-132750228D01*
X64317681Y-132750237D01*
X64421697Y-132905907D01*
X64421700Y-132905911D01*
X64554088Y-133038299D01*
X64554092Y-133038302D01*
X64709762Y-133142318D01*
X64709768Y-133142321D01*
X64709769Y-133142322D01*
X64882749Y-133213973D01*
X65022470Y-133241765D01*
X65066379Y-133250499D01*
X65066383Y-133250500D01*
X65066384Y-133250500D01*
X65253617Y-133250500D01*
X65253618Y-133250499D01*
X65437251Y-133213973D01*
X65610231Y-133142322D01*
X65765908Y-133038302D01*
X65898302Y-132905908D01*
X66002322Y-132750231D01*
X66073973Y-132577251D01*
X66110500Y-132393616D01*
X66110500Y-132206384D01*
X66110499Y-132206379D01*
X66749500Y-132206379D01*
X66749500Y-132393620D01*
X66786025Y-132577243D01*
X66786027Y-132577251D01*
X66857676Y-132750228D01*
X66857681Y-132750237D01*
X66961697Y-132905907D01*
X66961700Y-132905911D01*
X67094088Y-133038299D01*
X67094092Y-133038302D01*
X67249762Y-133142318D01*
X67249768Y-133142321D01*
X67249769Y-133142322D01*
X67422749Y-133213973D01*
X67562470Y-133241765D01*
X67606379Y-133250499D01*
X67606383Y-133250500D01*
X67606384Y-133250500D01*
X67793617Y-133250500D01*
X67793618Y-133250499D01*
X67977251Y-133213973D01*
X68150231Y-133142322D01*
X68305908Y-133038302D01*
X68438302Y-132905908D01*
X68542322Y-132750231D01*
X68613973Y-132577251D01*
X68650500Y-132393616D01*
X68650500Y-132206384D01*
X68650499Y-132206379D01*
X69289500Y-132206379D01*
X69289500Y-132393620D01*
X69326025Y-132577243D01*
X69326027Y-132577251D01*
X69397676Y-132750228D01*
X69397681Y-132750237D01*
X69501697Y-132905907D01*
X69501700Y-132905911D01*
X69634088Y-133038299D01*
X69634092Y-133038302D01*
X69789762Y-133142318D01*
X69789768Y-133142321D01*
X69789769Y-133142322D01*
X69962749Y-133213973D01*
X70102470Y-133241765D01*
X70146379Y-133250499D01*
X70146383Y-133250500D01*
X70146384Y-133250500D01*
X70333617Y-133250500D01*
X70333618Y-133250499D01*
X70517251Y-133213973D01*
X70690231Y-133142322D01*
X70845908Y-133038302D01*
X70978302Y-132905908D01*
X71082322Y-132750231D01*
X71153973Y-132577251D01*
X71190500Y-132393616D01*
X71190500Y-132206384D01*
X71190499Y-132206379D01*
X71829500Y-132206379D01*
X71829500Y-132393620D01*
X71866025Y-132577243D01*
X71866027Y-132577251D01*
X71937676Y-132750228D01*
X71937681Y-132750237D01*
X72041697Y-132905907D01*
X72041700Y-132905911D01*
X72174088Y-133038299D01*
X72174092Y-133038302D01*
X72329762Y-133142318D01*
X72329768Y-133142321D01*
X72329769Y-133142322D01*
X72502749Y-133213973D01*
X72642470Y-133241765D01*
X72686379Y-133250499D01*
X72686383Y-133250500D01*
X72686384Y-133250500D01*
X72873617Y-133250500D01*
X72873618Y-133250499D01*
X73057251Y-133213973D01*
X73230231Y-133142322D01*
X73385908Y-133038302D01*
X73518302Y-132905908D01*
X73622322Y-132750231D01*
X73693973Y-132577251D01*
X73730500Y-132393616D01*
X73730500Y-132206384D01*
X73730499Y-132206379D01*
X74369500Y-132206379D01*
X74369500Y-132393620D01*
X74406025Y-132577243D01*
X74406027Y-132577251D01*
X74477676Y-132750228D01*
X74477681Y-132750237D01*
X74581697Y-132905907D01*
X74581700Y-132905911D01*
X74714088Y-133038299D01*
X74714092Y-133038302D01*
X74869762Y-133142318D01*
X74869768Y-133142321D01*
X74869769Y-133142322D01*
X75042749Y-133213973D01*
X75182470Y-133241765D01*
X75226379Y-133250499D01*
X75226383Y-133250500D01*
X75226384Y-133250500D01*
X75413617Y-133250500D01*
X75413618Y-133250499D01*
X75597251Y-133213973D01*
X75770231Y-133142322D01*
X75925908Y-133038302D01*
X76058302Y-132905908D01*
X76162322Y-132750231D01*
X76233973Y-132577251D01*
X76270500Y-132393616D01*
X76270500Y-132206384D01*
X76270499Y-132206379D01*
X76909500Y-132206379D01*
X76909500Y-132393620D01*
X76946025Y-132577243D01*
X76946027Y-132577251D01*
X77017676Y-132750228D01*
X77017681Y-132750237D01*
X77121697Y-132905907D01*
X77121700Y-132905911D01*
X77254088Y-133038299D01*
X77254092Y-133038302D01*
X77409762Y-133142318D01*
X77409768Y-133142321D01*
X77409769Y-133142322D01*
X77582749Y-133213973D01*
X77722470Y-133241765D01*
X77766379Y-133250499D01*
X77766383Y-133250500D01*
X77766384Y-133250500D01*
X77953617Y-133250500D01*
X77953618Y-133250499D01*
X78137251Y-133213973D01*
X78310231Y-133142322D01*
X78465908Y-133038302D01*
X78598302Y-132905908D01*
X78702322Y-132750231D01*
X78773973Y-132577251D01*
X78810500Y-132393616D01*
X78810500Y-132206384D01*
X78773973Y-132022749D01*
X78702322Y-131849769D01*
X78702321Y-131849768D01*
X78702318Y-131849762D01*
X78598302Y-131694092D01*
X78598299Y-131694088D01*
X78465911Y-131561700D01*
X78465907Y-131561697D01*
X78310237Y-131457681D01*
X78310228Y-131457676D01*
X78137251Y-131386027D01*
X78137243Y-131386025D01*
X77953620Y-131349500D01*
X77953616Y-131349500D01*
X77766384Y-131349500D01*
X77766379Y-131349500D01*
X77582756Y-131386025D01*
X77582748Y-131386027D01*
X77409771Y-131457676D01*
X77409762Y-131457681D01*
X77254092Y-131561697D01*
X77254088Y-131561700D01*
X77121700Y-131694088D01*
X77121697Y-131694092D01*
X77017681Y-131849762D01*
X77017676Y-131849771D01*
X76946027Y-132022748D01*
X76946025Y-132022756D01*
X76909500Y-132206379D01*
X76270499Y-132206379D01*
X76233973Y-132022749D01*
X76162322Y-131849769D01*
X76162321Y-131849768D01*
X76162318Y-131849762D01*
X76058302Y-131694092D01*
X76058299Y-131694088D01*
X75925911Y-131561700D01*
X75925907Y-131561697D01*
X75770237Y-131457681D01*
X75770228Y-131457676D01*
X75597251Y-131386027D01*
X75597243Y-131386025D01*
X75413620Y-131349500D01*
X75413616Y-131349500D01*
X75226384Y-131349500D01*
X75226379Y-131349500D01*
X75042756Y-131386025D01*
X75042748Y-131386027D01*
X74869771Y-131457676D01*
X74869762Y-131457681D01*
X74714092Y-131561697D01*
X74714088Y-131561700D01*
X74581700Y-131694088D01*
X74581697Y-131694092D01*
X74477681Y-131849762D01*
X74477676Y-131849771D01*
X74406027Y-132022748D01*
X74406025Y-132022756D01*
X74369500Y-132206379D01*
X73730499Y-132206379D01*
X73693973Y-132022749D01*
X73622322Y-131849769D01*
X73622321Y-131849768D01*
X73622318Y-131849762D01*
X73518302Y-131694092D01*
X73518299Y-131694088D01*
X73385911Y-131561700D01*
X73385907Y-131561697D01*
X73230237Y-131457681D01*
X73230228Y-131457676D01*
X73057251Y-131386027D01*
X73057243Y-131386025D01*
X72873620Y-131349500D01*
X72873616Y-131349500D01*
X72686384Y-131349500D01*
X72686379Y-131349500D01*
X72502756Y-131386025D01*
X72502748Y-131386027D01*
X72329771Y-131457676D01*
X72329762Y-131457681D01*
X72174092Y-131561697D01*
X72174088Y-131561700D01*
X72041700Y-131694088D01*
X72041697Y-131694092D01*
X71937681Y-131849762D01*
X71937676Y-131849771D01*
X71866027Y-132022748D01*
X71866025Y-132022756D01*
X71829500Y-132206379D01*
X71190499Y-132206379D01*
X71153973Y-132022749D01*
X71082322Y-131849769D01*
X71082321Y-131849768D01*
X71082318Y-131849762D01*
X70978302Y-131694092D01*
X70978299Y-131694088D01*
X70845911Y-131561700D01*
X70845907Y-131561697D01*
X70690237Y-131457681D01*
X70690228Y-131457676D01*
X70517251Y-131386027D01*
X70517243Y-131386025D01*
X70333620Y-131349500D01*
X70333616Y-131349500D01*
X70146384Y-131349500D01*
X70146379Y-131349500D01*
X69962756Y-131386025D01*
X69962748Y-131386027D01*
X69789771Y-131457676D01*
X69789762Y-131457681D01*
X69634092Y-131561697D01*
X69634088Y-131561700D01*
X69501700Y-131694088D01*
X69501697Y-131694092D01*
X69397681Y-131849762D01*
X69397676Y-131849771D01*
X69326027Y-132022748D01*
X69326025Y-132022756D01*
X69289500Y-132206379D01*
X68650499Y-132206379D01*
X68613973Y-132022749D01*
X68542322Y-131849769D01*
X68542321Y-131849768D01*
X68542318Y-131849762D01*
X68438302Y-131694092D01*
X68438299Y-131694088D01*
X68305911Y-131561700D01*
X68305907Y-131561697D01*
X68150237Y-131457681D01*
X68150228Y-131457676D01*
X67977251Y-131386027D01*
X67977243Y-131386025D01*
X67793620Y-131349500D01*
X67793616Y-131349500D01*
X67606384Y-131349500D01*
X67606379Y-131349500D01*
X67422756Y-131386025D01*
X67422748Y-131386027D01*
X67249771Y-131457676D01*
X67249762Y-131457681D01*
X67094092Y-131561697D01*
X67094088Y-131561700D01*
X66961700Y-131694088D01*
X66961697Y-131694092D01*
X66857681Y-131849762D01*
X66857676Y-131849771D01*
X66786027Y-132022748D01*
X66786025Y-132022756D01*
X66749500Y-132206379D01*
X66110499Y-132206379D01*
X66073973Y-132022749D01*
X66002322Y-131849769D01*
X66002321Y-131849768D01*
X66002318Y-131849762D01*
X65898302Y-131694092D01*
X65898299Y-131694088D01*
X65765911Y-131561700D01*
X65765907Y-131561697D01*
X65610237Y-131457681D01*
X65610228Y-131457676D01*
X65437251Y-131386027D01*
X65437243Y-131386025D01*
X65253620Y-131349500D01*
X65253616Y-131349500D01*
X65066384Y-131349500D01*
X65066379Y-131349500D01*
X64882756Y-131386025D01*
X64882748Y-131386027D01*
X64709771Y-131457676D01*
X64709762Y-131457681D01*
X64554092Y-131561697D01*
X64554088Y-131561700D01*
X64421700Y-131694088D01*
X64421697Y-131694092D01*
X64317681Y-131849762D01*
X64317676Y-131849771D01*
X64246027Y-132022748D01*
X64246025Y-132022756D01*
X64209500Y-132206379D01*
X63570499Y-132206379D01*
X63533973Y-132022749D01*
X63462322Y-131849769D01*
X63462321Y-131849768D01*
X63462318Y-131849762D01*
X63358302Y-131694092D01*
X63358299Y-131694088D01*
X63225911Y-131561700D01*
X63225907Y-131561697D01*
X63070237Y-131457681D01*
X63070228Y-131457676D01*
X62897251Y-131386027D01*
X62897243Y-131386025D01*
X62713620Y-131349500D01*
X62713616Y-131349500D01*
X62526384Y-131349500D01*
X62526379Y-131349500D01*
X62342756Y-131386025D01*
X62342748Y-131386027D01*
X62169771Y-131457676D01*
X62169762Y-131457681D01*
X62014092Y-131561697D01*
X62014088Y-131561700D01*
X61881700Y-131694088D01*
X61881697Y-131694092D01*
X61777681Y-131849762D01*
X61777676Y-131849771D01*
X61706027Y-132022748D01*
X61706025Y-132022756D01*
X61669500Y-132206379D01*
X61030500Y-132206379D01*
X61030500Y-131485180D01*
X61030500Y-131485177D01*
X61021768Y-131441282D01*
X61021767Y-131441281D01*
X61021767Y-131441278D01*
X60988504Y-131391496D01*
X60980319Y-131386027D01*
X60938724Y-131358234D01*
X60938717Y-131358231D01*
X60894822Y-131349500D01*
X60894820Y-131349500D01*
X59265180Y-131349500D01*
X59265178Y-131349500D01*
X59221282Y-131358231D01*
X59221275Y-131358234D01*
X59171496Y-131391495D01*
X59171495Y-131391496D01*
X59138234Y-131441275D01*
X59138231Y-131441282D01*
X59129500Y-131485177D01*
X59129500Y-131485180D01*
X59129500Y-133114820D01*
X59129500Y-133114822D01*
X59129499Y-133114822D01*
X55075500Y-133114822D01*
X55075500Y-118702155D01*
X58730000Y-118702155D01*
X58730000Y-119350000D01*
X59646988Y-119350000D01*
X59614075Y-119407007D01*
X59580000Y-119534174D01*
X59580000Y-119665826D01*
X59614075Y-119792993D01*
X59646988Y-119850000D01*
X58730000Y-119850000D01*
X58730000Y-120497844D01*
X58736401Y-120557372D01*
X58736403Y-120557379D01*
X58786645Y-120692086D01*
X58786649Y-120692093D01*
X58872809Y-120807187D01*
X58872812Y-120807190D01*
X58987906Y-120893350D01*
X58987913Y-120893354D01*
X59122620Y-120943596D01*
X59122627Y-120943598D01*
X59182155Y-120949999D01*
X59182172Y-120950000D01*
X59830000Y-120950000D01*
X59830000Y-120033012D01*
X59887007Y-120065925D01*
X60014174Y-120100000D01*
X60145826Y-120100000D01*
X60272993Y-120065925D01*
X60330000Y-120033012D01*
X60330000Y-120950000D01*
X60977828Y-120950000D01*
X60977844Y-120949999D01*
X61037372Y-120943598D01*
X61037379Y-120943596D01*
X61172086Y-120893354D01*
X61172093Y-120893350D01*
X61287187Y-120807190D01*
X61287190Y-120807187D01*
X61373350Y-120692093D01*
X61373354Y-120692086D01*
X61423596Y-120557379D01*
X61423598Y-120557372D01*
X61429999Y-120497844D01*
X61430000Y-120497827D01*
X61430000Y-119964907D01*
X61449685Y-119897868D01*
X61502489Y-119852113D01*
X61571647Y-119842169D01*
X61635203Y-119871194D01*
X61668561Y-119917455D01*
X61733364Y-120073907D01*
X61733371Y-120073920D01*
X61842860Y-120237781D01*
X61842863Y-120237785D01*
X61982214Y-120377136D01*
X61982218Y-120377139D01*
X62146079Y-120486628D01*
X62146092Y-120486635D01*
X62328160Y-120562049D01*
X62328165Y-120562051D01*
X62328169Y-120562051D01*
X62328170Y-120562052D01*
X62521456Y-120600500D01*
X62521459Y-120600500D01*
X62718543Y-120600500D01*
X62848582Y-120574632D01*
X62911835Y-120562051D01*
X63066887Y-120497827D01*
X63093907Y-120486635D01*
X63093907Y-120486634D01*
X63093914Y-120486632D01*
X63257782Y-120377139D01*
X63397139Y-120237782D01*
X63506632Y-120073914D01*
X63582051Y-119891835D01*
X63620500Y-119698543D01*
X64159499Y-119698543D01*
X64197947Y-119891829D01*
X64197950Y-119891839D01*
X64273364Y-120073907D01*
X64273371Y-120073920D01*
X64382860Y-120237781D01*
X64382863Y-120237785D01*
X64522217Y-120377139D01*
X64640260Y-120456012D01*
X64686086Y-120486632D01*
X64686092Y-120486634D01*
X64691457Y-120489502D01*
X64690453Y-120491378D01*
X64737355Y-120529173D01*
X64759421Y-120595467D01*
X64759500Y-120599895D01*
X64759500Y-127272726D01*
X64786793Y-127374589D01*
X64813156Y-127420250D01*
X64839520Y-127465913D01*
X67379519Y-130005912D01*
X67379520Y-130005913D01*
X67454087Y-130080480D01*
X67545413Y-130133207D01*
X67647273Y-130160500D01*
X85262745Y-130160500D01*
X85329784Y-130180185D01*
X85350426Y-130196819D01*
X89643145Y-134489538D01*
X89676630Y-134550861D01*
X89677081Y-134601410D01*
X89647500Y-134750122D01*
X89647500Y-134929877D01*
X89682565Y-135106158D01*
X89682568Y-135106170D01*
X89751349Y-135272224D01*
X89751356Y-135272237D01*
X89851214Y-135421684D01*
X89851217Y-135421688D01*
X89978311Y-135548782D01*
X89978315Y-135548785D01*
X90127762Y-135648643D01*
X90127775Y-135648650D01*
X90293829Y-135717431D01*
X90293834Y-135717433D01*
X90470122Y-135752499D01*
X90470125Y-135752500D01*
X90470127Y-135752500D01*
X90649875Y-135752500D01*
X90649876Y-135752499D01*
X90826166Y-135717433D01*
X90992231Y-135648647D01*
X91141685Y-135548785D01*
X91268785Y-135421685D01*
X91368647Y-135272231D01*
X91437433Y-135106166D01*
X91472500Y-134929873D01*
X91472500Y-134750127D01*
X91472500Y-134750124D01*
X91472499Y-134750122D01*
X91437434Y-134573841D01*
X91437433Y-134573834D01*
X91402517Y-134489538D01*
X91368650Y-134407775D01*
X91368643Y-134407762D01*
X91268785Y-134258315D01*
X91268782Y-134258311D01*
X91141688Y-134131217D01*
X91141684Y-134131214D01*
X90992237Y-134031356D01*
X90992224Y-134031349D01*
X90826170Y-133962568D01*
X90826158Y-133962565D01*
X90649876Y-133927500D01*
X90649873Y-133927500D01*
X90470127Y-133927500D01*
X90470124Y-133927500D01*
X90321410Y-133957081D01*
X90251819Y-133950854D01*
X90209538Y-133923145D01*
X85725915Y-129439522D01*
X85725913Y-129439520D01*
X85680250Y-129413156D01*
X85634589Y-129386793D01*
X85583657Y-129373146D01*
X85532727Y-129359500D01*
X85532726Y-129359500D01*
X67917255Y-129359500D01*
X67850216Y-129339815D01*
X67829574Y-129323181D01*
X65596819Y-127090426D01*
X65563334Y-127029103D01*
X65560500Y-127002745D01*
X65560500Y-120599895D01*
X65580185Y-120532856D01*
X65629073Y-120490494D01*
X65628543Y-120489502D01*
X65632914Y-120487165D01*
X65632989Y-120487101D01*
X65633238Y-120486992D01*
X65633902Y-120486636D01*
X65633914Y-120486632D01*
X65797782Y-120377139D01*
X65937139Y-120237782D01*
X66046632Y-120073914D01*
X66122051Y-119891835D01*
X66160500Y-119698543D01*
X66699499Y-119698543D01*
X66737947Y-119891829D01*
X66737950Y-119891839D01*
X66813364Y-120073907D01*
X66813371Y-120073920D01*
X66922860Y-120237781D01*
X66922863Y-120237785D01*
X67062217Y-120377139D01*
X67180260Y-120456012D01*
X67226086Y-120486632D01*
X67226092Y-120486634D01*
X67231457Y-120489502D01*
X67230453Y-120491378D01*
X67277355Y-120529173D01*
X67299421Y-120595467D01*
X67299500Y-120599895D01*
X67299500Y-126151273D01*
X67299500Y-126256727D01*
X67303185Y-126270480D01*
X67326793Y-126358589D01*
X67343092Y-126386819D01*
X67379520Y-126449913D01*
X68903519Y-127973912D01*
X68903520Y-127973913D01*
X68978087Y-128048480D01*
X69069413Y-128101207D01*
X69171273Y-128128500D01*
X85770745Y-128128500D01*
X85837784Y-128148185D01*
X85858426Y-128164819D01*
X92183145Y-134489538D01*
X92216630Y-134550861D01*
X92217081Y-134601410D01*
X92187500Y-134750122D01*
X92187500Y-134929877D01*
X92222565Y-135106158D01*
X92222568Y-135106170D01*
X92291349Y-135272224D01*
X92291356Y-135272237D01*
X92391214Y-135421684D01*
X92391217Y-135421688D01*
X92518311Y-135548782D01*
X92518315Y-135548785D01*
X92667762Y-135648643D01*
X92667775Y-135648650D01*
X92833829Y-135717431D01*
X92833834Y-135717433D01*
X93010122Y-135752499D01*
X93010125Y-135752500D01*
X93010127Y-135752500D01*
X93189875Y-135752500D01*
X93189876Y-135752499D01*
X93366166Y-135717433D01*
X93532231Y-135648647D01*
X93681685Y-135548785D01*
X93808785Y-135421685D01*
X93908647Y-135272231D01*
X93977433Y-135106166D01*
X94012500Y-134929873D01*
X94012500Y-134750127D01*
X94012500Y-134750124D01*
X94012499Y-134750122D01*
X93977434Y-134573841D01*
X93977433Y-134573834D01*
X93942517Y-134489538D01*
X93908650Y-134407775D01*
X93908643Y-134407762D01*
X93808785Y-134258315D01*
X93808782Y-134258311D01*
X93681688Y-134131217D01*
X93681684Y-134131214D01*
X93532237Y-134031356D01*
X93532224Y-134031349D01*
X93366170Y-133962568D01*
X93366158Y-133962565D01*
X93189876Y-133927500D01*
X93189873Y-133927500D01*
X93010127Y-133927500D01*
X93010124Y-133927500D01*
X92861410Y-133957081D01*
X92791819Y-133950854D01*
X92749538Y-133923145D01*
X86233915Y-127407522D01*
X86233913Y-127407520D01*
X86188250Y-127381156D01*
X86142589Y-127354793D01*
X86091657Y-127341146D01*
X86040727Y-127327500D01*
X86040726Y-127327500D01*
X69441255Y-127327500D01*
X69374216Y-127307815D01*
X69353574Y-127291181D01*
X68136819Y-126074426D01*
X68103334Y-126013103D01*
X68100500Y-125986745D01*
X68100500Y-120599895D01*
X68120185Y-120532856D01*
X68169073Y-120490494D01*
X68168543Y-120489502D01*
X68172914Y-120487165D01*
X68172989Y-120487101D01*
X68173238Y-120486992D01*
X68173902Y-120486636D01*
X68173914Y-120486632D01*
X68337782Y-120377139D01*
X68477139Y-120237782D01*
X68586632Y-120073914D01*
X68662051Y-119891835D01*
X68700500Y-119698543D01*
X69239499Y-119698543D01*
X69277947Y-119891829D01*
X69277950Y-119891839D01*
X69353364Y-120073907D01*
X69353371Y-120073920D01*
X69462860Y-120237781D01*
X69462863Y-120237785D01*
X69602217Y-120377139D01*
X69720260Y-120456012D01*
X69766086Y-120486632D01*
X69766092Y-120486634D01*
X69771457Y-120489502D01*
X69770453Y-120491378D01*
X69817355Y-120529173D01*
X69839421Y-120595467D01*
X69839500Y-120599895D01*
X69839500Y-125367726D01*
X69866793Y-125469589D01*
X69891962Y-125513181D01*
X69919520Y-125560913D01*
X69919521Y-125560914D01*
X69919522Y-125560915D01*
X70550179Y-126191571D01*
X70550189Y-126191582D01*
X70554519Y-126195912D01*
X70554520Y-126195913D01*
X70629087Y-126270480D01*
X70720413Y-126323207D01*
X70822273Y-126350501D01*
X70822275Y-126350501D01*
X70935323Y-126350501D01*
X70935339Y-126350500D01*
X86532745Y-126350500D01*
X86599784Y-126370185D01*
X86620426Y-126386819D01*
X94723145Y-134489537D01*
X94756630Y-134550860D01*
X94757081Y-134601409D01*
X94727500Y-134750122D01*
X94727500Y-134929877D01*
X94762565Y-135106158D01*
X94762568Y-135106170D01*
X94831349Y-135272224D01*
X94831356Y-135272237D01*
X94931214Y-135421684D01*
X94931217Y-135421688D01*
X95058311Y-135548782D01*
X95058315Y-135548785D01*
X95207762Y-135648643D01*
X95207775Y-135648650D01*
X95373829Y-135717431D01*
X95373834Y-135717433D01*
X95550122Y-135752499D01*
X95550125Y-135752500D01*
X95550127Y-135752500D01*
X95729875Y-135752500D01*
X95729876Y-135752499D01*
X95906166Y-135717433D01*
X96072231Y-135648647D01*
X96221685Y-135548785D01*
X96348785Y-135421685D01*
X96448647Y-135272231D01*
X96517433Y-135106166D01*
X96552500Y-134929873D01*
X96552500Y-134750127D01*
X96552500Y-134750124D01*
X96552499Y-134750122D01*
X97267500Y-134750122D01*
X97267500Y-134929877D01*
X97302565Y-135106158D01*
X97302568Y-135106170D01*
X97371349Y-135272224D01*
X97371356Y-135272237D01*
X97471214Y-135421684D01*
X97471217Y-135421688D01*
X97598311Y-135548782D01*
X97598315Y-135548785D01*
X97747762Y-135648643D01*
X97747775Y-135648650D01*
X97913829Y-135717431D01*
X97913834Y-135717433D01*
X98090122Y-135752499D01*
X98090125Y-135752500D01*
X98090127Y-135752500D01*
X98269875Y-135752500D01*
X98269876Y-135752499D01*
X98309209Y-135744675D01*
X98416211Y-135723392D01*
X98430722Y-135720504D01*
X98446166Y-135717433D01*
X98612231Y-135648647D01*
X98761685Y-135548785D01*
X98888785Y-135421685D01*
X98988647Y-135272231D01*
X99057433Y-135106166D01*
X99092500Y-134929873D01*
X99092500Y-134750127D01*
X99092499Y-134750120D01*
X99090621Y-134740678D01*
X99458000Y-134740678D01*
X99458000Y-134939321D01*
X99489075Y-135135520D01*
X99489075Y-135135523D01*
X99550457Y-135324437D01*
X99640641Y-135501432D01*
X99667730Y-135538715D01*
X99667731Y-135538716D01*
X100282352Y-134924094D01*
X100305792Y-135011571D01*
X100364311Y-135112930D01*
X100447070Y-135195689D01*
X100548429Y-135254208D01*
X100635905Y-135277647D01*
X100021283Y-135892268D01*
X100021283Y-135892269D01*
X100058567Y-135919358D01*
X100235562Y-136009542D01*
X100424477Y-136070924D01*
X100620679Y-136102000D01*
X100819321Y-136102000D01*
X101015520Y-136070924D01*
X101015523Y-136070924D01*
X101204437Y-136009542D01*
X101381425Y-135919362D01*
X101418716Y-135892268D01*
X100804095Y-135277647D01*
X100891571Y-135254208D01*
X100992930Y-135195689D01*
X101075689Y-135112930D01*
X101134208Y-135011571D01*
X101157647Y-134924094D01*
X101772268Y-135538715D01*
X101799362Y-135501425D01*
X101889542Y-135324437D01*
X101950924Y-135135523D01*
X101950924Y-135135520D01*
X101982000Y-134939321D01*
X101982000Y-134750122D01*
X102347500Y-134750122D01*
X102347500Y-134929877D01*
X102382565Y-135106158D01*
X102382568Y-135106170D01*
X102451349Y-135272224D01*
X102451356Y-135272237D01*
X102551214Y-135421684D01*
X102551217Y-135421688D01*
X102678311Y-135548782D01*
X102678315Y-135548785D01*
X102827762Y-135648643D01*
X102827775Y-135648650D01*
X102993829Y-135717431D01*
X102993834Y-135717433D01*
X103170122Y-135752499D01*
X103170125Y-135752500D01*
X103170127Y-135752500D01*
X103349875Y-135752500D01*
X103349876Y-135752499D01*
X103526166Y-135717433D01*
X103692231Y-135648647D01*
X103841685Y-135548785D01*
X103968785Y-135421685D01*
X104068647Y-135272231D01*
X104137433Y-135106166D01*
X104172500Y-134929873D01*
X104172500Y-134750127D01*
X104172500Y-134750124D01*
X104172499Y-134750122D01*
X104137434Y-134573841D01*
X104137433Y-134573834D01*
X104102517Y-134489538D01*
X104068650Y-134407775D01*
X104068643Y-134407762D01*
X103968785Y-134258315D01*
X103968782Y-134258311D01*
X103841688Y-134131217D01*
X103841684Y-134131214D01*
X103692237Y-134031356D01*
X103692224Y-134031349D01*
X103526170Y-133962568D01*
X103526158Y-133962565D01*
X103349876Y-133927500D01*
X103349873Y-133927500D01*
X103170127Y-133927500D01*
X103170124Y-133927500D01*
X102993841Y-133962565D01*
X102993829Y-133962568D01*
X102827775Y-134031349D01*
X102827762Y-134031356D01*
X102678315Y-134131214D01*
X102678311Y-134131217D01*
X102551217Y-134258311D01*
X102551214Y-134258315D01*
X102451356Y-134407762D01*
X102451349Y-134407775D01*
X102382568Y-134573829D01*
X102382565Y-134573841D01*
X102347500Y-134750122D01*
X101982000Y-134750122D01*
X101982000Y-134740678D01*
X101950924Y-134544479D01*
X101950924Y-134544476D01*
X101889542Y-134355562D01*
X101799358Y-134178567D01*
X101772268Y-134141283D01*
X101157647Y-134755904D01*
X101134208Y-134668429D01*
X101075689Y-134567070D01*
X100992930Y-134484311D01*
X100891571Y-134425792D01*
X100804094Y-134402352D01*
X101418716Y-133787731D01*
X101418715Y-133787730D01*
X101381432Y-133760641D01*
X101204437Y-133670457D01*
X101015522Y-133609075D01*
X100819321Y-133578000D01*
X100620679Y-133578000D01*
X100424479Y-133609075D01*
X100424476Y-133609075D01*
X100235562Y-133670457D01*
X100058564Y-133760643D01*
X100021283Y-133787729D01*
X100021282Y-133787730D01*
X100635906Y-134402352D01*
X100548429Y-134425792D01*
X100447070Y-134484311D01*
X100364311Y-134567070D01*
X100305792Y-134668429D01*
X100282352Y-134755905D01*
X99667730Y-134141282D01*
X99667729Y-134141283D01*
X99640643Y-134178564D01*
X99550457Y-134355562D01*
X99489075Y-134544476D01*
X99489075Y-134544479D01*
X99458000Y-134740678D01*
X99090621Y-134740678D01*
X99057434Y-134573841D01*
X99057433Y-134573834D01*
X99022517Y-134489538D01*
X98988650Y-134407775D01*
X98988643Y-134407762D01*
X98888785Y-134258315D01*
X98888782Y-134258311D01*
X98761688Y-134131217D01*
X98761684Y-134131214D01*
X98612237Y-134031356D01*
X98612224Y-134031349D01*
X98446170Y-133962568D01*
X98446158Y-133962565D01*
X98416206Y-133956607D01*
X98269876Y-133927500D01*
X98269873Y-133927500D01*
X98090127Y-133927500D01*
X98090124Y-133927500D01*
X97913841Y-133962565D01*
X97913829Y-133962568D01*
X97747775Y-134031349D01*
X97747762Y-134031356D01*
X97598315Y-134131214D01*
X97598311Y-134131217D01*
X97471217Y-134258311D01*
X97471214Y-134258315D01*
X97371356Y-134407762D01*
X97371349Y-134407775D01*
X97302568Y-134573829D01*
X97302565Y-134573841D01*
X97267500Y-134750122D01*
X96552499Y-134750122D01*
X96517434Y-134573841D01*
X96517433Y-134573834D01*
X96482517Y-134489538D01*
X96448650Y-134407775D01*
X96448643Y-134407762D01*
X96348785Y-134258315D01*
X96348782Y-134258311D01*
X96221688Y-134131217D01*
X96221684Y-134131214D01*
X96072237Y-134031356D01*
X96072224Y-134031349D01*
X95906170Y-133962568D01*
X95906158Y-133962565D01*
X95729876Y-133927500D01*
X95729873Y-133927500D01*
X95550127Y-133927500D01*
X95550122Y-133927500D01*
X95401409Y-133957081D01*
X95331818Y-133950854D01*
X95289537Y-133923145D01*
X86995915Y-125629522D01*
X86995914Y-125629521D01*
X86995913Y-125629520D01*
X86950250Y-125603156D01*
X86904589Y-125576793D01*
X86845318Y-125560912D01*
X86802727Y-125549500D01*
X86802726Y-125549500D01*
X71092254Y-125549500D01*
X71025215Y-125529815D01*
X71004573Y-125513181D01*
X70676819Y-125185426D01*
X70643334Y-125124103D01*
X70640500Y-125097745D01*
X70640500Y-120599895D01*
X70660185Y-120532856D01*
X70709073Y-120490494D01*
X70708543Y-120489502D01*
X70712914Y-120487165D01*
X70712989Y-120487101D01*
X70713238Y-120486992D01*
X70713902Y-120486636D01*
X70713914Y-120486632D01*
X70877782Y-120377139D01*
X71017139Y-120237782D01*
X71126632Y-120073914D01*
X71202051Y-119891835D01*
X71240500Y-119698541D01*
X71240500Y-119501459D01*
X71240500Y-119501456D01*
X71202052Y-119308170D01*
X71202051Y-119308169D01*
X71202051Y-119308165D01*
X71191439Y-119282544D01*
X71126635Y-119126092D01*
X71126628Y-119126079D01*
X71017139Y-118962218D01*
X71017136Y-118962214D01*
X70877785Y-118822863D01*
X70877781Y-118822860D01*
X70713920Y-118713371D01*
X70713907Y-118713364D01*
X70531839Y-118637950D01*
X70531829Y-118637947D01*
X70338543Y-118599500D01*
X70338541Y-118599500D01*
X70141459Y-118599500D01*
X70141457Y-118599500D01*
X69948170Y-118637947D01*
X69948160Y-118637950D01*
X69766092Y-118713364D01*
X69766079Y-118713371D01*
X69602218Y-118822860D01*
X69602214Y-118822863D01*
X69462863Y-118962214D01*
X69462860Y-118962218D01*
X69353371Y-119126079D01*
X69353364Y-119126092D01*
X69277950Y-119308160D01*
X69277947Y-119308170D01*
X69239500Y-119501456D01*
X69239500Y-119501459D01*
X69239500Y-119698541D01*
X69239500Y-119698543D01*
X69239499Y-119698543D01*
X68700500Y-119698543D01*
X68700500Y-119698541D01*
X68700500Y-119501459D01*
X68700500Y-119501456D01*
X68662052Y-119308170D01*
X68662051Y-119308169D01*
X68662051Y-119308165D01*
X68651439Y-119282544D01*
X68586635Y-119126092D01*
X68586628Y-119126079D01*
X68477139Y-118962218D01*
X68477136Y-118962214D01*
X68337785Y-118822863D01*
X68337781Y-118822860D01*
X68173920Y-118713371D01*
X68173907Y-118713364D01*
X67991839Y-118637950D01*
X67991829Y-118637947D01*
X67798543Y-118599500D01*
X67798541Y-118599500D01*
X67601459Y-118599500D01*
X67601457Y-118599500D01*
X67408170Y-118637947D01*
X67408160Y-118637950D01*
X67226092Y-118713364D01*
X67226079Y-118713371D01*
X67062218Y-118822860D01*
X67062214Y-118822863D01*
X66922863Y-118962214D01*
X66922860Y-118962218D01*
X66813371Y-119126079D01*
X66813364Y-119126092D01*
X66737950Y-119308160D01*
X66737947Y-119308170D01*
X66699500Y-119501456D01*
X66699500Y-119501459D01*
X66699500Y-119698541D01*
X66699500Y-119698543D01*
X66699499Y-119698543D01*
X66160500Y-119698543D01*
X66160500Y-119698541D01*
X66160500Y-119501459D01*
X66160500Y-119501456D01*
X66122052Y-119308170D01*
X66122051Y-119308169D01*
X66122051Y-119308165D01*
X66111439Y-119282544D01*
X66046635Y-119126092D01*
X66046628Y-119126079D01*
X65937139Y-118962218D01*
X65937136Y-118962214D01*
X65797785Y-118822863D01*
X65797781Y-118822860D01*
X65633920Y-118713371D01*
X65633907Y-118713364D01*
X65451839Y-118637950D01*
X65451829Y-118637947D01*
X65258543Y-118599500D01*
X65258541Y-118599500D01*
X65061459Y-118599500D01*
X65061457Y-118599500D01*
X64868170Y-118637947D01*
X64868160Y-118637950D01*
X64686092Y-118713364D01*
X64686079Y-118713371D01*
X64522218Y-118822860D01*
X64522214Y-118822863D01*
X64382863Y-118962214D01*
X64382860Y-118962218D01*
X64273371Y-119126079D01*
X64273364Y-119126092D01*
X64197950Y-119308160D01*
X64197947Y-119308170D01*
X64159500Y-119501456D01*
X64159500Y-119501459D01*
X64159500Y-119698541D01*
X64159500Y-119698543D01*
X64159499Y-119698543D01*
X63620500Y-119698543D01*
X63620500Y-119698541D01*
X63620500Y-119501459D01*
X63620500Y-119501456D01*
X63582052Y-119308170D01*
X63582051Y-119308169D01*
X63582051Y-119308165D01*
X63571439Y-119282544D01*
X63506635Y-119126092D01*
X63506628Y-119126079D01*
X63397139Y-118962218D01*
X63397136Y-118962214D01*
X63257785Y-118822863D01*
X63257781Y-118822860D01*
X63093920Y-118713371D01*
X63093907Y-118713364D01*
X62911839Y-118637950D01*
X62911829Y-118637947D01*
X62718543Y-118599500D01*
X62718541Y-118599500D01*
X62521459Y-118599500D01*
X62521457Y-118599500D01*
X62328170Y-118637947D01*
X62328160Y-118637950D01*
X62146092Y-118713364D01*
X62146079Y-118713371D01*
X61982218Y-118822860D01*
X61982214Y-118822863D01*
X61842863Y-118962214D01*
X61842860Y-118962218D01*
X61733371Y-119126079D01*
X61733364Y-119126092D01*
X61668561Y-119282544D01*
X61624720Y-119336948D01*
X61558426Y-119359013D01*
X61490727Y-119341734D01*
X61443116Y-119290597D01*
X61430000Y-119235092D01*
X61430000Y-118702172D01*
X61429999Y-118702155D01*
X61423598Y-118642627D01*
X61423596Y-118642620D01*
X61373354Y-118507913D01*
X61373350Y-118507906D01*
X61287190Y-118392812D01*
X61287187Y-118392809D01*
X61172093Y-118306649D01*
X61172086Y-118306645D01*
X61037379Y-118256403D01*
X61037372Y-118256401D01*
X60977844Y-118250000D01*
X60330000Y-118250000D01*
X60330000Y-119166988D01*
X60272993Y-119134075D01*
X60145826Y-119100000D01*
X60014174Y-119100000D01*
X59887007Y-119134075D01*
X59830000Y-119166988D01*
X59830000Y-118250000D01*
X59182155Y-118250000D01*
X59122627Y-118256401D01*
X59122620Y-118256403D01*
X58987913Y-118306645D01*
X58987906Y-118306649D01*
X58872812Y-118392809D01*
X58872809Y-118392812D01*
X58786649Y-118507906D01*
X58786645Y-118507913D01*
X58736403Y-118642620D01*
X58736401Y-118642627D01*
X58730000Y-118702155D01*
X55075500Y-118702155D01*
X55075500Y-113146530D01*
X65760500Y-113146530D01*
X65760500Y-113353469D01*
X65800868Y-113556412D01*
X65800870Y-113556420D01*
X65845710Y-113664674D01*
X65880059Y-113747598D01*
X65911500Y-113794653D01*
X65995024Y-113919657D01*
X66141342Y-114065975D01*
X66141345Y-114065977D01*
X66313402Y-114180941D01*
X66504580Y-114260130D01*
X66686938Y-114296403D01*
X66707530Y-114300499D01*
X66707534Y-114300500D01*
X66707535Y-114300500D01*
X66914466Y-114300500D01*
X66914467Y-114300499D01*
X67117420Y-114260130D01*
X67308598Y-114180941D01*
X67480655Y-114065977D01*
X67626977Y-113919655D01*
X67741941Y-113747598D01*
X67780703Y-113654018D01*
X67824542Y-113599616D01*
X67890836Y-113577551D01*
X67958536Y-113594830D01*
X68006147Y-113645967D01*
X68013194Y-113663154D01*
X68053567Y-113787410D01*
X68153611Y-113983756D01*
X68199932Y-114047513D01*
X68912944Y-113334501D01*
X68936326Y-113421764D01*
X68994911Y-113523236D01*
X69077764Y-113606089D01*
X69179236Y-113664674D01*
X69266496Y-113688055D01*
X68553485Y-114401065D01*
X68553485Y-114401066D01*
X68617243Y-114447388D01*
X68813589Y-114547432D01*
X69023164Y-114615526D01*
X69240819Y-114650000D01*
X69461181Y-114650000D01*
X69678835Y-114615526D01*
X69888410Y-114547432D01*
X70089101Y-114445175D01*
X70090037Y-114447012D01*
X70149118Y-114431011D01*
X70215727Y-114452106D01*
X70260357Y-114505864D01*
X70270500Y-114554983D01*
X70270500Y-116217144D01*
X70293997Y-116304834D01*
X70294386Y-116306287D01*
X70294387Y-116306290D01*
X70340527Y-116386208D01*
X70340529Y-116386211D01*
X70340530Y-116386212D01*
X70970788Y-117016470D01*
X71019336Y-117044499D01*
X71019337Y-117044500D01*
X71050706Y-117062611D01*
X71050707Y-117062611D01*
X71050712Y-117062614D01*
X71139856Y-117086500D01*
X71139857Y-117086500D01*
X71232144Y-117086500D01*
X73840176Y-117086500D01*
X73907215Y-117106185D01*
X73952970Y-117158989D01*
X73962914Y-117228147D01*
X73933889Y-117291703D01*
X73902177Y-117317887D01*
X73804087Y-117374520D01*
X73804084Y-117374522D01*
X72580289Y-118598316D01*
X72518966Y-118631801D01*
X72516801Y-118632252D01*
X72488169Y-118637947D01*
X72488162Y-118637949D01*
X72306092Y-118713364D01*
X72306079Y-118713371D01*
X72142218Y-118822860D01*
X72142214Y-118822863D01*
X72002863Y-118962214D01*
X72002860Y-118962218D01*
X71893371Y-119126079D01*
X71893364Y-119126092D01*
X71817950Y-119308160D01*
X71817947Y-119308170D01*
X71779500Y-119501456D01*
X71779500Y-119501459D01*
X71779500Y-119698541D01*
X71779500Y-119698543D01*
X71779499Y-119698543D01*
X71817947Y-119891829D01*
X71817950Y-119891839D01*
X71893364Y-120073907D01*
X71893371Y-120073920D01*
X72002860Y-120237781D01*
X72002863Y-120237785D01*
X72142214Y-120377136D01*
X72142218Y-120377139D01*
X72306079Y-120486628D01*
X72306092Y-120486635D01*
X72488160Y-120562049D01*
X72488165Y-120562051D01*
X72488169Y-120562051D01*
X72488170Y-120562052D01*
X72681456Y-120600500D01*
X72681459Y-120600500D01*
X72878543Y-120600500D01*
X73008582Y-120574632D01*
X73071835Y-120562051D01*
X73226887Y-120497827D01*
X73253907Y-120486635D01*
X73253907Y-120486634D01*
X73253914Y-120486632D01*
X73417782Y-120377139D01*
X73557139Y-120237782D01*
X73666632Y-120073914D01*
X73742051Y-119891835D01*
X73780500Y-119698543D01*
X74319499Y-119698543D01*
X74357947Y-119891829D01*
X74357950Y-119891839D01*
X74433364Y-120073907D01*
X74433371Y-120073920D01*
X74542860Y-120237781D01*
X74542863Y-120237785D01*
X74682217Y-120377139D01*
X74800260Y-120456012D01*
X74846086Y-120486632D01*
X74846092Y-120486634D01*
X74851457Y-120489502D01*
X74850453Y-120491378D01*
X74897355Y-120529173D01*
X74919421Y-120595467D01*
X74919500Y-120599895D01*
X74919500Y-122192726D01*
X74946793Y-122294589D01*
X74973156Y-122340250D01*
X74999520Y-122385913D01*
X76344087Y-123730480D01*
X76435412Y-123783207D01*
X76537273Y-123810500D01*
X76537275Y-123810500D01*
X91882725Y-123810500D01*
X91882727Y-123810500D01*
X91984588Y-123783207D01*
X92075913Y-123730480D01*
X93420480Y-122385913D01*
X93473207Y-122294588D01*
X93500500Y-122192727D01*
X93500500Y-122087273D01*
X93500500Y-120496128D01*
X93520185Y-120429089D01*
X93555610Y-120393026D01*
X93619748Y-120350169D01*
X93681685Y-120308785D01*
X93808785Y-120181685D01*
X93908647Y-120032231D01*
X93977433Y-119866166D01*
X94012500Y-119689873D01*
X94012500Y-119510127D01*
X94012500Y-119510124D01*
X94012499Y-119510122D01*
X93982441Y-119359013D01*
X93977433Y-119333834D01*
X93936533Y-119235092D01*
X93908650Y-119167775D01*
X93908643Y-119167762D01*
X93808785Y-119018315D01*
X93808782Y-119018311D01*
X93681688Y-118891217D01*
X93681684Y-118891214D01*
X93532237Y-118791356D01*
X93532224Y-118791349D01*
X93366170Y-118722568D01*
X93366158Y-118722565D01*
X93189876Y-118687500D01*
X93189873Y-118687500D01*
X93010127Y-118687500D01*
X93010124Y-118687500D01*
X92833841Y-118722565D01*
X92833829Y-118722568D01*
X92667775Y-118791349D01*
X92667762Y-118791356D01*
X92518315Y-118891214D01*
X92518311Y-118891217D01*
X92391217Y-119018311D01*
X92391214Y-119018315D01*
X92291356Y-119167762D01*
X92291349Y-119167775D01*
X92222568Y-119333829D01*
X92222565Y-119333841D01*
X92187500Y-119510122D01*
X92187500Y-119689877D01*
X92222565Y-119866158D01*
X92222568Y-119866170D01*
X92291349Y-120032224D01*
X92291356Y-120032237D01*
X92391214Y-120181684D01*
X92391217Y-120181688D01*
X92518311Y-120308782D01*
X92518319Y-120308788D01*
X92644390Y-120393026D01*
X92689196Y-120446638D01*
X92699500Y-120496128D01*
X92699500Y-121922745D01*
X92679815Y-121989784D01*
X92663181Y-122010426D01*
X91700426Y-122973181D01*
X91639103Y-123006666D01*
X91612745Y-123009500D01*
X76807255Y-123009500D01*
X76740216Y-122989815D01*
X76719574Y-122973181D01*
X75756819Y-122010426D01*
X75723334Y-121949103D01*
X75720500Y-121922745D01*
X75720500Y-120599895D01*
X75740185Y-120532856D01*
X75789073Y-120490494D01*
X75788543Y-120489502D01*
X75792914Y-120487165D01*
X75792989Y-120487101D01*
X75793238Y-120486992D01*
X75793902Y-120486636D01*
X75793914Y-120486632D01*
X75957782Y-120377139D01*
X76097139Y-120237782D01*
X76206632Y-120073914D01*
X76282051Y-119891835D01*
X76320500Y-119698541D01*
X76320500Y-119501459D01*
X76320500Y-119501456D01*
X76282052Y-119308170D01*
X76282051Y-119308169D01*
X76282051Y-119308165D01*
X76271439Y-119282544D01*
X76206635Y-119126092D01*
X76206628Y-119126079D01*
X76097139Y-118962218D01*
X76097136Y-118962214D01*
X75957785Y-118822863D01*
X75957781Y-118822860D01*
X75793920Y-118713371D01*
X75793907Y-118713364D01*
X75611839Y-118637950D01*
X75611829Y-118637947D01*
X75418543Y-118599500D01*
X75418541Y-118599500D01*
X75221459Y-118599500D01*
X75221457Y-118599500D01*
X75028170Y-118637947D01*
X75028160Y-118637950D01*
X74846092Y-118713364D01*
X74846079Y-118713371D01*
X74682218Y-118822860D01*
X74682214Y-118822863D01*
X74542863Y-118962214D01*
X74542860Y-118962218D01*
X74433371Y-119126079D01*
X74433364Y-119126092D01*
X74357950Y-119308160D01*
X74357947Y-119308170D01*
X74319500Y-119501456D01*
X74319500Y-119501459D01*
X74319500Y-119698541D01*
X74319500Y-119698543D01*
X74319499Y-119698543D01*
X73780500Y-119698543D01*
X73780500Y-119698541D01*
X73780500Y-119501459D01*
X73780500Y-119501456D01*
X73742052Y-119308170D01*
X73742051Y-119308169D01*
X73742051Y-119308165D01*
X73731439Y-119282544D01*
X73666635Y-119126092D01*
X73666628Y-119126079D01*
X73557139Y-118962218D01*
X73557136Y-118962214D01*
X73540838Y-118945916D01*
X73507353Y-118884593D01*
X73512337Y-118814901D01*
X73540836Y-118770556D01*
X74179574Y-118131819D01*
X74240897Y-118098334D01*
X74267255Y-118095500D01*
X76372745Y-118095500D01*
X76439784Y-118115185D01*
X76460426Y-118131819D01*
X80075179Y-121746571D01*
X80075189Y-121746582D01*
X80079519Y-121750912D01*
X80079520Y-121750913D01*
X80154087Y-121825480D01*
X80245413Y-121878207D01*
X80347273Y-121905501D01*
X80347275Y-121905501D01*
X80460323Y-121905501D01*
X80460339Y-121905500D01*
X89977725Y-121905500D01*
X89977727Y-121905500D01*
X90079588Y-121878207D01*
X90170913Y-121825480D01*
X90795706Y-121200684D01*
X90795711Y-121200681D01*
X90805911Y-121190480D01*
X90805913Y-121190480D01*
X90880480Y-121115913D01*
X90933207Y-121024587D01*
X90960501Y-120922727D01*
X90960501Y-120817273D01*
X90960501Y-120809678D01*
X90960500Y-120809660D01*
X90960500Y-120496128D01*
X90980185Y-120429089D01*
X91015610Y-120393026D01*
X91079748Y-120350169D01*
X91141685Y-120308785D01*
X91268785Y-120181685D01*
X91368647Y-120032231D01*
X91437433Y-119866166D01*
X91472500Y-119689873D01*
X91472500Y-119510127D01*
X91472500Y-119510124D01*
X91472499Y-119510122D01*
X91442441Y-119359013D01*
X91437433Y-119333834D01*
X91396533Y-119235092D01*
X91368650Y-119167775D01*
X91368643Y-119167762D01*
X91268785Y-119018315D01*
X91268782Y-119018311D01*
X91141688Y-118891217D01*
X91141684Y-118891214D01*
X90992237Y-118791356D01*
X90992224Y-118791349D01*
X90826170Y-118722568D01*
X90826158Y-118722565D01*
X90649876Y-118687500D01*
X90649873Y-118687500D01*
X90470127Y-118687500D01*
X90470124Y-118687500D01*
X90293841Y-118722565D01*
X90293829Y-118722568D01*
X90127775Y-118791349D01*
X90127762Y-118791356D01*
X89978315Y-118891214D01*
X89978311Y-118891217D01*
X89851217Y-119018311D01*
X89851214Y-119018315D01*
X89751356Y-119167762D01*
X89751349Y-119167775D01*
X89682568Y-119333829D01*
X89682565Y-119333841D01*
X89647500Y-119510122D01*
X89647500Y-119689877D01*
X89682565Y-119866158D01*
X89682568Y-119866170D01*
X89751349Y-120032224D01*
X89751356Y-120032237D01*
X89851214Y-120181684D01*
X89851217Y-120181688D01*
X89978311Y-120308782D01*
X89978319Y-120308788D01*
X90104390Y-120393026D01*
X90109480Y-120399116D01*
X90116703Y-120402415D01*
X90131567Y-120425545D01*
X90149196Y-120446638D01*
X90151147Y-120456012D01*
X90154477Y-120461193D01*
X90159500Y-120496128D01*
X90159500Y-120652745D01*
X90139815Y-120719784D01*
X90123181Y-120740426D01*
X89795426Y-121068181D01*
X89734103Y-121101666D01*
X89707745Y-121104500D01*
X80617254Y-121104500D01*
X80550215Y-121084815D01*
X80529573Y-121068181D01*
X79053108Y-119591716D01*
X78971514Y-119510122D01*
X87107500Y-119510122D01*
X87107500Y-119689877D01*
X87142565Y-119866158D01*
X87142568Y-119866170D01*
X87211349Y-120032224D01*
X87211356Y-120032237D01*
X87311214Y-120181684D01*
X87311217Y-120181688D01*
X87438311Y-120308782D01*
X87438315Y-120308785D01*
X87587762Y-120408643D01*
X87587775Y-120408650D01*
X87714627Y-120461193D01*
X87753834Y-120477433D01*
X87856447Y-120497844D01*
X87930122Y-120512499D01*
X87930125Y-120512500D01*
X87930127Y-120512500D01*
X88109875Y-120512500D01*
X88109876Y-120512499D01*
X88286166Y-120477433D01*
X88452231Y-120408647D01*
X88601685Y-120308785D01*
X88728785Y-120181685D01*
X88828647Y-120032231D01*
X88897433Y-119866166D01*
X88932500Y-119689873D01*
X88932500Y-119510127D01*
X88932500Y-119510124D01*
X88932499Y-119510122D01*
X88902441Y-119359013D01*
X88897433Y-119333834D01*
X88856533Y-119235092D01*
X88828650Y-119167775D01*
X88828643Y-119167762D01*
X88728785Y-119018315D01*
X88728782Y-119018311D01*
X88601688Y-118891217D01*
X88601684Y-118891214D01*
X88452237Y-118791356D01*
X88452224Y-118791349D01*
X88286170Y-118722568D01*
X88286158Y-118722565D01*
X88109876Y-118687500D01*
X88109873Y-118687500D01*
X87930127Y-118687500D01*
X87930124Y-118687500D01*
X87753841Y-118722565D01*
X87753829Y-118722568D01*
X87587775Y-118791349D01*
X87587762Y-118791356D01*
X87438315Y-118891214D01*
X87438311Y-118891217D01*
X87311217Y-119018311D01*
X87311214Y-119018315D01*
X87211356Y-119167762D01*
X87211349Y-119167775D01*
X87142568Y-119333829D01*
X87142565Y-119333841D01*
X87107500Y-119510122D01*
X78971514Y-119510122D01*
X78696484Y-119235092D01*
X76835913Y-117374520D01*
X76744588Y-117321793D01*
X76737823Y-117317887D01*
X76689608Y-117267319D01*
X76676386Y-117198712D01*
X76702354Y-117133847D01*
X76759269Y-117093320D01*
X76799824Y-117086500D01*
X94611456Y-117086500D01*
X94678495Y-117106185D01*
X94699137Y-117122819D01*
X95253181Y-117676863D01*
X95286666Y-117738186D01*
X95289500Y-117764544D01*
X95289500Y-118674644D01*
X95269815Y-118741683D01*
X95217011Y-118787438D01*
X95212957Y-118789203D01*
X95207777Y-118791348D01*
X95207762Y-118791356D01*
X95058315Y-118891214D01*
X95058311Y-118891217D01*
X94931217Y-119018311D01*
X94931214Y-119018315D01*
X94831356Y-119167762D01*
X94831349Y-119167775D01*
X94762568Y-119333829D01*
X94762565Y-119333841D01*
X94727500Y-119510122D01*
X94727500Y-119689877D01*
X94762565Y-119866158D01*
X94762568Y-119866170D01*
X94831349Y-120032224D01*
X94831356Y-120032237D01*
X94931214Y-120181684D01*
X94931217Y-120181688D01*
X95058311Y-120308782D01*
X95058315Y-120308785D01*
X95207762Y-120408643D01*
X95207775Y-120408650D01*
X95334627Y-120461193D01*
X95373834Y-120477433D01*
X95476447Y-120497844D01*
X95550122Y-120512499D01*
X95550125Y-120512500D01*
X95550127Y-120512500D01*
X95729875Y-120512500D01*
X95729876Y-120512499D01*
X95906166Y-120477433D01*
X96072231Y-120408647D01*
X96221685Y-120308785D01*
X96348785Y-120181685D01*
X96448647Y-120032231D01*
X96517433Y-119866166D01*
X96552500Y-119689873D01*
X96552500Y-119510127D01*
X96552500Y-119510124D01*
X96552499Y-119510122D01*
X96522441Y-119359013D01*
X96517433Y-119333834D01*
X96476533Y-119235092D01*
X96448650Y-119167775D01*
X96448643Y-119167762D01*
X96348785Y-119018315D01*
X96348782Y-119018311D01*
X96221688Y-118891217D01*
X96221684Y-118891214D01*
X96072237Y-118791356D01*
X96072222Y-118791348D01*
X96067043Y-118789203D01*
X96012641Y-118745360D01*
X95990579Y-118679065D01*
X95990500Y-118674644D01*
X95990500Y-117521858D01*
X95990500Y-117521856D01*
X95966614Y-117432712D01*
X95939999Y-117386614D01*
X95939999Y-117386612D01*
X95920474Y-117352794D01*
X95920468Y-117352786D01*
X95315863Y-116748181D01*
X95282378Y-116686858D01*
X95287362Y-116617166D01*
X95329234Y-116561233D01*
X95394698Y-116536816D01*
X95403544Y-116536500D01*
X97475456Y-116536500D01*
X97542495Y-116556185D01*
X97563137Y-116572819D01*
X97793181Y-116802863D01*
X97826666Y-116864186D01*
X97829500Y-116890544D01*
X97829500Y-118674644D01*
X97809815Y-118741683D01*
X97757011Y-118787438D01*
X97752957Y-118789203D01*
X97747777Y-118791348D01*
X97747762Y-118791356D01*
X97598315Y-118891214D01*
X97598311Y-118891217D01*
X97471217Y-119018311D01*
X97471214Y-119018315D01*
X97371356Y-119167762D01*
X97371349Y-119167775D01*
X97302568Y-119333829D01*
X97302565Y-119333841D01*
X97267500Y-119510122D01*
X97267500Y-119689877D01*
X97302565Y-119866158D01*
X97302568Y-119866170D01*
X97371349Y-120032224D01*
X97371356Y-120032237D01*
X97471214Y-120181684D01*
X97471217Y-120181688D01*
X97598311Y-120308782D01*
X97598315Y-120308785D01*
X97747762Y-120408643D01*
X97747775Y-120408650D01*
X97874627Y-120461193D01*
X97913834Y-120477433D01*
X98016447Y-120497844D01*
X98090122Y-120512499D01*
X98090125Y-120512500D01*
X98090127Y-120512500D01*
X98269875Y-120512500D01*
X98269876Y-120512499D01*
X98446166Y-120477433D01*
X98612231Y-120408647D01*
X98761685Y-120308785D01*
X98888785Y-120181685D01*
X98988647Y-120032231D01*
X99057433Y-119866166D01*
X99092500Y-119689873D01*
X99092500Y-119510127D01*
X99092500Y-119510124D01*
X99092499Y-119510122D01*
X99062441Y-119359013D01*
X99057433Y-119333834D01*
X99016533Y-119235092D01*
X98988650Y-119167775D01*
X98988643Y-119167762D01*
X98888785Y-119018315D01*
X98888782Y-119018311D01*
X98761688Y-118891217D01*
X98761684Y-118891214D01*
X98612237Y-118791356D01*
X98612222Y-118791348D01*
X98607043Y-118789203D01*
X98552641Y-118745360D01*
X98530579Y-118679065D01*
X98530500Y-118674644D01*
X98530500Y-116647858D01*
X98530500Y-116647856D01*
X98506614Y-116558712D01*
X98493789Y-116536499D01*
X98460469Y-116478787D01*
X98179863Y-116198181D01*
X98146378Y-116136858D01*
X98151362Y-116067166D01*
X98193234Y-116011233D01*
X98258698Y-115986816D01*
X98267544Y-115986500D01*
X99099456Y-115986500D01*
X99166495Y-116006185D01*
X99187137Y-116022819D01*
X100333181Y-117168863D01*
X100366666Y-117230186D01*
X100369500Y-117256544D01*
X100369500Y-118674644D01*
X100349815Y-118741683D01*
X100297011Y-118787438D01*
X100292957Y-118789203D01*
X100287777Y-118791348D01*
X100287762Y-118791356D01*
X100138315Y-118891214D01*
X100138311Y-118891217D01*
X100011217Y-119018311D01*
X100011214Y-119018315D01*
X99911356Y-119167762D01*
X99911349Y-119167775D01*
X99842568Y-119333829D01*
X99842565Y-119333841D01*
X99807500Y-119510122D01*
X99807500Y-119689877D01*
X99842565Y-119866158D01*
X99842568Y-119866170D01*
X99911349Y-120032224D01*
X99911356Y-120032237D01*
X100011214Y-120181684D01*
X100011217Y-120181688D01*
X100138311Y-120308782D01*
X100138315Y-120308785D01*
X100287762Y-120408643D01*
X100287775Y-120408650D01*
X100414627Y-120461193D01*
X100453834Y-120477433D01*
X100556447Y-120497844D01*
X100630122Y-120512499D01*
X100630125Y-120512500D01*
X100630127Y-120512500D01*
X100809875Y-120512500D01*
X100809876Y-120512499D01*
X100986166Y-120477433D01*
X101152231Y-120408647D01*
X101301685Y-120308785D01*
X101428785Y-120181685D01*
X101528647Y-120032231D01*
X101597433Y-119866166D01*
X101632500Y-119689873D01*
X101632500Y-119510127D01*
X101632500Y-119510124D01*
X101632499Y-119510122D01*
X101602441Y-119359013D01*
X101597433Y-119333834D01*
X101556533Y-119235092D01*
X101528650Y-119167775D01*
X101528643Y-119167762D01*
X101428785Y-119018315D01*
X101428782Y-119018311D01*
X101301688Y-118891217D01*
X101301684Y-118891214D01*
X101152237Y-118791356D01*
X101152222Y-118791348D01*
X101147043Y-118789203D01*
X101092641Y-118745360D01*
X101070579Y-118679065D01*
X101070500Y-118674644D01*
X101070500Y-117013858D01*
X101070500Y-117013856D01*
X101046614Y-116924712D01*
X101037665Y-116909212D01*
X101000470Y-116844788D01*
X99803863Y-115648181D01*
X99770378Y-115586858D01*
X99775362Y-115517166D01*
X99817234Y-115461233D01*
X99882698Y-115436816D01*
X99891544Y-115436500D01*
X101160865Y-115436500D01*
X101227904Y-115456185D01*
X101248546Y-115472819D01*
X102873181Y-117097454D01*
X102906666Y-117158777D01*
X102909500Y-117185135D01*
X102909500Y-118674644D01*
X102889815Y-118741683D01*
X102837011Y-118787438D01*
X102832957Y-118789203D01*
X102827777Y-118791348D01*
X102827762Y-118791356D01*
X102678315Y-118891214D01*
X102678311Y-118891217D01*
X102551217Y-119018311D01*
X102551214Y-119018315D01*
X102451356Y-119167762D01*
X102451349Y-119167775D01*
X102382568Y-119333829D01*
X102382565Y-119333841D01*
X102347500Y-119510122D01*
X102347500Y-119689877D01*
X102382565Y-119866158D01*
X102382568Y-119866170D01*
X102451349Y-120032224D01*
X102451356Y-120032237D01*
X102551214Y-120181684D01*
X102551217Y-120181688D01*
X102678311Y-120308782D01*
X102678315Y-120308785D01*
X102827762Y-120408643D01*
X102827775Y-120408650D01*
X102954627Y-120461193D01*
X102993834Y-120477433D01*
X103096447Y-120497844D01*
X103170122Y-120512499D01*
X103170125Y-120512500D01*
X103170127Y-120512500D01*
X103349875Y-120512500D01*
X103349876Y-120512499D01*
X103526166Y-120477433D01*
X103692231Y-120408647D01*
X103841685Y-120308785D01*
X103968785Y-120181685D01*
X104068647Y-120032231D01*
X104137433Y-119866166D01*
X104172500Y-119689873D01*
X104172500Y-119510127D01*
X104172500Y-119510124D01*
X104172499Y-119510122D01*
X104142441Y-119359013D01*
X104137433Y-119333834D01*
X104096533Y-119235092D01*
X104068650Y-119167775D01*
X104068643Y-119167762D01*
X103968785Y-119018315D01*
X103968782Y-119018311D01*
X103841688Y-118891217D01*
X103841684Y-118891214D01*
X103692237Y-118791356D01*
X103692222Y-118791348D01*
X103687043Y-118789203D01*
X103632641Y-118745360D01*
X103610579Y-118679065D01*
X103610500Y-118674644D01*
X103610500Y-116942449D01*
X103610500Y-116942447D01*
X103586614Y-116853303D01*
X103581698Y-116844789D01*
X103545533Y-116782149D01*
X103545532Y-116782146D01*
X103540472Y-116773382D01*
X103540469Y-116773378D01*
X101572622Y-114805531D01*
X101572617Y-114805527D01*
X101492699Y-114759387D01*
X101492698Y-114759386D01*
X101492697Y-114759386D01*
X101403553Y-114735500D01*
X101403552Y-114735500D01*
X91322544Y-114735500D01*
X91255505Y-114715815D01*
X91234863Y-114699181D01*
X90807431Y-114271748D01*
X90773946Y-114210425D01*
X90778930Y-114140733D01*
X90820802Y-114084800D01*
X90826175Y-114080997D01*
X90848655Y-114065977D01*
X90994977Y-113919655D01*
X91109941Y-113747598D01*
X91189130Y-113556420D01*
X91229500Y-113353465D01*
X91229500Y-113146535D01*
X91229499Y-113146530D01*
X91668500Y-113146530D01*
X91668500Y-113353469D01*
X91708868Y-113556412D01*
X91708870Y-113556420D01*
X91753710Y-113664674D01*
X91788059Y-113747598D01*
X91819500Y-113794653D01*
X91903024Y-113919657D01*
X92049342Y-114065975D01*
X92049345Y-114065977D01*
X92221402Y-114180941D01*
X92412580Y-114260130D01*
X92594938Y-114296403D01*
X92615530Y-114300499D01*
X92615534Y-114300500D01*
X92615535Y-114300500D01*
X92822466Y-114300500D01*
X92822467Y-114300499D01*
X93025420Y-114260130D01*
X93216598Y-114180941D01*
X93388655Y-114065977D01*
X93534977Y-113919655D01*
X93649941Y-113747598D01*
X93729130Y-113556420D01*
X93769500Y-113353465D01*
X93769500Y-113146535D01*
X93729130Y-112943580D01*
X93649941Y-112752402D01*
X93534977Y-112580345D01*
X93534975Y-112580342D01*
X93388657Y-112434024D01*
X93302626Y-112376541D01*
X93216598Y-112319059D01*
X93025420Y-112239870D01*
X93025412Y-112239868D01*
X92822469Y-112199500D01*
X92822465Y-112199500D01*
X92615535Y-112199500D01*
X92615530Y-112199500D01*
X92412587Y-112239868D01*
X92412579Y-112239870D01*
X92221403Y-112319058D01*
X92049342Y-112434024D01*
X91903024Y-112580342D01*
X91788058Y-112752403D01*
X91708870Y-112943579D01*
X91708868Y-112943587D01*
X91668500Y-113146530D01*
X91229499Y-113146530D01*
X91189130Y-112943580D01*
X91109941Y-112752402D01*
X90994977Y-112580345D01*
X90994975Y-112580342D01*
X90848657Y-112434024D01*
X90762626Y-112376541D01*
X90676598Y-112319059D01*
X90485420Y-112239870D01*
X90485412Y-112239868D01*
X90282469Y-112199500D01*
X90282465Y-112199500D01*
X90075535Y-112199500D01*
X90075530Y-112199500D01*
X89872587Y-112239868D01*
X89872579Y-112239870D01*
X89681403Y-112319058D01*
X89509342Y-112434024D01*
X89509341Y-112434025D01*
X89471181Y-112472186D01*
X89409858Y-112505671D01*
X89340166Y-112500687D01*
X89284233Y-112458815D01*
X89259816Y-112393351D01*
X89259500Y-112384505D01*
X89259500Y-111784725D01*
X89279185Y-111717686D01*
X89331989Y-111671931D01*
X89336048Y-111670164D01*
X89406594Y-111640943D01*
X89406595Y-111640942D01*
X89406598Y-111640941D01*
X89578655Y-111525977D01*
X89724977Y-111379655D01*
X89839941Y-111207598D01*
X89919130Y-111016420D01*
X89959500Y-110813465D01*
X89959500Y-110606535D01*
X89959499Y-110606530D01*
X90398500Y-110606530D01*
X90398500Y-110813469D01*
X90438868Y-111016412D01*
X90438870Y-111016420D01*
X90518058Y-111207596D01*
X90633024Y-111379657D01*
X90779342Y-111525975D01*
X90779345Y-111525977D01*
X90951402Y-111640941D01*
X91142580Y-111720130D01*
X91291692Y-111749790D01*
X91345530Y-111760499D01*
X91345534Y-111760500D01*
X91345535Y-111760500D01*
X91552466Y-111760500D01*
X91552467Y-111760499D01*
X91755420Y-111720130D01*
X91946598Y-111640941D01*
X91970722Y-111624822D01*
X92938499Y-111624822D01*
X92947231Y-111668717D01*
X92947234Y-111668724D01*
X92969382Y-111701871D01*
X92980496Y-111718504D01*
X93030278Y-111751767D01*
X93030281Y-111751767D01*
X93030282Y-111751768D01*
X93074177Y-111760500D01*
X93074180Y-111760500D01*
X94903822Y-111760500D01*
X94947717Y-111751768D01*
X94947717Y-111751767D01*
X94947722Y-111751767D01*
X94997504Y-111718504D01*
X95030767Y-111668722D01*
X95039500Y-111624820D01*
X95039500Y-109795180D01*
X95039500Y-109795177D01*
X95030768Y-109751282D01*
X95030767Y-109751281D01*
X95030767Y-109751278D01*
X94997504Y-109701496D01*
X94997503Y-109701495D01*
X94947724Y-109668234D01*
X94947717Y-109668231D01*
X94903822Y-109659500D01*
X94903820Y-109659500D01*
X93074180Y-109659500D01*
X93074178Y-109659500D01*
X93030282Y-109668231D01*
X93030275Y-109668234D01*
X92980496Y-109701495D01*
X92980495Y-109701496D01*
X92947234Y-109751275D01*
X92947231Y-109751282D01*
X92938500Y-109795177D01*
X92938500Y-109795180D01*
X92938500Y-111624820D01*
X92938500Y-111624822D01*
X92938499Y-111624822D01*
X91970722Y-111624822D01*
X92118655Y-111525977D01*
X92264977Y-111379655D01*
X92379941Y-111207598D01*
X92459130Y-111016420D01*
X92499500Y-110813465D01*
X92499500Y-110606535D01*
X92459130Y-110403580D01*
X92379941Y-110212402D01*
X92264977Y-110040345D01*
X92264975Y-110040342D01*
X92118658Y-109894025D01*
X92118653Y-109894021D01*
X92115962Y-109892223D01*
X92115913Y-109892191D01*
X91946598Y-109779059D01*
X91755420Y-109699870D01*
X91755412Y-109699868D01*
X91552469Y-109659500D01*
X91552465Y-109659500D01*
X91345535Y-109659500D01*
X91345530Y-109659500D01*
X91142587Y-109699868D01*
X91142579Y-109699870D01*
X90951403Y-109779058D01*
X90779342Y-109894024D01*
X90633024Y-110040342D01*
X90518058Y-110212403D01*
X90438870Y-110403579D01*
X90438868Y-110403587D01*
X90398500Y-110606530D01*
X89959499Y-110606530D01*
X89919130Y-110403580D01*
X89839941Y-110212402D01*
X89724977Y-110040345D01*
X89724975Y-110040342D01*
X89578657Y-109894024D01*
X89430720Y-109795177D01*
X89406598Y-109779059D01*
X89215420Y-109699870D01*
X89215412Y-109699868D01*
X89012469Y-109659500D01*
X89012465Y-109659500D01*
X88805535Y-109659500D01*
X88805530Y-109659500D01*
X88602587Y-109699868D01*
X88602579Y-109699870D01*
X88411403Y-109779058D01*
X88239342Y-109894024D01*
X88093024Y-110040342D01*
X87978058Y-110212403D01*
X87898870Y-110403579D01*
X87898868Y-110403587D01*
X87858500Y-110606530D01*
X87858500Y-110813469D01*
X87898868Y-111016412D01*
X87898870Y-111016420D01*
X87978058Y-111207596D01*
X88093024Y-111379657D01*
X88239342Y-111525975D01*
X88411405Y-111640943D01*
X88481952Y-111670164D01*
X88497516Y-111682706D01*
X88515703Y-111691012D01*
X88524167Y-111704182D01*
X88536356Y-111714005D01*
X88542668Y-111732972D01*
X88553477Y-111749790D01*
X88557439Y-111777350D01*
X88558421Y-111780299D01*
X88558500Y-111784725D01*
X88558500Y-111945016D01*
X88538815Y-112012055D01*
X88486011Y-112057810D01*
X88416853Y-112067754D01*
X88377706Y-112053636D01*
X88377101Y-112054825D01*
X88176410Y-111952567D01*
X87966835Y-111884473D01*
X87749181Y-111850000D01*
X87528819Y-111850000D01*
X87311164Y-111884473D01*
X87101589Y-111952567D01*
X86905233Y-112052616D01*
X86841485Y-112098931D01*
X86841485Y-112098932D01*
X87554497Y-112811944D01*
X87467236Y-112835326D01*
X87365764Y-112893911D01*
X87282911Y-112976764D01*
X87224326Y-113078236D01*
X87200944Y-113165497D01*
X86487932Y-112452485D01*
X86487931Y-112452485D01*
X86441616Y-112516233D01*
X86341567Y-112712590D01*
X86301194Y-112836845D01*
X86261756Y-112894521D01*
X86197398Y-112921719D01*
X86128551Y-112909804D01*
X86077076Y-112862560D01*
X86068702Y-112845979D01*
X86029943Y-112752405D01*
X85914975Y-112580342D01*
X85768657Y-112434024D01*
X85682626Y-112376541D01*
X85596598Y-112319059D01*
X85405420Y-112239870D01*
X85405412Y-112239868D01*
X85202469Y-112199500D01*
X85202465Y-112199500D01*
X84995535Y-112199500D01*
X84995530Y-112199500D01*
X84792587Y-112239868D01*
X84792579Y-112239870D01*
X84601403Y-112319058D01*
X84429342Y-112434024D01*
X84283024Y-112580342D01*
X84168058Y-112752403D01*
X84088870Y-112943579D01*
X84088868Y-112943587D01*
X84048500Y-113146530D01*
X84048500Y-113353469D01*
X84088868Y-113556412D01*
X84088870Y-113556420D01*
X84133710Y-113664674D01*
X84168059Y-113747598D01*
X84199500Y-113794653D01*
X84283024Y-113919657D01*
X84429342Y-114065975D01*
X84429345Y-114065977D01*
X84601402Y-114180941D01*
X84792580Y-114260130D01*
X84974938Y-114296403D01*
X84995530Y-114300499D01*
X84995534Y-114300500D01*
X84995535Y-114300500D01*
X85202466Y-114300500D01*
X85202467Y-114300499D01*
X85405420Y-114260130D01*
X85596598Y-114180941D01*
X85768655Y-114065977D01*
X85914977Y-113919655D01*
X86029941Y-113747598D01*
X86068703Y-113654018D01*
X86112542Y-113599616D01*
X86178836Y-113577551D01*
X86246536Y-113594830D01*
X86294147Y-113645967D01*
X86301194Y-113663154D01*
X86341567Y-113787410D01*
X86441611Y-113983756D01*
X86487932Y-114047513D01*
X87200944Y-113334501D01*
X87224326Y-113421764D01*
X87282911Y-113523236D01*
X87365764Y-113606089D01*
X87467236Y-113664674D01*
X87554496Y-113688055D01*
X86841485Y-114401065D01*
X86841485Y-114401066D01*
X86905243Y-114447388D01*
X87101589Y-114547432D01*
X87311164Y-114615526D01*
X87528819Y-114650000D01*
X87749181Y-114650000D01*
X87966835Y-114615526D01*
X88176410Y-114547432D01*
X88372760Y-114447386D01*
X88435810Y-114401578D01*
X88501616Y-114378098D01*
X88569670Y-114393923D01*
X88616083Y-114439896D01*
X88648530Y-114496096D01*
X88932904Y-114780470D01*
X88954542Y-114792962D01*
X88980222Y-114812668D01*
X89791373Y-115623819D01*
X89824858Y-115685142D01*
X89819874Y-115754834D01*
X89778002Y-115810767D01*
X89712538Y-115835184D01*
X89703692Y-115835500D01*
X72976544Y-115835500D01*
X72909505Y-115815815D01*
X72888863Y-115799181D01*
X72277819Y-115188137D01*
X72244334Y-115126814D01*
X72241500Y-115100456D01*
X72241500Y-114324725D01*
X72261185Y-114257686D01*
X72313989Y-114211931D01*
X72318048Y-114210164D01*
X72388594Y-114180943D01*
X72388595Y-114180942D01*
X72388598Y-114180941D01*
X72560655Y-114065977D01*
X72706977Y-113919655D01*
X72821941Y-113747598D01*
X72901130Y-113556420D01*
X72941500Y-113353465D01*
X72941500Y-113146535D01*
X72941499Y-113146530D01*
X73380500Y-113146530D01*
X73380500Y-113353469D01*
X73420868Y-113556412D01*
X73420870Y-113556420D01*
X73465710Y-113664674D01*
X73500059Y-113747598D01*
X73531500Y-113794653D01*
X73615024Y-113919657D01*
X73761342Y-114065975D01*
X73761345Y-114065977D01*
X73933402Y-114180941D01*
X74124580Y-114260130D01*
X74306938Y-114296403D01*
X74327530Y-114300499D01*
X74327534Y-114300500D01*
X74327535Y-114300500D01*
X74534466Y-114300500D01*
X74534467Y-114300499D01*
X74737420Y-114260130D01*
X74928598Y-114180941D01*
X75100655Y-114065977D01*
X75246977Y-113919655D01*
X75361941Y-113747598D01*
X75441130Y-113556420D01*
X75481500Y-113353465D01*
X75481500Y-113146535D01*
X75441130Y-112943580D01*
X75361941Y-112752402D01*
X75246977Y-112580345D01*
X75246975Y-112580342D01*
X75100657Y-112434024D01*
X75014626Y-112376541D01*
X74928598Y-112319059D01*
X74737420Y-112239870D01*
X74737412Y-112239868D01*
X74534469Y-112199500D01*
X74534465Y-112199500D01*
X74327535Y-112199500D01*
X74327530Y-112199500D01*
X74124587Y-112239868D01*
X74124579Y-112239870D01*
X73933403Y-112319058D01*
X73761342Y-112434024D01*
X73615024Y-112580342D01*
X73500058Y-112752403D01*
X73420870Y-112943579D01*
X73420868Y-112943587D01*
X73380500Y-113146530D01*
X72941499Y-113146530D01*
X72901130Y-112943580D01*
X72821941Y-112752402D01*
X72706977Y-112580345D01*
X72706975Y-112580342D01*
X72560657Y-112434024D01*
X72474626Y-112376541D01*
X72388598Y-112319059D01*
X72197420Y-112239870D01*
X72197412Y-112239868D01*
X71994469Y-112199500D01*
X71994465Y-112199500D01*
X71787535Y-112199500D01*
X71787530Y-112199500D01*
X71584587Y-112239868D01*
X71584579Y-112239870D01*
X71393403Y-112319058D01*
X71221342Y-112434024D01*
X71221341Y-112434025D01*
X71183181Y-112472186D01*
X71121858Y-112505671D01*
X71052166Y-112500687D01*
X70996233Y-112458815D01*
X70971816Y-112393351D01*
X70971500Y-112384505D01*
X70971500Y-111784725D01*
X70991185Y-111717686D01*
X71043989Y-111671931D01*
X71048048Y-111670164D01*
X71118594Y-111640943D01*
X71118595Y-111640942D01*
X71118598Y-111640941D01*
X71290655Y-111525977D01*
X71436977Y-111379655D01*
X71551941Y-111207598D01*
X71631130Y-111016420D01*
X71671500Y-110813465D01*
X71671500Y-110606535D01*
X71671499Y-110606530D01*
X72110500Y-110606530D01*
X72110500Y-110813469D01*
X72150868Y-111016412D01*
X72150870Y-111016420D01*
X72230058Y-111207596D01*
X72345024Y-111379657D01*
X72491342Y-111525975D01*
X72491345Y-111525977D01*
X72663402Y-111640941D01*
X72854580Y-111720130D01*
X73003692Y-111749790D01*
X73057530Y-111760499D01*
X73057534Y-111760500D01*
X73057535Y-111760500D01*
X73264466Y-111760500D01*
X73264467Y-111760499D01*
X73467420Y-111720130D01*
X73658598Y-111640941D01*
X73682722Y-111624822D01*
X74650499Y-111624822D01*
X74659231Y-111668717D01*
X74659234Y-111668724D01*
X74681382Y-111701871D01*
X74692496Y-111718504D01*
X74742278Y-111751767D01*
X74742281Y-111751767D01*
X74742282Y-111751768D01*
X74786177Y-111760500D01*
X74786180Y-111760500D01*
X76615822Y-111760500D01*
X76659717Y-111751768D01*
X76659717Y-111751767D01*
X76659722Y-111751767D01*
X76709504Y-111718504D01*
X76742767Y-111668722D01*
X76751500Y-111624820D01*
X76751500Y-110606530D01*
X85318500Y-110606530D01*
X85318500Y-110813469D01*
X85358868Y-111016412D01*
X85358870Y-111016420D01*
X85438058Y-111207596D01*
X85553024Y-111379657D01*
X85699342Y-111525975D01*
X85699345Y-111525977D01*
X85871402Y-111640941D01*
X86062580Y-111720130D01*
X86211692Y-111749790D01*
X86265530Y-111760499D01*
X86265534Y-111760500D01*
X86265535Y-111760500D01*
X86472466Y-111760500D01*
X86472467Y-111760499D01*
X86675420Y-111720130D01*
X86866598Y-111640941D01*
X87038655Y-111525977D01*
X87184977Y-111379655D01*
X87299941Y-111207598D01*
X87379130Y-111016420D01*
X87419500Y-110813465D01*
X87419500Y-110606535D01*
X87379130Y-110403580D01*
X87299941Y-110212402D01*
X87184977Y-110040345D01*
X87184975Y-110040342D01*
X87038657Y-109894024D01*
X86890720Y-109795177D01*
X86866598Y-109779059D01*
X86675420Y-109699870D01*
X86675412Y-109699868D01*
X86472469Y-109659500D01*
X86472465Y-109659500D01*
X86265535Y-109659500D01*
X86265530Y-109659500D01*
X86062587Y-109699868D01*
X86062579Y-109699870D01*
X85871403Y-109779058D01*
X85699342Y-109894024D01*
X85553024Y-110040342D01*
X85438058Y-110212403D01*
X85358870Y-110403579D01*
X85358868Y-110403587D01*
X85318500Y-110606530D01*
X76751500Y-110606530D01*
X76751500Y-109795180D01*
X76751500Y-109795177D01*
X76742768Y-109751282D01*
X76742767Y-109751281D01*
X76742767Y-109751278D01*
X76709504Y-109701496D01*
X76709503Y-109701495D01*
X76659724Y-109668234D01*
X76659717Y-109668231D01*
X76615822Y-109659500D01*
X76615820Y-109659500D01*
X74786180Y-109659500D01*
X74786178Y-109659500D01*
X74742282Y-109668231D01*
X74742275Y-109668234D01*
X74692496Y-109701495D01*
X74692495Y-109701496D01*
X74659234Y-109751275D01*
X74659231Y-109751282D01*
X74650500Y-109795177D01*
X74650500Y-109795180D01*
X74650500Y-111624820D01*
X74650500Y-111624822D01*
X74650499Y-111624822D01*
X73682722Y-111624822D01*
X73830655Y-111525977D01*
X73976977Y-111379655D01*
X74091941Y-111207598D01*
X74171130Y-111016420D01*
X74211500Y-110813465D01*
X74211500Y-110606535D01*
X74171130Y-110403580D01*
X74091941Y-110212402D01*
X73976977Y-110040345D01*
X73976975Y-110040342D01*
X73830658Y-109894025D01*
X73830653Y-109894021D01*
X73827962Y-109892223D01*
X73827913Y-109892191D01*
X73658598Y-109779059D01*
X73467420Y-109699870D01*
X73467412Y-109699868D01*
X73264469Y-109659500D01*
X73264465Y-109659500D01*
X73057535Y-109659500D01*
X73057530Y-109659500D01*
X72854587Y-109699868D01*
X72854579Y-109699870D01*
X72663403Y-109779058D01*
X72491342Y-109894024D01*
X72345024Y-110040342D01*
X72230058Y-110212403D01*
X72150870Y-110403579D01*
X72150868Y-110403587D01*
X72110500Y-110606530D01*
X71671499Y-110606530D01*
X71631130Y-110403580D01*
X71551941Y-110212402D01*
X71436977Y-110040345D01*
X71436975Y-110040342D01*
X71290657Y-109894024D01*
X71142720Y-109795177D01*
X71118598Y-109779059D01*
X70927420Y-109699870D01*
X70927412Y-109699868D01*
X70724469Y-109659500D01*
X70724465Y-109659500D01*
X70517535Y-109659500D01*
X70517530Y-109659500D01*
X70314587Y-109699868D01*
X70314579Y-109699870D01*
X70123403Y-109779058D01*
X69951342Y-109894024D01*
X69805024Y-110040342D01*
X69690058Y-110212403D01*
X69610870Y-110403579D01*
X69610868Y-110403587D01*
X69570500Y-110606530D01*
X69570500Y-110813469D01*
X69610868Y-111016412D01*
X69610870Y-111016420D01*
X69690058Y-111207596D01*
X69805024Y-111379657D01*
X69951342Y-111525975D01*
X70123405Y-111640943D01*
X70193952Y-111670164D01*
X70209516Y-111682706D01*
X70227703Y-111691012D01*
X70236167Y-111704182D01*
X70248356Y-111714005D01*
X70254668Y-111732972D01*
X70265477Y-111749790D01*
X70269439Y-111777350D01*
X70270421Y-111780299D01*
X70270500Y-111784725D01*
X70270500Y-111945016D01*
X70250815Y-112012055D01*
X70198011Y-112057810D01*
X70128853Y-112067754D01*
X70089706Y-112053636D01*
X70089101Y-112054825D01*
X69888410Y-111952567D01*
X69678835Y-111884473D01*
X69461181Y-111850000D01*
X69240819Y-111850000D01*
X69023164Y-111884473D01*
X68813589Y-111952567D01*
X68617233Y-112052616D01*
X68553485Y-112098931D01*
X68553485Y-112098932D01*
X69266497Y-112811944D01*
X69179236Y-112835326D01*
X69077764Y-112893911D01*
X68994911Y-112976764D01*
X68936326Y-113078236D01*
X68912944Y-113165497D01*
X68199932Y-112452485D01*
X68199931Y-112452485D01*
X68153616Y-112516233D01*
X68053567Y-112712590D01*
X68013194Y-112836845D01*
X67973756Y-112894521D01*
X67909398Y-112921719D01*
X67840551Y-112909804D01*
X67789076Y-112862560D01*
X67780702Y-112845979D01*
X67741943Y-112752405D01*
X67626975Y-112580342D01*
X67480657Y-112434024D01*
X67394626Y-112376541D01*
X67308598Y-112319059D01*
X67117420Y-112239870D01*
X67117412Y-112239868D01*
X66914469Y-112199500D01*
X66914465Y-112199500D01*
X66707535Y-112199500D01*
X66707530Y-112199500D01*
X66504587Y-112239868D01*
X66504579Y-112239870D01*
X66313403Y-112319058D01*
X66141342Y-112434024D01*
X65995024Y-112580342D01*
X65880058Y-112752403D01*
X65800870Y-112943579D01*
X65800868Y-112943587D01*
X65760500Y-113146530D01*
X55075500Y-113146530D01*
X55075500Y-110606530D01*
X67030500Y-110606530D01*
X67030500Y-110813469D01*
X67070868Y-111016412D01*
X67070870Y-111016420D01*
X67150058Y-111207596D01*
X67265024Y-111379657D01*
X67411342Y-111525975D01*
X67411345Y-111525977D01*
X67583402Y-111640941D01*
X67774580Y-111720130D01*
X67923692Y-111749790D01*
X67977530Y-111760499D01*
X67977534Y-111760500D01*
X67977535Y-111760500D01*
X68184466Y-111760500D01*
X68184467Y-111760499D01*
X68387420Y-111720130D01*
X68578598Y-111640941D01*
X68750655Y-111525977D01*
X68896977Y-111379655D01*
X69011941Y-111207598D01*
X69091130Y-111016420D01*
X69131500Y-110813465D01*
X69131500Y-110606535D01*
X69091130Y-110403580D01*
X69011941Y-110212402D01*
X68896977Y-110040345D01*
X68896975Y-110040342D01*
X68750657Y-109894024D01*
X68602720Y-109795177D01*
X68578598Y-109779059D01*
X68387420Y-109699870D01*
X68387412Y-109699868D01*
X68184469Y-109659500D01*
X68184465Y-109659500D01*
X67977535Y-109659500D01*
X67977530Y-109659500D01*
X67774587Y-109699868D01*
X67774579Y-109699870D01*
X67583403Y-109779058D01*
X67411342Y-109894024D01*
X67265024Y-110040342D01*
X67150058Y-110212403D01*
X67070870Y-110403579D01*
X67070868Y-110403587D01*
X67030500Y-110606530D01*
X55075500Y-110606530D01*
X55075500Y-107278905D01*
X61511000Y-107278905D01*
X61511000Y-107541094D01*
X61545220Y-107801009D01*
X61545222Y-107801020D01*
X61613075Y-108054255D01*
X61713404Y-108296471D01*
X61713409Y-108296482D01*
X61844488Y-108523516D01*
X61844494Y-108523524D01*
X61931080Y-108636365D01*
X62795152Y-107772292D01*
X62802049Y-107788942D01*
X62889599Y-107919970D01*
X63001030Y-108031401D01*
X63132058Y-108118951D01*
X63148705Y-108125846D01*
X62284633Y-108989917D01*
X62284633Y-108989918D01*
X62397475Y-109076505D01*
X62397483Y-109076511D01*
X62624517Y-109207590D01*
X62624528Y-109207595D01*
X62866744Y-109307924D01*
X63119979Y-109375777D01*
X63119990Y-109375779D01*
X63379905Y-109409999D01*
X63379920Y-109410000D01*
X63642080Y-109410000D01*
X63642094Y-109409999D01*
X63902009Y-109375779D01*
X63902020Y-109375777D01*
X64155255Y-109307924D01*
X64397471Y-109207595D01*
X64397482Y-109207590D01*
X64624516Y-109076511D01*
X64624534Y-109076499D01*
X64737365Y-108989919D01*
X64737365Y-108989917D01*
X63873294Y-108125846D01*
X63889942Y-108118951D01*
X64020970Y-108031401D01*
X64132401Y-107919970D01*
X64219951Y-107788942D01*
X64226846Y-107772293D01*
X65090917Y-108636365D01*
X65090919Y-108636365D01*
X65177499Y-108523534D01*
X65177511Y-108523516D01*
X65308590Y-108296482D01*
X65308595Y-108296471D01*
X65408924Y-108054255D01*
X65476777Y-107801020D01*
X65476779Y-107801009D01*
X65510999Y-107541094D01*
X65511000Y-107541080D01*
X65511000Y-107278919D01*
X65510999Y-107278905D01*
X65476779Y-107018990D01*
X65476777Y-107018979D01*
X65408924Y-106765744D01*
X65308595Y-106523528D01*
X65308590Y-106523517D01*
X65177503Y-106296471D01*
X65062493Y-106146586D01*
X65037299Y-106081417D01*
X65051337Y-106012972D01*
X65100151Y-105962983D01*
X65168243Y-105947319D01*
X65180267Y-105948627D01*
X65236800Y-105957581D01*
X65413070Y-105985500D01*
X65413071Y-105985500D01*
X65668929Y-105985500D01*
X65668930Y-105985500D01*
X65921639Y-105945474D01*
X66164975Y-105866410D01*
X66392947Y-105750252D01*
X66599942Y-105599862D01*
X66780862Y-105418942D01*
X66931252Y-105211947D01*
X67047410Y-104983975D01*
X67126474Y-104740639D01*
X67166500Y-104487930D01*
X67166500Y-104232070D01*
X75345500Y-104232070D01*
X75345500Y-104487929D01*
X75385526Y-104740640D01*
X75464588Y-104983972D01*
X75464589Y-104983975D01*
X75580750Y-105211950D01*
X75731132Y-105418935D01*
X75731136Y-105418940D01*
X75912059Y-105599863D01*
X75912064Y-105599867D01*
X76018568Y-105677246D01*
X76119053Y-105750252D01*
X76268080Y-105826185D01*
X76347024Y-105866410D01*
X76347027Y-105866411D01*
X76468693Y-105905942D01*
X76590361Y-105945474D01*
X76843070Y-105985500D01*
X76843071Y-105985500D01*
X77098929Y-105985500D01*
X77098930Y-105985500D01*
X77331732Y-105948627D01*
X77401025Y-105957581D01*
X77454477Y-106002578D01*
X77475117Y-106069329D01*
X77456392Y-106136643D01*
X77449506Y-106146586D01*
X77334496Y-106296471D01*
X77203409Y-106523517D01*
X77203404Y-106523528D01*
X77103075Y-106765744D01*
X77035222Y-107018979D01*
X77035220Y-107018990D01*
X77001000Y-107278905D01*
X77001000Y-107541094D01*
X77035220Y-107801009D01*
X77035222Y-107801020D01*
X77103075Y-108054255D01*
X77203404Y-108296471D01*
X77203409Y-108296482D01*
X77334488Y-108523516D01*
X77334494Y-108523524D01*
X77421080Y-108636365D01*
X78285152Y-107772292D01*
X78292049Y-107788942D01*
X78379599Y-107919970D01*
X78491030Y-108031401D01*
X78622058Y-108118951D01*
X78638705Y-108125846D01*
X77774633Y-108989917D01*
X77774633Y-108989918D01*
X77887475Y-109076505D01*
X77887483Y-109076511D01*
X78114517Y-109207590D01*
X78114528Y-109207595D01*
X78356744Y-109307924D01*
X78609979Y-109375777D01*
X78609990Y-109375779D01*
X78869905Y-109409999D01*
X78869920Y-109410000D01*
X79132080Y-109410000D01*
X79132094Y-109409999D01*
X79392009Y-109375779D01*
X79392020Y-109375777D01*
X79645255Y-109307924D01*
X79887471Y-109207595D01*
X79887482Y-109207590D01*
X80114516Y-109076511D01*
X80114534Y-109076499D01*
X80227365Y-108989919D01*
X80227365Y-108989917D01*
X79363294Y-108125846D01*
X79379942Y-108118951D01*
X79510970Y-108031401D01*
X79622401Y-107919970D01*
X79709951Y-107788942D01*
X79716846Y-107772293D01*
X80399999Y-108455446D01*
X81083152Y-107772292D01*
X81090049Y-107788942D01*
X81177599Y-107919970D01*
X81289030Y-108031401D01*
X81420058Y-108118951D01*
X81436705Y-108125846D01*
X80572633Y-108989917D01*
X80572633Y-108989918D01*
X80685475Y-109076505D01*
X80685483Y-109076511D01*
X80912517Y-109207590D01*
X80912528Y-109207595D01*
X81154744Y-109307924D01*
X81407979Y-109375777D01*
X81407990Y-109375779D01*
X81667905Y-109409999D01*
X81667920Y-109410000D01*
X81930080Y-109410000D01*
X81930094Y-109409999D01*
X82190009Y-109375779D01*
X82190020Y-109375777D01*
X82443255Y-109307924D01*
X82685471Y-109207595D01*
X82685482Y-109207590D01*
X82912516Y-109076511D01*
X82912534Y-109076499D01*
X83025365Y-108989919D01*
X83025365Y-108989917D01*
X82161294Y-108125846D01*
X82177942Y-108118951D01*
X82308970Y-108031401D01*
X82420401Y-107919970D01*
X82507951Y-107788942D01*
X82514846Y-107772293D01*
X83378917Y-108636365D01*
X83378919Y-108636365D01*
X83465499Y-108523534D01*
X83465511Y-108523516D01*
X83596590Y-108296482D01*
X83596595Y-108296471D01*
X83696924Y-108054255D01*
X83764777Y-107801020D01*
X83764779Y-107801009D01*
X83798999Y-107541094D01*
X83799000Y-107541080D01*
X83799000Y-107278919D01*
X83798999Y-107278905D01*
X83764779Y-107018990D01*
X83764777Y-107018979D01*
X83696924Y-106765744D01*
X83596595Y-106523528D01*
X83596590Y-106523517D01*
X83465503Y-106296471D01*
X83350493Y-106146586D01*
X83325299Y-106081417D01*
X83339337Y-106012972D01*
X83388151Y-105962983D01*
X83456243Y-105947319D01*
X83468267Y-105948627D01*
X83524800Y-105957581D01*
X83701070Y-105985500D01*
X83701071Y-105985500D01*
X83956929Y-105985500D01*
X83956930Y-105985500D01*
X84209639Y-105945474D01*
X84452975Y-105866410D01*
X84680947Y-105750252D01*
X84887942Y-105599862D01*
X85068862Y-105418942D01*
X85219252Y-105211947D01*
X85335410Y-104983975D01*
X85414474Y-104740639D01*
X85454500Y-104487930D01*
X85454500Y-104232070D01*
X93633500Y-104232070D01*
X93633500Y-104487929D01*
X93673526Y-104740640D01*
X93752588Y-104983972D01*
X93752589Y-104983975D01*
X93868750Y-105211950D01*
X94019132Y-105418935D01*
X94019136Y-105418940D01*
X94200059Y-105599863D01*
X94200064Y-105599867D01*
X94306568Y-105677246D01*
X94407053Y-105750252D01*
X94556080Y-105826185D01*
X94635024Y-105866410D01*
X94635027Y-105866411D01*
X94756693Y-105905942D01*
X94878361Y-105945474D01*
X95131070Y-105985500D01*
X95131071Y-105985500D01*
X95386929Y-105985500D01*
X95386930Y-105985500D01*
X95619732Y-105948627D01*
X95689025Y-105957581D01*
X95742477Y-106002578D01*
X95763117Y-106069329D01*
X95744392Y-106136643D01*
X95737506Y-106146586D01*
X95622496Y-106296471D01*
X95491409Y-106523517D01*
X95491404Y-106523528D01*
X95391075Y-106765744D01*
X95323222Y-107018979D01*
X95323220Y-107018990D01*
X95289000Y-107278905D01*
X95289000Y-107541094D01*
X95323220Y-107801009D01*
X95323222Y-107801020D01*
X95391075Y-108054255D01*
X95491404Y-108296471D01*
X95491409Y-108296482D01*
X95622488Y-108523516D01*
X95622494Y-108523524D01*
X95709080Y-108636365D01*
X96573152Y-107772292D01*
X96580049Y-107788942D01*
X96667599Y-107919970D01*
X96779030Y-108031401D01*
X96910058Y-108118951D01*
X96926705Y-108125846D01*
X96062633Y-108989917D01*
X96062633Y-108989918D01*
X96175475Y-109076505D01*
X96175483Y-109076511D01*
X96402517Y-109207590D01*
X96402528Y-109207595D01*
X96644744Y-109307924D01*
X96897979Y-109375777D01*
X96897990Y-109375779D01*
X97157905Y-109409999D01*
X97157920Y-109410000D01*
X97420080Y-109410000D01*
X97420094Y-109409999D01*
X97680009Y-109375779D01*
X97680020Y-109375777D01*
X97933255Y-109307924D01*
X98175471Y-109207595D01*
X98175482Y-109207590D01*
X98402516Y-109076511D01*
X98402534Y-109076499D01*
X98515365Y-108989919D01*
X98515365Y-108989917D01*
X97651294Y-108125846D01*
X97667942Y-108118951D01*
X97798970Y-108031401D01*
X97910401Y-107919970D01*
X97997951Y-107788942D01*
X98004846Y-107772294D01*
X98868917Y-108636365D01*
X98868919Y-108636365D01*
X98955499Y-108523534D01*
X98955511Y-108523516D01*
X99086590Y-108296482D01*
X99086595Y-108296471D01*
X99186924Y-108054255D01*
X99254777Y-107801020D01*
X99254779Y-107801009D01*
X99288999Y-107541094D01*
X99289000Y-107541080D01*
X99289000Y-107278919D01*
X99288999Y-107278905D01*
X99254779Y-107018990D01*
X99254777Y-107018979D01*
X99186924Y-106765744D01*
X99086595Y-106523528D01*
X99086590Y-106523517D01*
X98955511Y-106296483D01*
X98955505Y-106296475D01*
X98868918Y-106183633D01*
X98868917Y-106183633D01*
X98004846Y-107047704D01*
X97997951Y-107031058D01*
X97910401Y-106900030D01*
X97798970Y-106788599D01*
X97667942Y-106701049D01*
X97651292Y-106694152D01*
X98515365Y-105830080D01*
X98402524Y-105743494D01*
X98402516Y-105743488D01*
X98175482Y-105612409D01*
X98175471Y-105612404D01*
X97933255Y-105512075D01*
X97680020Y-105444222D01*
X97680009Y-105444220D01*
X97420094Y-105410000D01*
X97157905Y-105410000D01*
X96897990Y-105444220D01*
X96897979Y-105444222D01*
X96717806Y-105492498D01*
X96647956Y-105490835D01*
X96590093Y-105451672D01*
X96562590Y-105387443D01*
X96574177Y-105318541D01*
X96585388Y-105299848D01*
X96649252Y-105211947D01*
X96765410Y-104983975D01*
X96844474Y-104740639D01*
X96884500Y-104487930D01*
X96884500Y-104253713D01*
X101909500Y-104253713D01*
X101909500Y-104466286D01*
X101942753Y-104676239D01*
X102008444Y-104878414D01*
X102104951Y-105067820D01*
X102229890Y-105239786D01*
X102380213Y-105390109D01*
X102552179Y-105515048D01*
X102552181Y-105515049D01*
X102552184Y-105515051D01*
X102741588Y-105611557D01*
X102943757Y-105677246D01*
X103153713Y-105710500D01*
X103153714Y-105710500D01*
X103366286Y-105710500D01*
X103366287Y-105710500D01*
X103576243Y-105677246D01*
X103778412Y-105611557D01*
X103967816Y-105515051D01*
X104012766Y-105482393D01*
X104139786Y-105390109D01*
X104139788Y-105390106D01*
X104139792Y-105390104D01*
X104290104Y-105239792D01*
X104290106Y-105239788D01*
X104290109Y-105239786D01*
X104415048Y-105067820D01*
X104415047Y-105067820D01*
X104415051Y-105067816D01*
X104511557Y-104878412D01*
X104577246Y-104676243D01*
X104610500Y-104466287D01*
X104610500Y-104253713D01*
X104577246Y-104043757D01*
X104511557Y-103841588D01*
X104415051Y-103652184D01*
X104415049Y-103652181D01*
X104415048Y-103652179D01*
X104290109Y-103480213D01*
X104139786Y-103329890D01*
X103967820Y-103204951D01*
X103778414Y-103108444D01*
X103778413Y-103108443D01*
X103778412Y-103108443D01*
X103576243Y-103042754D01*
X103576241Y-103042753D01*
X103576240Y-103042753D01*
X103414957Y-103017208D01*
X103366287Y-103009500D01*
X103153713Y-103009500D01*
X103105042Y-103017208D01*
X102943760Y-103042753D01*
X102741585Y-103108444D01*
X102552179Y-103204951D01*
X102380213Y-103329890D01*
X102229890Y-103480213D01*
X102104951Y-103652179D01*
X102008444Y-103841585D01*
X101942753Y-104043760D01*
X101909500Y-104253713D01*
X96884500Y-104253713D01*
X96884500Y-104232070D01*
X96844474Y-103979361D01*
X96765410Y-103736025D01*
X96765410Y-103736024D01*
X96680205Y-103568802D01*
X96649252Y-103508053D01*
X96629022Y-103480208D01*
X96498867Y-103301064D01*
X96498863Y-103301059D01*
X96317940Y-103120136D01*
X96317935Y-103120132D01*
X96110950Y-102969750D01*
X96110949Y-102969749D01*
X96110947Y-102969748D01*
X96037910Y-102932533D01*
X95882975Y-102853589D01*
X95882972Y-102853588D01*
X95639640Y-102774526D01*
X95513284Y-102754513D01*
X95386930Y-102734500D01*
X95131070Y-102734500D01*
X95046833Y-102747842D01*
X94878359Y-102774526D01*
X94635027Y-102853588D01*
X94635024Y-102853589D01*
X94407049Y-102969750D01*
X94200064Y-103120132D01*
X94200059Y-103120136D01*
X94019136Y-103301059D01*
X94019132Y-103301064D01*
X93868750Y-103508049D01*
X93752589Y-103736024D01*
X93752588Y-103736027D01*
X93673526Y-103979359D01*
X93633500Y-104232070D01*
X85454500Y-104232070D01*
X85414474Y-103979361D01*
X85335410Y-103736025D01*
X85335410Y-103736024D01*
X85250205Y-103568802D01*
X85219252Y-103508053D01*
X85199022Y-103480208D01*
X85068867Y-103301064D01*
X85068863Y-103301059D01*
X84887940Y-103120136D01*
X84887935Y-103120132D01*
X84680950Y-102969750D01*
X84680949Y-102969749D01*
X84680947Y-102969748D01*
X84607910Y-102932533D01*
X84452975Y-102853589D01*
X84452972Y-102853588D01*
X84209640Y-102774526D01*
X84083284Y-102754513D01*
X83956930Y-102734500D01*
X83701070Y-102734500D01*
X83616833Y-102747842D01*
X83448359Y-102774526D01*
X83205027Y-102853588D01*
X83205024Y-102853589D01*
X82977049Y-102969750D01*
X82770064Y-103120132D01*
X82770059Y-103120136D01*
X82589136Y-103301059D01*
X82589132Y-103301064D01*
X82438750Y-103508049D01*
X82322589Y-103736024D01*
X82322588Y-103736027D01*
X82243526Y-103979359D01*
X82203500Y-104232070D01*
X82203500Y-104487929D01*
X82243526Y-104740640D01*
X82322588Y-104983972D01*
X82322589Y-104983975D01*
X82438750Y-105211950D01*
X82502604Y-105299838D01*
X82526084Y-105365644D01*
X82510259Y-105433698D01*
X82460153Y-105482393D01*
X82391675Y-105496268D01*
X82370193Y-105492498D01*
X82190020Y-105444222D01*
X82190009Y-105444220D01*
X81930094Y-105410000D01*
X81667905Y-105410000D01*
X81407990Y-105444220D01*
X81407979Y-105444222D01*
X81154744Y-105512075D01*
X80912528Y-105612404D01*
X80912517Y-105612409D01*
X80685471Y-105743496D01*
X80572633Y-105830079D01*
X80572633Y-105830080D01*
X81436706Y-106694152D01*
X81420058Y-106701049D01*
X81289030Y-106788599D01*
X81177599Y-106900030D01*
X81090049Y-107031058D01*
X81083153Y-107047705D01*
X80400001Y-106364553D01*
X80400000Y-106364553D01*
X79716846Y-107047706D01*
X79709951Y-107031058D01*
X79622401Y-106900030D01*
X79510970Y-106788599D01*
X79379942Y-106701049D01*
X79363292Y-106694152D01*
X80227365Y-105830080D01*
X80114524Y-105743494D01*
X80114516Y-105743488D01*
X79887482Y-105612409D01*
X79887471Y-105612404D01*
X79645255Y-105512075D01*
X79392020Y-105444222D01*
X79392009Y-105444220D01*
X79132094Y-105410000D01*
X78869905Y-105410000D01*
X78609990Y-105444220D01*
X78609979Y-105444222D01*
X78429806Y-105492498D01*
X78359956Y-105490835D01*
X78302093Y-105451672D01*
X78274590Y-105387443D01*
X78286177Y-105318541D01*
X78297388Y-105299848D01*
X78361252Y-105211947D01*
X78477410Y-104983975D01*
X78556474Y-104740639D01*
X78596500Y-104487930D01*
X78596500Y-104232070D01*
X78556474Y-103979361D01*
X78477410Y-103736025D01*
X78477410Y-103736024D01*
X78392205Y-103568802D01*
X78361252Y-103508053D01*
X78341022Y-103480208D01*
X78210867Y-103301064D01*
X78210863Y-103301059D01*
X78029940Y-103120136D01*
X78029935Y-103120132D01*
X77822950Y-102969750D01*
X77822949Y-102969749D01*
X77822947Y-102969748D01*
X77749910Y-102932533D01*
X77594975Y-102853589D01*
X77594972Y-102853588D01*
X77351640Y-102774526D01*
X77225284Y-102754513D01*
X77098930Y-102734500D01*
X76843070Y-102734500D01*
X76758833Y-102747842D01*
X76590359Y-102774526D01*
X76347027Y-102853588D01*
X76347024Y-102853589D01*
X76119049Y-102969750D01*
X75912064Y-103120132D01*
X75912059Y-103120136D01*
X75731136Y-103301059D01*
X75731132Y-103301064D01*
X75580750Y-103508049D01*
X75464589Y-103736024D01*
X75464588Y-103736027D01*
X75385526Y-103979359D01*
X75345500Y-104232070D01*
X67166500Y-104232070D01*
X67126474Y-103979361D01*
X67047410Y-103736025D01*
X67047410Y-103736024D01*
X66962205Y-103568802D01*
X66931252Y-103508053D01*
X66911022Y-103480208D01*
X66780867Y-103301064D01*
X66780863Y-103301059D01*
X66599940Y-103120136D01*
X66599935Y-103120132D01*
X66392950Y-102969750D01*
X66392949Y-102969749D01*
X66392947Y-102969748D01*
X66319910Y-102932533D01*
X66164975Y-102853589D01*
X66164972Y-102853588D01*
X65921640Y-102774526D01*
X65795284Y-102754513D01*
X65668930Y-102734500D01*
X65413070Y-102734500D01*
X65328833Y-102747842D01*
X65160359Y-102774526D01*
X64917027Y-102853588D01*
X64917024Y-102853589D01*
X64689049Y-102969750D01*
X64482064Y-103120132D01*
X64482059Y-103120136D01*
X64301136Y-103301059D01*
X64301132Y-103301064D01*
X64150750Y-103508049D01*
X64034589Y-103736024D01*
X64034588Y-103736027D01*
X63955526Y-103979359D01*
X63915500Y-104232070D01*
X63915500Y-104487929D01*
X63955526Y-104740640D01*
X64034588Y-104983972D01*
X64034589Y-104983975D01*
X64150750Y-105211950D01*
X64214604Y-105299838D01*
X64238084Y-105365644D01*
X64222259Y-105433698D01*
X64172153Y-105482393D01*
X64103675Y-105496268D01*
X64082193Y-105492498D01*
X63902020Y-105444222D01*
X63902009Y-105444220D01*
X63642094Y-105410000D01*
X63379905Y-105410000D01*
X63119990Y-105444220D01*
X63119979Y-105444222D01*
X62866744Y-105512075D01*
X62624528Y-105612404D01*
X62624517Y-105612409D01*
X62397471Y-105743496D01*
X62284633Y-105830079D01*
X62284633Y-105830080D01*
X63148706Y-106694152D01*
X63132058Y-106701049D01*
X63001030Y-106788599D01*
X62889599Y-106900030D01*
X62802049Y-107031058D01*
X62795153Y-107047706D01*
X61931080Y-106183633D01*
X61931079Y-106183633D01*
X61844496Y-106296471D01*
X61713409Y-106523517D01*
X61713404Y-106523528D01*
X61613075Y-106765744D01*
X61545222Y-107018979D01*
X61545220Y-107018990D01*
X61511000Y-107278905D01*
X55075500Y-107278905D01*
X55075500Y-104253713D01*
X56189500Y-104253713D01*
X56189500Y-104466286D01*
X56222753Y-104676239D01*
X56288444Y-104878414D01*
X56384951Y-105067820D01*
X56509890Y-105239786D01*
X56660213Y-105390109D01*
X56832179Y-105515048D01*
X56832181Y-105515049D01*
X56832184Y-105515051D01*
X57021588Y-105611557D01*
X57223757Y-105677246D01*
X57433713Y-105710500D01*
X57433714Y-105710500D01*
X57646286Y-105710500D01*
X57646287Y-105710500D01*
X57856243Y-105677246D01*
X58058412Y-105611557D01*
X58247816Y-105515051D01*
X58292766Y-105482393D01*
X58419786Y-105390109D01*
X58419788Y-105390106D01*
X58419792Y-105390104D01*
X58570104Y-105239792D01*
X58570106Y-105239788D01*
X58570109Y-105239786D01*
X58695048Y-105067820D01*
X58695047Y-105067820D01*
X58695051Y-105067816D01*
X58791557Y-104878412D01*
X58857246Y-104676243D01*
X58890500Y-104466287D01*
X58890500Y-104253713D01*
X58857246Y-104043757D01*
X58791557Y-103841588D01*
X58695051Y-103652184D01*
X58695049Y-103652181D01*
X58695048Y-103652179D01*
X58570109Y-103480213D01*
X58419786Y-103329890D01*
X58247820Y-103204951D01*
X58058414Y-103108444D01*
X58058413Y-103108443D01*
X58058412Y-103108443D01*
X57856243Y-103042754D01*
X57856241Y-103042753D01*
X57856240Y-103042753D01*
X57694957Y-103017208D01*
X57646287Y-103009500D01*
X57433713Y-103009500D01*
X57385042Y-103017208D01*
X57223760Y-103042753D01*
X57021585Y-103108444D01*
X56832179Y-103204951D01*
X56660213Y-103329890D01*
X56509890Y-103480213D01*
X56384951Y-103652179D01*
X56288444Y-103841585D01*
X56222753Y-104043760D01*
X56189500Y-104253713D01*
X55075500Y-104253713D01*
X55075500Y-103824065D01*
X55075765Y-103815957D01*
X55076484Y-103804982D01*
X55084406Y-103684106D01*
X55108432Y-103618502D01*
X55120446Y-103604552D01*
X56784542Y-101940456D01*
X56845861Y-101906974D01*
X56864092Y-101904407D01*
X56988993Y-101896221D01*
X56995958Y-101895765D01*
X57004066Y-101895500D01*
X57024531Y-101895500D01*
X103775469Y-101895500D01*
X103795934Y-101895500D01*
X103804043Y-101895765D01*
G37*
%TD.AperFunction*%
%TD*%
M02*
