%TF.GenerationSoftware,KiCad,Pcbnew,10.0.5+dfsg-1*%
%TF.CreationDate,2026-09-04T09:16:15+02:00*%
%TF.ProjectId,thermohygro,74686572-6d6f-4687-9967-726f2e6b6963,1.2*%
%TF.SameCoordinates,Original*%
%TF.FileFunction,Legend,Top*%
%TF.FilePolarity,Positive*%
%FSLAX46Y46*%
G04 Gerber Fmt 4.6, Leading zero omitted, Abs format (unit mm)*
G04 Created by KiCad (PCBNEW 10.0.5+dfsg-1) date 2026-09-04 09:16:15*
%MOMM*%
%LPD*%
G01*
G04 APERTURE LIST*
%ADD10C,0.150000*%
%ADD11C,0.120000*%
%ADD12C,0.127000*%
%ADD13C,0.100000*%
%ADD14C,0.504000*%
G04 APERTURE END LIST*
D10*
X89531541Y-140901152D02*
X89769636Y-141567819D01*
X89769636Y-141567819D02*
X90007731Y-140901152D01*
X90912493Y-141567819D02*
X90341065Y-141567819D01*
X90626779Y-141567819D02*
X90626779Y-140567819D01*
X90626779Y-140567819D02*
X90531541Y-140710676D01*
X90531541Y-140710676D02*
X90436303Y-140805914D01*
X90436303Y-140805914D02*
X90341065Y-140853533D01*
X91341065Y-141472580D02*
X91388684Y-141520200D01*
X91388684Y-141520200D02*
X91341065Y-141567819D01*
X91341065Y-141567819D02*
X91293446Y-141520200D01*
X91293446Y-141520200D02*
X91341065Y-141472580D01*
X91341065Y-141472580D02*
X91341065Y-141567819D01*
X91769636Y-140663057D02*
X91817255Y-140615438D01*
X91817255Y-140615438D02*
X91912493Y-140567819D01*
X91912493Y-140567819D02*
X92150588Y-140567819D01*
X92150588Y-140567819D02*
X92245826Y-140615438D01*
X92245826Y-140615438D02*
X92293445Y-140663057D01*
X92293445Y-140663057D02*
X92341064Y-140758295D01*
X92341064Y-140758295D02*
X92341064Y-140853533D01*
X92341064Y-140853533D02*
X92293445Y-140996390D01*
X92293445Y-140996390D02*
X91722017Y-141567819D01*
X91722017Y-141567819D02*
X92341064Y-141567819D01*
X59632438Y-123819411D02*
X59584819Y-123914649D01*
X59584819Y-123914649D02*
X59584819Y-124057506D01*
X59584819Y-124057506D02*
X59632438Y-124200363D01*
X59632438Y-124200363D02*
X59727676Y-124295601D01*
X59727676Y-124295601D02*
X59822914Y-124343220D01*
X59822914Y-124343220D02*
X60013390Y-124390839D01*
X60013390Y-124390839D02*
X60156247Y-124390839D01*
X60156247Y-124390839D02*
X60346723Y-124343220D01*
X60346723Y-124343220D02*
X60441961Y-124295601D01*
X60441961Y-124295601D02*
X60537200Y-124200363D01*
X60537200Y-124200363D02*
X60584819Y-124057506D01*
X60584819Y-124057506D02*
X60584819Y-123962268D01*
X60584819Y-123962268D02*
X60537200Y-123819411D01*
X60537200Y-123819411D02*
X60489580Y-123771792D01*
X60489580Y-123771792D02*
X60156247Y-123771792D01*
X60156247Y-123771792D02*
X60156247Y-123962268D01*
X60584819Y-123343220D02*
X59584819Y-123343220D01*
X59584819Y-123343220D02*
X60584819Y-122771792D01*
X60584819Y-122771792D02*
X59584819Y-122771792D01*
X60584819Y-122295601D02*
X59584819Y-122295601D01*
X59584819Y-122295601D02*
X59584819Y-122057506D01*
X59584819Y-122057506D02*
X59632438Y-121914649D01*
X59632438Y-121914649D02*
X59727676Y-121819411D01*
X59727676Y-121819411D02*
X59822914Y-121771792D01*
X59822914Y-121771792D02*
X60013390Y-121724173D01*
X60013390Y-121724173D02*
X60156247Y-121724173D01*
X60156247Y-121724173D02*
X60346723Y-121771792D01*
X60346723Y-121771792D02*
X60441961Y-121819411D01*
X60441961Y-121819411D02*
X60537200Y-121914649D01*
X60537200Y-121914649D02*
X60584819Y-122057506D01*
X60584819Y-122057506D02*
X60584819Y-122295601D01*
X62124819Y-124486077D02*
X63124819Y-124152744D01*
X63124819Y-124152744D02*
X62124819Y-123819411D01*
X63029580Y-122914649D02*
X63077200Y-122962268D01*
X63077200Y-122962268D02*
X63124819Y-123105125D01*
X63124819Y-123105125D02*
X63124819Y-123200363D01*
X63124819Y-123200363D02*
X63077200Y-123343220D01*
X63077200Y-123343220D02*
X62981961Y-123438458D01*
X62981961Y-123438458D02*
X62886723Y-123486077D01*
X62886723Y-123486077D02*
X62696247Y-123533696D01*
X62696247Y-123533696D02*
X62553390Y-123533696D01*
X62553390Y-123533696D02*
X62362914Y-123486077D01*
X62362914Y-123486077D02*
X62267676Y-123438458D01*
X62267676Y-123438458D02*
X62172438Y-123343220D01*
X62172438Y-123343220D02*
X62124819Y-123200363D01*
X62124819Y-123200363D02*
X62124819Y-123105125D01*
X62124819Y-123105125D02*
X62172438Y-122962268D01*
X62172438Y-122962268D02*
X62220057Y-122914649D01*
X63029580Y-121914649D02*
X63077200Y-121962268D01*
X63077200Y-121962268D02*
X63124819Y-122105125D01*
X63124819Y-122105125D02*
X63124819Y-122200363D01*
X63124819Y-122200363D02*
X63077200Y-122343220D01*
X63077200Y-122343220D02*
X62981961Y-122438458D01*
X62981961Y-122438458D02*
X62886723Y-122486077D01*
X62886723Y-122486077D02*
X62696247Y-122533696D01*
X62696247Y-122533696D02*
X62553390Y-122533696D01*
X62553390Y-122533696D02*
X62362914Y-122486077D01*
X62362914Y-122486077D02*
X62267676Y-122438458D01*
X62267676Y-122438458D02*
X62172438Y-122343220D01*
X62172438Y-122343220D02*
X62124819Y-122200363D01*
X62124819Y-122200363D02*
X62124819Y-122105125D01*
X62124819Y-122105125D02*
X62172438Y-121962268D01*
X62172438Y-121962268D02*
X62220057Y-121914649D01*
X65490200Y-127184839D02*
X65537819Y-127041982D01*
X65537819Y-127041982D02*
X65537819Y-126803887D01*
X65537819Y-126803887D02*
X65490200Y-126708649D01*
X65490200Y-126708649D02*
X65442580Y-126661030D01*
X65442580Y-126661030D02*
X65347342Y-126613411D01*
X65347342Y-126613411D02*
X65252104Y-126613411D01*
X65252104Y-126613411D02*
X65156866Y-126661030D01*
X65156866Y-126661030D02*
X65109247Y-126708649D01*
X65109247Y-126708649D02*
X65061628Y-126803887D01*
X65061628Y-126803887D02*
X65014009Y-126994363D01*
X65014009Y-126994363D02*
X64966390Y-127089601D01*
X64966390Y-127089601D02*
X64918771Y-127137220D01*
X64918771Y-127137220D02*
X64823533Y-127184839D01*
X64823533Y-127184839D02*
X64728295Y-127184839D01*
X64728295Y-127184839D02*
X64633057Y-127137220D01*
X64633057Y-127137220D02*
X64585438Y-127089601D01*
X64585438Y-127089601D02*
X64537819Y-126994363D01*
X64537819Y-126994363D02*
X64537819Y-126756268D01*
X64537819Y-126756268D02*
X64585438Y-126613411D01*
X65442580Y-125613411D02*
X65490200Y-125661030D01*
X65490200Y-125661030D02*
X65537819Y-125803887D01*
X65537819Y-125803887D02*
X65537819Y-125899125D01*
X65537819Y-125899125D02*
X65490200Y-126041982D01*
X65490200Y-126041982D02*
X65394961Y-126137220D01*
X65394961Y-126137220D02*
X65299723Y-126184839D01*
X65299723Y-126184839D02*
X65109247Y-126232458D01*
X65109247Y-126232458D02*
X64966390Y-126232458D01*
X64966390Y-126232458D02*
X64775914Y-126184839D01*
X64775914Y-126184839D02*
X64680676Y-126137220D01*
X64680676Y-126137220D02*
X64585438Y-126041982D01*
X64585438Y-126041982D02*
X64537819Y-125899125D01*
X64537819Y-125899125D02*
X64537819Y-125803887D01*
X64537819Y-125803887D02*
X64585438Y-125661030D01*
X64585438Y-125661030D02*
X64633057Y-125613411D01*
X65537819Y-124708649D02*
X65537819Y-125184839D01*
X65537819Y-125184839D02*
X64537819Y-125184839D01*
X64490200Y-123661030D02*
X65775914Y-124518172D01*
X65537819Y-123327696D02*
X64537819Y-123327696D01*
X64537819Y-123327696D02*
X64537819Y-123089601D01*
X64537819Y-123089601D02*
X64585438Y-122946744D01*
X64585438Y-122946744D02*
X64680676Y-122851506D01*
X64680676Y-122851506D02*
X64775914Y-122803887D01*
X64775914Y-122803887D02*
X64966390Y-122756268D01*
X64966390Y-122756268D02*
X65109247Y-122756268D01*
X65109247Y-122756268D02*
X65299723Y-122803887D01*
X65299723Y-122803887D02*
X65394961Y-122851506D01*
X65394961Y-122851506D02*
X65490200Y-122946744D01*
X65490200Y-122946744D02*
X65537819Y-123089601D01*
X65537819Y-123089601D02*
X65537819Y-123327696D01*
X64537819Y-122137220D02*
X64537819Y-122041982D01*
X64537819Y-122041982D02*
X64585438Y-121946744D01*
X64585438Y-121946744D02*
X64633057Y-121899125D01*
X64633057Y-121899125D02*
X64728295Y-121851506D01*
X64728295Y-121851506D02*
X64918771Y-121803887D01*
X64918771Y-121803887D02*
X65156866Y-121803887D01*
X65156866Y-121803887D02*
X65347342Y-121851506D01*
X65347342Y-121851506D02*
X65442580Y-121899125D01*
X65442580Y-121899125D02*
X65490200Y-121946744D01*
X65490200Y-121946744D02*
X65537819Y-122041982D01*
X65537819Y-122041982D02*
X65537819Y-122137220D01*
X65537819Y-122137220D02*
X65490200Y-122232458D01*
X65490200Y-122232458D02*
X65442580Y-122280077D01*
X65442580Y-122280077D02*
X65347342Y-122327696D01*
X65347342Y-122327696D02*
X65156866Y-122375315D01*
X65156866Y-122375315D02*
X64918771Y-122375315D01*
X64918771Y-122375315D02*
X64728295Y-122327696D01*
X64728295Y-122327696D02*
X64633057Y-122280077D01*
X64633057Y-122280077D02*
X64585438Y-122232458D01*
X64585438Y-122232458D02*
X64537819Y-122137220D01*
X68030200Y-127184839D02*
X68077819Y-127041982D01*
X68077819Y-127041982D02*
X68077819Y-126803887D01*
X68077819Y-126803887D02*
X68030200Y-126708649D01*
X68030200Y-126708649D02*
X67982580Y-126661030D01*
X67982580Y-126661030D02*
X67887342Y-126613411D01*
X67887342Y-126613411D02*
X67792104Y-126613411D01*
X67792104Y-126613411D02*
X67696866Y-126661030D01*
X67696866Y-126661030D02*
X67649247Y-126708649D01*
X67649247Y-126708649D02*
X67601628Y-126803887D01*
X67601628Y-126803887D02*
X67554009Y-126994363D01*
X67554009Y-126994363D02*
X67506390Y-127089601D01*
X67506390Y-127089601D02*
X67458771Y-127137220D01*
X67458771Y-127137220D02*
X67363533Y-127184839D01*
X67363533Y-127184839D02*
X67268295Y-127184839D01*
X67268295Y-127184839D02*
X67173057Y-127137220D01*
X67173057Y-127137220D02*
X67125438Y-127089601D01*
X67125438Y-127089601D02*
X67077819Y-126994363D01*
X67077819Y-126994363D02*
X67077819Y-126756268D01*
X67077819Y-126756268D02*
X67125438Y-126613411D01*
X68077819Y-126184839D02*
X67077819Y-126184839D01*
X67077819Y-126184839D02*
X67077819Y-125946744D01*
X67077819Y-125946744D02*
X67125438Y-125803887D01*
X67125438Y-125803887D02*
X67220676Y-125708649D01*
X67220676Y-125708649D02*
X67315914Y-125661030D01*
X67315914Y-125661030D02*
X67506390Y-125613411D01*
X67506390Y-125613411D02*
X67649247Y-125613411D01*
X67649247Y-125613411D02*
X67839723Y-125661030D01*
X67839723Y-125661030D02*
X67934961Y-125708649D01*
X67934961Y-125708649D02*
X68030200Y-125803887D01*
X68030200Y-125803887D02*
X68077819Y-125946744D01*
X68077819Y-125946744D02*
X68077819Y-126184839D01*
X67792104Y-125232458D02*
X67792104Y-124756268D01*
X68077819Y-125327696D02*
X67077819Y-124994363D01*
X67077819Y-124994363D02*
X68077819Y-124661030D01*
X67030200Y-123613411D02*
X68315914Y-124470553D01*
X68077819Y-123280077D02*
X67077819Y-123280077D01*
X67077819Y-123280077D02*
X67077819Y-123041982D01*
X67077819Y-123041982D02*
X67125438Y-122899125D01*
X67125438Y-122899125D02*
X67220676Y-122803887D01*
X67220676Y-122803887D02*
X67315914Y-122756268D01*
X67315914Y-122756268D02*
X67506390Y-122708649D01*
X67506390Y-122708649D02*
X67649247Y-122708649D01*
X67649247Y-122708649D02*
X67839723Y-122756268D01*
X67839723Y-122756268D02*
X67934961Y-122803887D01*
X67934961Y-122803887D02*
X68030200Y-122899125D01*
X68030200Y-122899125D02*
X68077819Y-123041982D01*
X68077819Y-123041982D02*
X68077819Y-123280077D01*
X68077819Y-121756268D02*
X68077819Y-122327696D01*
X68077819Y-122041982D02*
X67077819Y-122041982D01*
X67077819Y-122041982D02*
X67220676Y-122137220D01*
X67220676Y-122137220D02*
X67315914Y-122232458D01*
X67315914Y-122232458D02*
X67363533Y-122327696D01*
X70617819Y-123771792D02*
X70141628Y-124105125D01*
X70617819Y-124343220D02*
X69617819Y-124343220D01*
X69617819Y-124343220D02*
X69617819Y-123962268D01*
X69617819Y-123962268D02*
X69665438Y-123867030D01*
X69665438Y-123867030D02*
X69713057Y-123819411D01*
X69713057Y-123819411D02*
X69808295Y-123771792D01*
X69808295Y-123771792D02*
X69951152Y-123771792D01*
X69951152Y-123771792D02*
X70046390Y-123819411D01*
X70046390Y-123819411D02*
X70094009Y-123867030D01*
X70094009Y-123867030D02*
X70141628Y-123962268D01*
X70141628Y-123962268D02*
X70141628Y-124343220D01*
X70094009Y-123343220D02*
X70094009Y-123009887D01*
X70617819Y-122867030D02*
X70617819Y-123343220D01*
X70617819Y-123343220D02*
X69617819Y-123343220D01*
X69617819Y-123343220D02*
X69617819Y-122867030D01*
X70570200Y-122486077D02*
X70617819Y-122343220D01*
X70617819Y-122343220D02*
X70617819Y-122105125D01*
X70617819Y-122105125D02*
X70570200Y-122009887D01*
X70570200Y-122009887D02*
X70522580Y-121962268D01*
X70522580Y-121962268D02*
X70427342Y-121914649D01*
X70427342Y-121914649D02*
X70332104Y-121914649D01*
X70332104Y-121914649D02*
X70236866Y-121962268D01*
X70236866Y-121962268D02*
X70189247Y-122009887D01*
X70189247Y-122009887D02*
X70141628Y-122105125D01*
X70141628Y-122105125D02*
X70094009Y-122295601D01*
X70094009Y-122295601D02*
X70046390Y-122390839D01*
X70046390Y-122390839D02*
X69998771Y-122438458D01*
X69998771Y-122438458D02*
X69903533Y-122486077D01*
X69903533Y-122486077D02*
X69808295Y-122486077D01*
X69808295Y-122486077D02*
X69713057Y-122438458D01*
X69713057Y-122438458D02*
X69665438Y-122390839D01*
X69665438Y-122390839D02*
X69617819Y-122295601D01*
X69617819Y-122295601D02*
X69617819Y-122057506D01*
X69617819Y-122057506D02*
X69665438Y-121914649D01*
X73157819Y-123581220D02*
X72157819Y-123581220D01*
X72157819Y-123581220D02*
X72157819Y-123343125D01*
X72157819Y-123343125D02*
X72205438Y-123200268D01*
X72205438Y-123200268D02*
X72300676Y-123105030D01*
X72300676Y-123105030D02*
X72395914Y-123057411D01*
X72395914Y-123057411D02*
X72586390Y-123009792D01*
X72586390Y-123009792D02*
X72729247Y-123009792D01*
X72729247Y-123009792D02*
X72919723Y-123057411D01*
X72919723Y-123057411D02*
X73014961Y-123105030D01*
X73014961Y-123105030D02*
X73110200Y-123200268D01*
X73110200Y-123200268D02*
X73157819Y-123343125D01*
X73157819Y-123343125D02*
X73157819Y-123581220D01*
X73062580Y-122009792D02*
X73110200Y-122057411D01*
X73110200Y-122057411D02*
X73157819Y-122200268D01*
X73157819Y-122200268D02*
X73157819Y-122295506D01*
X73157819Y-122295506D02*
X73110200Y-122438363D01*
X73110200Y-122438363D02*
X73014961Y-122533601D01*
X73014961Y-122533601D02*
X72919723Y-122581220D01*
X72919723Y-122581220D02*
X72729247Y-122628839D01*
X72729247Y-122628839D02*
X72586390Y-122628839D01*
X72586390Y-122628839D02*
X72395914Y-122581220D01*
X72395914Y-122581220D02*
X72300676Y-122533601D01*
X72300676Y-122533601D02*
X72205438Y-122438363D01*
X72205438Y-122438363D02*
X72157819Y-122295506D01*
X72157819Y-122295506D02*
X72157819Y-122200268D01*
X72157819Y-122200268D02*
X72205438Y-122057411D01*
X72205438Y-122057411D02*
X72253057Y-122009792D01*
X75602580Y-123009792D02*
X75650200Y-123057411D01*
X75650200Y-123057411D02*
X75697819Y-123200268D01*
X75697819Y-123200268D02*
X75697819Y-123295506D01*
X75697819Y-123295506D02*
X75650200Y-123438363D01*
X75650200Y-123438363D02*
X75554961Y-123533601D01*
X75554961Y-123533601D02*
X75459723Y-123581220D01*
X75459723Y-123581220D02*
X75269247Y-123628839D01*
X75269247Y-123628839D02*
X75126390Y-123628839D01*
X75126390Y-123628839D02*
X74935914Y-123581220D01*
X74935914Y-123581220D02*
X74840676Y-123533601D01*
X74840676Y-123533601D02*
X74745438Y-123438363D01*
X74745438Y-123438363D02*
X74697819Y-123295506D01*
X74697819Y-123295506D02*
X74697819Y-123200268D01*
X74697819Y-123200268D02*
X74745438Y-123057411D01*
X74745438Y-123057411D02*
X74793057Y-123009792D01*
X75650200Y-122628839D02*
X75697819Y-122485982D01*
X75697819Y-122485982D02*
X75697819Y-122247887D01*
X75697819Y-122247887D02*
X75650200Y-122152649D01*
X75650200Y-122152649D02*
X75602580Y-122105030D01*
X75602580Y-122105030D02*
X75507342Y-122057411D01*
X75507342Y-122057411D02*
X75412104Y-122057411D01*
X75412104Y-122057411D02*
X75316866Y-122105030D01*
X75316866Y-122105030D02*
X75269247Y-122152649D01*
X75269247Y-122152649D02*
X75221628Y-122247887D01*
X75221628Y-122247887D02*
X75174009Y-122438363D01*
X75174009Y-122438363D02*
X75126390Y-122533601D01*
X75126390Y-122533601D02*
X75078771Y-122581220D01*
X75078771Y-122581220D02*
X74983533Y-122628839D01*
X74983533Y-122628839D02*
X74888295Y-122628839D01*
X74888295Y-122628839D02*
X74793057Y-122581220D01*
X74793057Y-122581220D02*
X74745438Y-122533601D01*
X74745438Y-122533601D02*
X74697819Y-122438363D01*
X74697819Y-122438363D02*
X74697819Y-122200268D01*
X74697819Y-122200268D02*
X74745438Y-122057411D01*
X103399819Y-128153220D02*
X104209342Y-128153220D01*
X104209342Y-128153220D02*
X104304580Y-128105601D01*
X104304580Y-128105601D02*
X104352200Y-128057982D01*
X104352200Y-128057982D02*
X104399819Y-127962744D01*
X104399819Y-127962744D02*
X104399819Y-127772268D01*
X104399819Y-127772268D02*
X104352200Y-127677030D01*
X104352200Y-127677030D02*
X104304580Y-127629411D01*
X104304580Y-127629411D02*
X104209342Y-127581792D01*
X104209342Y-127581792D02*
X103399819Y-127581792D01*
X104352200Y-127153220D02*
X104399819Y-127010363D01*
X104399819Y-127010363D02*
X104399819Y-126772268D01*
X104399819Y-126772268D02*
X104352200Y-126677030D01*
X104352200Y-126677030D02*
X104304580Y-126629411D01*
X104304580Y-126629411D02*
X104209342Y-126581792D01*
X104209342Y-126581792D02*
X104114104Y-126581792D01*
X104114104Y-126581792D02*
X104018866Y-126629411D01*
X104018866Y-126629411D02*
X103971247Y-126677030D01*
X103971247Y-126677030D02*
X103923628Y-126772268D01*
X103923628Y-126772268D02*
X103876009Y-126962744D01*
X103876009Y-126962744D02*
X103828390Y-127057982D01*
X103828390Y-127057982D02*
X103780771Y-127105601D01*
X103780771Y-127105601D02*
X103685533Y-127153220D01*
X103685533Y-127153220D02*
X103590295Y-127153220D01*
X103590295Y-127153220D02*
X103495057Y-127105601D01*
X103495057Y-127105601D02*
X103447438Y-127057982D01*
X103447438Y-127057982D02*
X103399819Y-126962744D01*
X103399819Y-126962744D02*
X103399819Y-126724649D01*
X103399819Y-126724649D02*
X103447438Y-126581792D01*
X103876009Y-125819887D02*
X103923628Y-125677030D01*
X103923628Y-125677030D02*
X103971247Y-125629411D01*
X103971247Y-125629411D02*
X104066485Y-125581792D01*
X104066485Y-125581792D02*
X104209342Y-125581792D01*
X104209342Y-125581792D02*
X104304580Y-125629411D01*
X104304580Y-125629411D02*
X104352200Y-125677030D01*
X104352200Y-125677030D02*
X104399819Y-125772268D01*
X104399819Y-125772268D02*
X104399819Y-126153220D01*
X104399819Y-126153220D02*
X103399819Y-126153220D01*
X103399819Y-126153220D02*
X103399819Y-125819887D01*
X103399819Y-125819887D02*
X103447438Y-125724649D01*
X103447438Y-125724649D02*
X103495057Y-125677030D01*
X103495057Y-125677030D02*
X103590295Y-125629411D01*
X103590295Y-125629411D02*
X103685533Y-125629411D01*
X103685533Y-125629411D02*
X103780771Y-125677030D01*
X103780771Y-125677030D02*
X103828390Y-125724649D01*
X103828390Y-125724649D02*
X103876009Y-125819887D01*
X103876009Y-125819887D02*
X103876009Y-126153220D01*
X56976666Y-119054819D02*
X56976666Y-119769104D01*
X56976666Y-119769104D02*
X56929047Y-119911961D01*
X56929047Y-119911961D02*
X56833809Y-120007200D01*
X56833809Y-120007200D02*
X56690952Y-120054819D01*
X56690952Y-120054819D02*
X56595714Y-120054819D01*
X57357619Y-119054819D02*
X57976666Y-119054819D01*
X57976666Y-119054819D02*
X57643333Y-119435771D01*
X57643333Y-119435771D02*
X57786190Y-119435771D01*
X57786190Y-119435771D02*
X57881428Y-119483390D01*
X57881428Y-119483390D02*
X57929047Y-119531009D01*
X57929047Y-119531009D02*
X57976666Y-119626247D01*
X57976666Y-119626247D02*
X57976666Y-119864342D01*
X57976666Y-119864342D02*
X57929047Y-119959580D01*
X57929047Y-119959580D02*
X57881428Y-120007200D01*
X57881428Y-120007200D02*
X57786190Y-120054819D01*
X57786190Y-120054819D02*
X57500476Y-120054819D01*
X57500476Y-120054819D02*
X57405238Y-120007200D01*
X57405238Y-120007200D02*
X57357619Y-119959580D01*
X65803333Y-117467200D02*
X65946190Y-117514819D01*
X65946190Y-117514819D02*
X66184285Y-117514819D01*
X66184285Y-117514819D02*
X66279523Y-117467200D01*
X66279523Y-117467200D02*
X66327142Y-117419580D01*
X66327142Y-117419580D02*
X66374761Y-117324342D01*
X66374761Y-117324342D02*
X66374761Y-117229104D01*
X66374761Y-117229104D02*
X66327142Y-117133866D01*
X66327142Y-117133866D02*
X66279523Y-117086247D01*
X66279523Y-117086247D02*
X66184285Y-117038628D01*
X66184285Y-117038628D02*
X65993809Y-116991009D01*
X65993809Y-116991009D02*
X65898571Y-116943390D01*
X65898571Y-116943390D02*
X65850952Y-116895771D01*
X65850952Y-116895771D02*
X65803333Y-116800533D01*
X65803333Y-116800533D02*
X65803333Y-116705295D01*
X65803333Y-116705295D02*
X65850952Y-116610057D01*
X65850952Y-116610057D02*
X65898571Y-116562438D01*
X65898571Y-116562438D02*
X65993809Y-116514819D01*
X65993809Y-116514819D02*
X66231904Y-116514819D01*
X66231904Y-116514819D02*
X66374761Y-116562438D01*
X66755714Y-117467200D02*
X66898571Y-117514819D01*
X66898571Y-117514819D02*
X67136666Y-117514819D01*
X67136666Y-117514819D02*
X67231904Y-117467200D01*
X67231904Y-117467200D02*
X67279523Y-117419580D01*
X67279523Y-117419580D02*
X67327142Y-117324342D01*
X67327142Y-117324342D02*
X67327142Y-117229104D01*
X67327142Y-117229104D02*
X67279523Y-117133866D01*
X67279523Y-117133866D02*
X67231904Y-117086247D01*
X67231904Y-117086247D02*
X67136666Y-117038628D01*
X67136666Y-117038628D02*
X66946190Y-116991009D01*
X66946190Y-116991009D02*
X66850952Y-116943390D01*
X66850952Y-116943390D02*
X66803333Y-116895771D01*
X66803333Y-116895771D02*
X66755714Y-116800533D01*
X66755714Y-116800533D02*
X66755714Y-116705295D01*
X66755714Y-116705295D02*
X66803333Y-116610057D01*
X66803333Y-116610057D02*
X66850952Y-116562438D01*
X66850952Y-116562438D02*
X66946190Y-116514819D01*
X66946190Y-116514819D02*
X67184285Y-116514819D01*
X67184285Y-116514819D02*
X67327142Y-116562438D01*
X67755714Y-117514819D02*
X67755714Y-116514819D01*
X67755714Y-116514819D02*
X67993809Y-116514819D01*
X67993809Y-116514819D02*
X68136666Y-116562438D01*
X68136666Y-116562438D02*
X68231904Y-116657676D01*
X68231904Y-116657676D02*
X68279523Y-116752914D01*
X68279523Y-116752914D02*
X68327142Y-116943390D01*
X68327142Y-116943390D02*
X68327142Y-117086247D01*
X68327142Y-117086247D02*
X68279523Y-117276723D01*
X68279523Y-117276723D02*
X68231904Y-117371961D01*
X68231904Y-117371961D02*
X68136666Y-117467200D01*
X68136666Y-117467200D02*
X67993809Y-117514819D01*
X67993809Y-117514819D02*
X67755714Y-117514819D01*
X69279523Y-117514819D02*
X68708095Y-117514819D01*
X68993809Y-117514819D02*
X68993809Y-116514819D01*
X68993809Y-116514819D02*
X68898571Y-116657676D01*
X68898571Y-116657676D02*
X68803333Y-116752914D01*
X68803333Y-116752914D02*
X68708095Y-116800533D01*
X69612857Y-116514819D02*
X70231904Y-116514819D01*
X70231904Y-116514819D02*
X69898571Y-116895771D01*
X69898571Y-116895771D02*
X70041428Y-116895771D01*
X70041428Y-116895771D02*
X70136666Y-116943390D01*
X70136666Y-116943390D02*
X70184285Y-116991009D01*
X70184285Y-116991009D02*
X70231904Y-117086247D01*
X70231904Y-117086247D02*
X70231904Y-117324342D01*
X70231904Y-117324342D02*
X70184285Y-117419580D01*
X70184285Y-117419580D02*
X70136666Y-117467200D01*
X70136666Y-117467200D02*
X70041428Y-117514819D01*
X70041428Y-117514819D02*
X69755714Y-117514819D01*
X69755714Y-117514819D02*
X69660476Y-117467200D01*
X69660476Y-117467200D02*
X69612857Y-117419580D01*
X70850952Y-116514819D02*
X70946190Y-116514819D01*
X70946190Y-116514819D02*
X71041428Y-116562438D01*
X71041428Y-116562438D02*
X71089047Y-116610057D01*
X71089047Y-116610057D02*
X71136666Y-116705295D01*
X71136666Y-116705295D02*
X71184285Y-116895771D01*
X71184285Y-116895771D02*
X71184285Y-117133866D01*
X71184285Y-117133866D02*
X71136666Y-117324342D01*
X71136666Y-117324342D02*
X71089047Y-117419580D01*
X71089047Y-117419580D02*
X71041428Y-117467200D01*
X71041428Y-117467200D02*
X70946190Y-117514819D01*
X70946190Y-117514819D02*
X70850952Y-117514819D01*
X70850952Y-117514819D02*
X70755714Y-117467200D01*
X70755714Y-117467200D02*
X70708095Y-117419580D01*
X70708095Y-117419580D02*
X70660476Y-117324342D01*
X70660476Y-117324342D02*
X70612857Y-117133866D01*
X70612857Y-117133866D02*
X70612857Y-116895771D01*
X70612857Y-116895771D02*
X70660476Y-116705295D01*
X70660476Y-116705295D02*
X70708095Y-116610057D01*
X70708095Y-116610057D02*
X70755714Y-116562438D01*
X70755714Y-116562438D02*
X70850952Y-116514819D01*
X72041428Y-116514819D02*
X71850952Y-116514819D01*
X71850952Y-116514819D02*
X71755714Y-116562438D01*
X71755714Y-116562438D02*
X71708095Y-116610057D01*
X71708095Y-116610057D02*
X71612857Y-116752914D01*
X71612857Y-116752914D02*
X71565238Y-116943390D01*
X71565238Y-116943390D02*
X71565238Y-117324342D01*
X71565238Y-117324342D02*
X71612857Y-117419580D01*
X71612857Y-117419580D02*
X71660476Y-117467200D01*
X71660476Y-117467200D02*
X71755714Y-117514819D01*
X71755714Y-117514819D02*
X71946190Y-117514819D01*
X71946190Y-117514819D02*
X72041428Y-117467200D01*
X72041428Y-117467200D02*
X72089047Y-117419580D01*
X72089047Y-117419580D02*
X72136666Y-117324342D01*
X72136666Y-117324342D02*
X72136666Y-117086247D01*
X72136666Y-117086247D02*
X72089047Y-116991009D01*
X72089047Y-116991009D02*
X72041428Y-116943390D01*
X72041428Y-116943390D02*
X71946190Y-116895771D01*
X71946190Y-116895771D02*
X71755714Y-116895771D01*
X71755714Y-116895771D02*
X71660476Y-116943390D01*
X71660476Y-116943390D02*
X71612857Y-116991009D01*
X71612857Y-116991009D02*
X71565238Y-117086247D01*
X72089523Y-132984819D02*
X71756190Y-132508628D01*
X71518095Y-132984819D02*
X71518095Y-131984819D01*
X71518095Y-131984819D02*
X71899047Y-131984819D01*
X71899047Y-131984819D02*
X71994285Y-132032438D01*
X71994285Y-132032438D02*
X72041904Y-132080057D01*
X72041904Y-132080057D02*
X72089523Y-132175295D01*
X72089523Y-132175295D02*
X72089523Y-132318152D01*
X72089523Y-132318152D02*
X72041904Y-132413390D01*
X72041904Y-132413390D02*
X71994285Y-132461009D01*
X71994285Y-132461009D02*
X71899047Y-132508628D01*
X71899047Y-132508628D02*
X71518095Y-132508628D01*
X72518095Y-132984819D02*
X72518095Y-131984819D01*
X72518095Y-131984819D02*
X73089523Y-132984819D01*
X73089523Y-132984819D02*
X73089523Y-131984819D01*
X74089523Y-132984819D02*
X73518095Y-132984819D01*
X73803809Y-132984819D02*
X73803809Y-131984819D01*
X73803809Y-131984819D02*
X73708571Y-132127676D01*
X73708571Y-132127676D02*
X73613333Y-132222914D01*
X73613333Y-132222914D02*
X73518095Y-132270533D01*
X67986190Y-137604819D02*
X67652857Y-137128628D01*
X67414762Y-137604819D02*
X67414762Y-136604819D01*
X67414762Y-136604819D02*
X67795714Y-136604819D01*
X67795714Y-136604819D02*
X67890952Y-136652438D01*
X67890952Y-136652438D02*
X67938571Y-136700057D01*
X67938571Y-136700057D02*
X67986190Y-136795295D01*
X67986190Y-136795295D02*
X67986190Y-136938152D01*
X67986190Y-136938152D02*
X67938571Y-137033390D01*
X67938571Y-137033390D02*
X67890952Y-137081009D01*
X67890952Y-137081009D02*
X67795714Y-137128628D01*
X67795714Y-137128628D02*
X67414762Y-137128628D01*
X68414762Y-137223866D02*
X69176667Y-137223866D01*
X69652857Y-137604819D02*
X69652857Y-136604819D01*
X69652857Y-136604819D02*
X70224285Y-137604819D01*
X70224285Y-137604819D02*
X70224285Y-136604819D01*
X70700476Y-137604819D02*
X70700476Y-136604819D01*
X71081428Y-136604819D02*
X71748094Y-136604819D01*
X71748094Y-136604819D02*
X71081428Y-137604819D01*
X71081428Y-137604819D02*
X71748094Y-137604819D01*
X73319523Y-136938152D02*
X73319523Y-137604819D01*
X73081428Y-136557200D02*
X72843333Y-137271485D01*
X72843333Y-137271485D02*
X73462380Y-137271485D01*
X73843333Y-137509580D02*
X73890952Y-137557200D01*
X73890952Y-137557200D02*
X73843333Y-137604819D01*
X73843333Y-137604819D02*
X73795714Y-137557200D01*
X73795714Y-137557200D02*
X73843333Y-137509580D01*
X73843333Y-137509580D02*
X73843333Y-137604819D01*
X74224285Y-136604819D02*
X74890951Y-136604819D01*
X74890951Y-136604819D02*
X74462380Y-137604819D01*
X75271904Y-137604819D02*
X75271904Y-136604819D01*
X75367142Y-137223866D02*
X75652856Y-137604819D01*
X75652856Y-136938152D02*
X75271904Y-137319104D01*
X77526666Y-115664819D02*
X77526666Y-116379104D01*
X77526666Y-116379104D02*
X77479047Y-116521961D01*
X77479047Y-116521961D02*
X77383809Y-116617200D01*
X77383809Y-116617200D02*
X77240952Y-116664819D01*
X77240952Y-116664819D02*
X77145714Y-116664819D01*
X78526666Y-116664819D02*
X77955238Y-116664819D01*
X78240952Y-116664819D02*
X78240952Y-115664819D01*
X78240952Y-115664819D02*
X78145714Y-115807676D01*
X78145714Y-115807676D02*
X78050476Y-115902914D01*
X78050476Y-115902914D02*
X77955238Y-115950533D01*
X82606666Y-115664819D02*
X82606666Y-116379104D01*
X82606666Y-116379104D02*
X82559047Y-116521961D01*
X82559047Y-116521961D02*
X82463809Y-116617200D01*
X82463809Y-116617200D02*
X82320952Y-116664819D01*
X82320952Y-116664819D02*
X82225714Y-116664819D01*
X83035238Y-115760057D02*
X83082857Y-115712438D01*
X83082857Y-115712438D02*
X83178095Y-115664819D01*
X83178095Y-115664819D02*
X83416190Y-115664819D01*
X83416190Y-115664819D02*
X83511428Y-115712438D01*
X83511428Y-115712438D02*
X83559047Y-115760057D01*
X83559047Y-115760057D02*
X83606666Y-115855295D01*
X83606666Y-115855295D02*
X83606666Y-115950533D01*
X83606666Y-115950533D02*
X83559047Y-116093390D01*
X83559047Y-116093390D02*
X82987619Y-116664819D01*
X82987619Y-116664819D02*
X83606666Y-116664819D01*
X82813095Y-126674819D02*
X82813095Y-127484342D01*
X82813095Y-127484342D02*
X82860714Y-127579580D01*
X82860714Y-127579580D02*
X82908333Y-127627200D01*
X82908333Y-127627200D02*
X83003571Y-127674819D01*
X83003571Y-127674819D02*
X83194047Y-127674819D01*
X83194047Y-127674819D02*
X83289285Y-127627200D01*
X83289285Y-127627200D02*
X83336904Y-127579580D01*
X83336904Y-127579580D02*
X83384523Y-127484342D01*
X83384523Y-127484342D02*
X83384523Y-126674819D01*
X84384523Y-127674819D02*
X83813095Y-127674819D01*
X84098809Y-127674819D02*
X84098809Y-126674819D01*
X84098809Y-126674819D02*
X84003571Y-126817676D01*
X84003571Y-126817676D02*
X83908333Y-126912914D01*
X83908333Y-126912914D02*
X83813095Y-126960533D01*
X89544762Y-138104819D02*
X90211428Y-139104819D01*
X90211428Y-138104819D02*
X89544762Y-139104819D01*
X90592381Y-139104819D02*
X90592381Y-138104819D01*
X91020952Y-138819104D02*
X91497142Y-138819104D01*
X90925714Y-139104819D02*
X91259047Y-138104819D01*
X91259047Y-138104819D02*
X91592380Y-139104819D01*
X92116190Y-138104819D02*
X92306666Y-138104819D01*
X92306666Y-138104819D02*
X92401904Y-138152438D01*
X92401904Y-138152438D02*
X92497142Y-138247676D01*
X92497142Y-138247676D02*
X92544761Y-138438152D01*
X92544761Y-138438152D02*
X92544761Y-138771485D01*
X92544761Y-138771485D02*
X92497142Y-138961961D01*
X92497142Y-138961961D02*
X92401904Y-139057200D01*
X92401904Y-139057200D02*
X92306666Y-139104819D01*
X92306666Y-139104819D02*
X92116190Y-139104819D01*
X92116190Y-139104819D02*
X92020952Y-139057200D01*
X92020952Y-139057200D02*
X91925714Y-138961961D01*
X91925714Y-138961961D02*
X91878095Y-138771485D01*
X91878095Y-138771485D02*
X91878095Y-138438152D01*
X91878095Y-138438152D02*
X91925714Y-138247676D01*
X91925714Y-138247676D02*
X92020952Y-138152438D01*
X92020952Y-138152438D02*
X92116190Y-138104819D01*
X92973333Y-138723866D02*
X93735238Y-138723866D01*
X94211428Y-138581009D02*
X94544761Y-138581009D01*
X94687618Y-139104819D02*
X94211428Y-139104819D01*
X94211428Y-139104819D02*
X94211428Y-138104819D01*
X94211428Y-138104819D02*
X94687618Y-138104819D01*
X95068571Y-139057200D02*
X95211428Y-139104819D01*
X95211428Y-139104819D02*
X95449523Y-139104819D01*
X95449523Y-139104819D02*
X95544761Y-139057200D01*
X95544761Y-139057200D02*
X95592380Y-139009580D01*
X95592380Y-139009580D02*
X95639999Y-138914342D01*
X95639999Y-138914342D02*
X95639999Y-138819104D01*
X95639999Y-138819104D02*
X95592380Y-138723866D01*
X95592380Y-138723866D02*
X95544761Y-138676247D01*
X95544761Y-138676247D02*
X95449523Y-138628628D01*
X95449523Y-138628628D02*
X95259047Y-138581009D01*
X95259047Y-138581009D02*
X95163809Y-138533390D01*
X95163809Y-138533390D02*
X95116190Y-138485771D01*
X95116190Y-138485771D02*
X95068571Y-138390533D01*
X95068571Y-138390533D02*
X95068571Y-138295295D01*
X95068571Y-138295295D02*
X95116190Y-138200057D01*
X95116190Y-138200057D02*
X95163809Y-138152438D01*
X95163809Y-138152438D02*
X95259047Y-138104819D01*
X95259047Y-138104819D02*
X95497142Y-138104819D01*
X95497142Y-138104819D02*
X95639999Y-138152438D01*
X96068571Y-139104819D02*
X96068571Y-138104819D01*
X96068571Y-138104819D02*
X96449523Y-138104819D01*
X96449523Y-138104819D02*
X96544761Y-138152438D01*
X96544761Y-138152438D02*
X96592380Y-138200057D01*
X96592380Y-138200057D02*
X96639999Y-138295295D01*
X96639999Y-138295295D02*
X96639999Y-138438152D01*
X96639999Y-138438152D02*
X96592380Y-138533390D01*
X96592380Y-138533390D02*
X96544761Y-138581009D01*
X96544761Y-138581009D02*
X96449523Y-138628628D01*
X96449523Y-138628628D02*
X96068571Y-138628628D01*
X96973333Y-138104819D02*
X97592380Y-138104819D01*
X97592380Y-138104819D02*
X97259047Y-138485771D01*
X97259047Y-138485771D02*
X97401904Y-138485771D01*
X97401904Y-138485771D02*
X97497142Y-138533390D01*
X97497142Y-138533390D02*
X97544761Y-138581009D01*
X97544761Y-138581009D02*
X97592380Y-138676247D01*
X97592380Y-138676247D02*
X97592380Y-138914342D01*
X97592380Y-138914342D02*
X97544761Y-139009580D01*
X97544761Y-139009580D02*
X97497142Y-139057200D01*
X97497142Y-139057200D02*
X97401904Y-139104819D01*
X97401904Y-139104819D02*
X97116190Y-139104819D01*
X97116190Y-139104819D02*
X97020952Y-139057200D01*
X97020952Y-139057200D02*
X96973333Y-139009580D01*
X97973333Y-138200057D02*
X98020952Y-138152438D01*
X98020952Y-138152438D02*
X98116190Y-138104819D01*
X98116190Y-138104819D02*
X98354285Y-138104819D01*
X98354285Y-138104819D02*
X98449523Y-138152438D01*
X98449523Y-138152438D02*
X98497142Y-138200057D01*
X98497142Y-138200057D02*
X98544761Y-138295295D01*
X98544761Y-138295295D02*
X98544761Y-138390533D01*
X98544761Y-138390533D02*
X98497142Y-138533390D01*
X98497142Y-138533390D02*
X97925714Y-139104819D01*
X97925714Y-139104819D02*
X98544761Y-139104819D01*
X98973333Y-138723866D02*
X99735238Y-138723866D01*
X100163809Y-139057200D02*
X100306666Y-139104819D01*
X100306666Y-139104819D02*
X100544761Y-139104819D01*
X100544761Y-139104819D02*
X100639999Y-139057200D01*
X100639999Y-139057200D02*
X100687618Y-139009580D01*
X100687618Y-139009580D02*
X100735237Y-138914342D01*
X100735237Y-138914342D02*
X100735237Y-138819104D01*
X100735237Y-138819104D02*
X100687618Y-138723866D01*
X100687618Y-138723866D02*
X100639999Y-138676247D01*
X100639999Y-138676247D02*
X100544761Y-138628628D01*
X100544761Y-138628628D02*
X100354285Y-138581009D01*
X100354285Y-138581009D02*
X100259047Y-138533390D01*
X100259047Y-138533390D02*
X100211428Y-138485771D01*
X100211428Y-138485771D02*
X100163809Y-138390533D01*
X100163809Y-138390533D02*
X100163809Y-138295295D01*
X100163809Y-138295295D02*
X100211428Y-138200057D01*
X100211428Y-138200057D02*
X100259047Y-138152438D01*
X100259047Y-138152438D02*
X100354285Y-138104819D01*
X100354285Y-138104819D02*
X100592380Y-138104819D01*
X100592380Y-138104819D02*
X100735237Y-138152438D01*
X101068571Y-138104819D02*
X101687618Y-138104819D01*
X101687618Y-138104819D02*
X101354285Y-138485771D01*
X101354285Y-138485771D02*
X101497142Y-138485771D01*
X101497142Y-138485771D02*
X101592380Y-138533390D01*
X101592380Y-138533390D02*
X101639999Y-138581009D01*
X101639999Y-138581009D02*
X101687618Y-138676247D01*
X101687618Y-138676247D02*
X101687618Y-138914342D01*
X101687618Y-138914342D02*
X101639999Y-139009580D01*
X101639999Y-139009580D02*
X101592380Y-139057200D01*
X101592380Y-139057200D02*
X101497142Y-139104819D01*
X101497142Y-139104819D02*
X101211428Y-139104819D01*
X101211428Y-139104819D02*
X101116190Y-139057200D01*
X101116190Y-139057200D02*
X101068571Y-139009580D01*
%TO.C,J3*%
D11*
X61350000Y-118270000D02*
X79190000Y-118270000D01*
X58750000Y-118270000D02*
X60080000Y-118270000D01*
X58750000Y-119600000D02*
X58750000Y-118270000D01*
X79190000Y-120930000D02*
X79190000Y-118270000D01*
X61350000Y-120930000D02*
X61350000Y-118270000D01*
X61350000Y-120930000D02*
X79190000Y-120930000D01*
%TO.C,RN1*%
X61350000Y-133530000D02*
X61350000Y-136150000D01*
X58730000Y-133530000D02*
X84290000Y-133530000D01*
X84290000Y-136150000D01*
X58730000Y-136150000D01*
X58730000Y-133530000D01*
%TO.C,J1*%
X63086000Y-102795000D02*
X63086000Y-105650000D01*
X63086000Y-115280000D02*
X63086000Y-109170000D01*
X63086000Y-115280000D02*
X79426000Y-115280000D01*
X79426000Y-102795000D02*
X79426000Y-105650000D01*
X79426000Y-115280000D02*
X79426000Y-109170000D01*
X79526000Y-110710000D02*
X80326000Y-111110000D01*
X80326000Y-110310000D02*
X79526000Y-110710000D01*
X80326000Y-111110000D02*
X80326000Y-110310000D01*
%TO.C,J2*%
X81374000Y-102795000D02*
X81374000Y-105650000D01*
X81374000Y-115280000D02*
X81374000Y-109170000D01*
X81374000Y-115280000D02*
X97714000Y-115280000D01*
X97714000Y-102795000D02*
X97714000Y-105650000D01*
X97714000Y-115280000D02*
X97714000Y-109170000D01*
X97814000Y-110710000D02*
X98614000Y-111110000D01*
X98614000Y-110310000D02*
X97814000Y-110710000D01*
X98614000Y-111110000D02*
X98614000Y-110310000D01*
%TO.C,U1*%
D12*
X85226000Y-120235000D02*
X85226000Y-134205000D01*
X106181000Y-122725000D02*
X107191272Y-122728728D01*
D13*
X106181000Y-134205000D02*
X106181000Y-120235000D01*
D12*
X106181000Y-134205000D02*
X106181000Y-120235000D01*
X107191000Y-131724000D02*
X106181000Y-131724000D01*
X107691000Y-123228728D02*
X107691000Y-131224000D01*
X85226000Y-120235000D02*
G75*
G02*
X87131000Y-118330000I1905001J-1D01*
G01*
X87131000Y-136110000D02*
G75*
G02*
X85226000Y-134205000I1J1905001D01*
G01*
X104276000Y-118330000D02*
G75*
G02*
X106181000Y-120235000I0J-1905000D01*
G01*
X106181000Y-134205000D02*
G75*
G02*
X104276000Y-136110000I-1905000J0D01*
G01*
X107191272Y-122728728D02*
G75*
G02*
X107690972Y-123228728I-272J-499972D01*
G01*
X107691000Y-131224000D02*
G75*
G02*
X107191000Y-131724000I-500000J0D01*
G01*
D14*
X105442000Y-117470000D02*
G75*
G02*
X104938000Y-117470000I-252000J0D01*
G01*
X104938000Y-117470000D02*
G75*
G02*
X105442000Y-117470000I252000J0D01*
G01*
%TD*%
M02*
