M48
; DRILL file KiCad 10.0.4+b1 date 2026-08-02T16:42:20
; FORMAT={-:-/ absolute / metric / decimal}
; #@! TF.CreationDate,2026-08-02T16:42:20+02:00
; #@! TF.GenerationSoftware,Kicad,Pcbnew,10.0.4+b1
; #@! TF.FileFunction,Plated,1,2,PTH
FMAT,2
METRIC
; #@! TA.AperFunction,Plated,PTH,ComponentDrill
T1C0.800
; #@! TA.AperFunction,Plated,PTH,ComponentDrill
T2C0.889
; #@! TA.AperFunction,Plated,PTH,ComponentDrill
T3C0.890
; #@! TA.AperFunction,Plated,PTH,ComponentDrill
T4C1.000
; #@! TA.AperFunction,Plated,PTH,ComponentDrill
T5C1.600
%
G90
G05
T1
X60.08Y-132.3
X62.62Y-132.3
X65.16Y-132.3
X67.7Y-132.3
X70.24Y-132.3
X72.78Y-132.3
X75.32Y-132.3
X77.86Y-132.3
T2
X88.02Y-119.6
X88.02Y-134.84
X90.56Y-119.6
X90.56Y-134.84
X93.1Y-119.6
X93.1Y-134.84
X95.64Y-119.6
X95.64Y-134.84
X98.18Y-119.6
X98.18Y-134.84
X100.72Y-119.6
X100.72Y-134.84
X103.26Y-119.6
X103.26Y-134.84
T3
X66.811Y-113.25
X68.081Y-110.71
X69.351Y-113.25
X70.621Y-110.71
X71.891Y-113.25
X73.161Y-110.71
X74.431Y-113.25
X75.701Y-110.71
X85.099Y-113.25
X86.369Y-110.71
X87.639Y-113.25
X88.909Y-110.71
X90.179Y-113.25
X91.449Y-110.71
X92.719Y-113.25
X93.989Y-110.71
T4
X60.08Y-119.6
X62.62Y-119.6
X65.16Y-119.6
X67.7Y-119.6
X70.24Y-119.6
X72.78Y-119.6
X75.32Y-119.6
T5
X63.511Y-107.41
X79.001Y-107.41
X81.799Y-107.41
X97.289Y-107.41
M30
