%TF.GenerationSoftware,KiCad,Pcbnew,10.0.5+dfsg-1*%
%TF.CreationDate,2026-09-04T09:16:10+02:00*%
%TF.ProjectId,thermohygro,74686572-6d6f-4687-9967-726f2e6b6963,1.2*%
%TF.SameCoordinates,Original*%
%TF.FileFunction,Copper,L1,Top*%
%TF.FilePolarity,Positive*%
%FSLAX46Y46*%
G04 Gerber Fmt 4.6, Leading zero omitted, Abs format (unit mm)*
G04 Created by KiCad (PCBNEW 10.0.5+dfsg-1) date 2026-09-04 09:16:10*
%MOMM*%
%LPD*%
G01*
G04 APERTURE LIST*
G04 Aperture macros list*
%AMRoundRect*
0 Rectangle with rounded corners*
0 $1 Rounding radius*
0 $2 $3 $4 $5 $6 $7 $8 $9 X,Y pos of 4 corners*
0 Add a 4 corners polygon primitive as box body*
4,1,4,$2,$3,$4,$5,$6,$7,$8,$9,$2,$3,0*
0 Add four circle primitives for the rounded corners*
1,1,$1+$1,$2,$3*
1,1,$1+$1,$4,$5*
1,1,$1+$1,$6,$7*
1,1,$1+$1,$8,$9*
0 Add four rect primitives between the rounded corners*
20,1,$1+$1,$2,$3,$4,$5,0*
20,1,$1+$1,$4,$5,$6,$7,0*
20,1,$1+$1,$6,$7,$8,$9,0*
20,1,$1+$1,$8,$9,$2,$3,0*%
G04 Aperture macros list end*
%TA.AperFunction,ComponentPad*%
%ADD10C,1.700000*%
%TD*%
%TA.AperFunction,ComponentPad*%
%ADD11R,1.700000X1.700000*%
%TD*%
%TA.AperFunction,ComponentPad*%
%ADD12R,1.600000X1.600000*%
%TD*%
%TA.AperFunction,ComponentPad*%
%ADD13C,1.600000*%
%TD*%
%TA.AperFunction,ComponentPad*%
%ADD14R,1.800000X1.800000*%
%TD*%
%TA.AperFunction,ComponentPad*%
%ADD15C,1.800000*%
%TD*%
%TA.AperFunction,ComponentPad*%
%ADD16C,3.000000*%
%TD*%
%TA.AperFunction,SMDPad,CuDef*%
%ADD17RoundRect,0.152400X0.609600X-1.063600X0.609600X1.063600X-0.609600X1.063600X-0.609600X-1.063600X0*%
%TD*%
%TA.AperFunction,ComponentPad*%
%ADD18C,1.524000*%
%TD*%
%TA.AperFunction,SMDPad,CuDef*%
%ADD19RoundRect,0.152400X-0.609600X1.063600X-0.609600X-1.063600X0.609600X-1.063600X0.609600X1.063600X0*%
%TD*%
%TA.AperFunction,Conductor*%
%ADD20C,0.400000*%
%TD*%
%TA.AperFunction,Conductor*%
%ADD21C,0.500000*%
%TD*%
%TA.AperFunction,Conductor*%
%ADD22C,0.600000*%
%TD*%
G04 APERTURE END LIST*
D10*
%TO.P,J3,8,Pin_8_8*%
%TO.N,Net-(J3-Pin_8)*%
X77860000Y-119600000D03*
%TO.P,J3,7,Pin_7_7*%
%TO.N,/CS*%
X75320000Y-119600000D03*
%TO.P,J3,6,Pin_6_6*%
%TO.N,/DC*%
X72780000Y-119600000D03*
%TO.P,J3,5,Pin_5_5*%
%TO.N,/RES*%
X70240000Y-119600000D03*
%TO.P,J3,4,Pin_4_4*%
%TO.N,/D1*%
X67700000Y-119600000D03*
%TO.P,J3,3,Pin_3_3*%
%TO.N,/D0*%
X65160000Y-119600000D03*
%TO.P,J3,2,Pin_2_2*%
%TO.N,+3.3V*%
X62620000Y-119600000D03*
D11*
%TO.P,J3,1,Pin_1_1*%
%TO.N,GND*%
X60080000Y-119600000D03*
%TD*%
D12*
%TO.P,RN1,1,common_1*%
%TO.N,+3.3V*%
X60080000Y-134840000D03*
D13*
%TO.P,RN1,2,R1_2*%
%TO.N,/SDA1*%
X62620000Y-134840000D03*
%TO.P,RN1,3,R2_3*%
%TO.N,/SCK1*%
X65160000Y-134840000D03*
%TO.P,RN1,4,R3_4*%
%TO.N,/SDA2*%
X67700000Y-134840000D03*
%TO.P,RN1,5,R4_5*%
%TO.N,/SCK2*%
X70240000Y-134840000D03*
%TO.P,RN1,6,R5_6*%
%TO.N,/D0*%
X72780000Y-134840000D03*
%TO.P,RN1,7,R6_7*%
%TO.N,/D1*%
X75320000Y-134840000D03*
%TO.P,RN1,8,R7_8*%
%TO.N,unconnected-(RN1-R7-Pad8)*%
X77860000Y-134840000D03*
%TO.P,RN1,9,R8_9*%
%TO.N,unconnected-(RN1-R8-Pad9)*%
X80400000Y-134840000D03*
%TO.P,RN1,10,R9_10*%
%TO.N,unconnected-(RN1-R9-Pad10)*%
X82940000Y-134840000D03*
%TD*%
D14*
%TO.P,J1,1*%
%TO.N,unconnected-(J1-Pad1)*%
X75701000Y-110710000D03*
D15*
%TO.P,J1,2*%
%TO.N,unconnected-(J1-Pad2)*%
X74431000Y-113250000D03*
%TO.P,J1,3*%
%TO.N,GND*%
X73161000Y-110710000D03*
%TO.P,J1,4*%
%TO.N,/SDA1*%
X71891000Y-113250000D03*
%TO.P,J1,5*%
%TO.N,/SCK1*%
X70621000Y-110710000D03*
%TO.P,J1,6*%
%TO.N,+3.3V*%
X69351000Y-113250000D03*
%TO.P,J1,7*%
%TO.N,unconnected-(J1-Pad7)*%
X68081000Y-110710000D03*
%TO.P,J1,8*%
%TO.N,unconnected-(J1-Pad8)*%
X66811000Y-113250000D03*
D16*
%TO.P,J1,SH*%
%TO.N,GND*%
X79001000Y-107410000D03*
X63511000Y-107410000D03*
%TD*%
D14*
%TO.P,J2,1*%
%TO.N,unconnected-(J2-Pad1)*%
X93989000Y-110710000D03*
D15*
%TO.P,J2,2*%
%TO.N,unconnected-(J2-Pad2)*%
X92719000Y-113250000D03*
%TO.P,J2,3*%
%TO.N,GND*%
X91449000Y-110710000D03*
%TO.P,J2,4*%
%TO.N,/SDA2*%
X90179000Y-113250000D03*
%TO.P,J2,5*%
%TO.N,/SCK2*%
X88909000Y-110710000D03*
%TO.P,J2,6*%
%TO.N,+3.3V*%
X87639000Y-113250000D03*
%TO.P,J2,7*%
%TO.N,unconnected-(J2-Pad7)*%
X86369000Y-110710000D03*
%TO.P,J2,8*%
%TO.N,unconnected-(J2-Pad8)*%
X85099000Y-113250000D03*
D16*
%TO.P,J2,SH*%
%TO.N,GND*%
X97289000Y-107410000D03*
X81799000Y-107410000D03*
%TD*%
D17*
%TO.P,U1,1,D0_1*%
%TO.N,/SCK2*%
X103260000Y-118765000D03*
D18*
X103260000Y-119600000D03*
D17*
%TO.P,U1,2,D1_2*%
%TO.N,/SDA2*%
X100720000Y-118765000D03*
D18*
X100720000Y-119600000D03*
D17*
%TO.P,U1,3,D2_3*%
%TO.N,/SCK1*%
X98180000Y-118765000D03*
D18*
X98180000Y-119600000D03*
D17*
%TO.P,U1,4,D3_4*%
%TO.N,/SDA1*%
X95640000Y-118765000D03*
D18*
X95640000Y-119600000D03*
D17*
%TO.P,U1,5,D4_5*%
%TO.N,/CS*%
X93100000Y-118765000D03*
D18*
X93100000Y-119600000D03*
D17*
%TO.P,U1,6,D5_6*%
%TO.N,/DC*%
X90560000Y-118765000D03*
D18*
X90560000Y-119600000D03*
D17*
%TO.P,U1,7,D6_7*%
%TO.N,Net-(J3-Pin_8)*%
X88020000Y-118765000D03*
D18*
X88020000Y-119600000D03*
%TO.P,U1,8,D7_8*%
%TO.N,unconnected-(U1-D7-Pad8)*%
X88020000Y-134840000D03*
D19*
X88020000Y-135675000D03*
D18*
%TO.P,U1,9,D8_9*%
%TO.N,/D0*%
X90560000Y-134840000D03*
D19*
X90560000Y-135675000D03*
D18*
%TO.P,U1,10,D9_10*%
%TO.N,/D1*%
X93100000Y-134840000D03*
D19*
X93100000Y-135675000D03*
D18*
%TO.P,U1,11,D10_11*%
%TO.N,/RES*%
X95640000Y-134840000D03*
D19*
X95640000Y-135675000D03*
D18*
%TO.P,U1,12,3V3_OUT_12*%
%TO.N,+3.3V*%
X98180000Y-134840000D03*
D19*
X98180000Y-135675000D03*
D18*
%TO.P,U1,13,GND_13*%
%TO.N,GND*%
X100720000Y-134840000D03*
D19*
X100720000Y-135675000D03*
D18*
%TO.P,U1,14,VBUS_14*%
%TO.N,unconnected-(U1-VBUS-Pad14)*%
X103260000Y-134840000D03*
D19*
X103260000Y-135675000D03*
%TD*%
%TO.N,Net-(J3-Pin_8)*%
D20*
X77860000Y-119600000D02*
X88020000Y-119600000D01*
%TO.N,/SDA2*%
D21*
X67700000Y-134840000D02*
X67700000Y-130776000D01*
%TO.N,/SDA1*%
X62620000Y-134840000D02*
X62620000Y-129760000D01*
X62620000Y-129760000D02*
X67065000Y-125315000D01*
X67065000Y-125315000D02*
X92465000Y-125315000D01*
X92465000Y-125315000D02*
X95640000Y-122140000D01*
X95640000Y-122140000D02*
X95640000Y-119600000D01*
%TO.N,/SCK1*%
X65160000Y-134840000D02*
X65160000Y-130395000D01*
X65160000Y-130395000D02*
X68970000Y-126585000D01*
X68970000Y-126585000D02*
X93735000Y-126585000D01*
X93735000Y-126585000D02*
X98180000Y-122140000D01*
X98180000Y-122140000D02*
X98180000Y-119600000D01*
%TO.N,/SCK2*%
X72145000Y-129125000D02*
X97545000Y-129125000D01*
%TO.N,/SDA2*%
X67700000Y-130776000D02*
X70621000Y-127855000D01*
X70621000Y-127855000D02*
X95513000Y-127855000D01*
X95513000Y-127855000D02*
X100720000Y-122648000D01*
X100720000Y-122648000D02*
X100720000Y-119600000D01*
%TO.N,/SCK2*%
X70240000Y-134840000D02*
X70240000Y-131030000D01*
X70240000Y-131030000D02*
X72145000Y-129125000D01*
X97545000Y-129125000D02*
X103260000Y-123410000D01*
X103260000Y-123410000D02*
X103260000Y-119600000D01*
%TO.N,GND*%
D22*
X79001000Y-107410000D02*
X81799000Y-107410000D01*
X60080000Y-119600000D02*
X60080000Y-110841000D01*
X81799000Y-107410000D02*
X97289000Y-107410000D01*
X60080000Y-110841000D02*
X63511000Y-107410000D01*
X63511000Y-107410000D02*
X79001000Y-107410000D01*
%TO.N,+3.3V*%
X87639000Y-115409000D02*
X87639000Y-113250000D01*
X69351000Y-115409000D02*
X69986000Y-116044000D01*
X87004000Y-116044000D02*
X87639000Y-115409000D01*
X69986000Y-116044000D02*
X87004000Y-116044000D01*
X69351000Y-113250000D02*
X69351000Y-115409000D01*
%TD*%
%TA.AperFunction,Conductor*%
%TO.N,GND*%
G36*
X103804043Y-101895765D02*
G01*
X103935891Y-101904406D01*
X104001495Y-101928432D01*
X104015459Y-101940459D01*
X105679539Y-103604539D01*
X105713024Y-103665862D01*
X105715592Y-103684110D01*
X105724234Y-103815956D01*
X105724500Y-103824066D01*
X105724500Y-142995933D01*
X105724234Y-143004043D01*
X105715592Y-143135887D01*
X105691565Y-143201496D01*
X105679539Y-143215458D01*
X104015458Y-144879539D01*
X103954135Y-144913024D01*
X103935887Y-144915592D01*
X103804043Y-144924234D01*
X103795933Y-144924500D01*
X57004067Y-144924500D01*
X56995957Y-144924234D01*
X56864110Y-144915592D01*
X56798501Y-144891565D01*
X56784539Y-144879539D01*
X55120459Y-143215459D01*
X55086974Y-143154136D01*
X55084407Y-143135904D01*
X55075765Y-143004043D01*
X55075500Y-142995934D01*
X55075500Y-142353713D01*
X56189500Y-142353713D01*
X56189500Y-142566286D01*
X56222753Y-142776239D01*
X56288444Y-142978414D01*
X56384951Y-143167820D01*
X56509890Y-143339786D01*
X56660213Y-143490109D01*
X56832179Y-143615048D01*
X56832181Y-143615049D01*
X56832184Y-143615051D01*
X57021588Y-143711557D01*
X57223757Y-143777246D01*
X57433713Y-143810500D01*
X57433714Y-143810500D01*
X57646286Y-143810500D01*
X57646287Y-143810500D01*
X57856243Y-143777246D01*
X58058412Y-143711557D01*
X58247816Y-143615051D01*
X58408791Y-143498097D01*
X58419786Y-143490109D01*
X58419788Y-143490106D01*
X58419792Y-143490104D01*
X58570104Y-143339792D01*
X58570106Y-143339788D01*
X58570109Y-143339786D01*
X58695048Y-143167820D01*
X58695047Y-143167820D01*
X58695051Y-143167816D01*
X58791557Y-142978412D01*
X58857246Y-142776243D01*
X58890500Y-142566287D01*
X58890500Y-142353713D01*
X101909500Y-142353713D01*
X101909500Y-142566286D01*
X101942753Y-142776239D01*
X102008444Y-142978414D01*
X102104951Y-143167820D01*
X102229890Y-143339786D01*
X102380213Y-143490109D01*
X102552179Y-143615048D01*
X102552181Y-143615049D01*
X102552184Y-143615051D01*
X102741588Y-143711557D01*
X102943757Y-143777246D01*
X103153713Y-143810500D01*
X103153714Y-143810500D01*
X103366286Y-143810500D01*
X103366287Y-143810500D01*
X103576243Y-143777246D01*
X103778412Y-143711557D01*
X103967816Y-143615051D01*
X104128791Y-143498097D01*
X104139786Y-143490109D01*
X104139788Y-143490106D01*
X104139792Y-143490104D01*
X104290104Y-143339792D01*
X104290106Y-143339788D01*
X104290109Y-143339786D01*
X104415048Y-143167820D01*
X104415047Y-143167820D01*
X104415051Y-143167816D01*
X104511557Y-142978412D01*
X104577246Y-142776243D01*
X104610500Y-142566287D01*
X104610500Y-142353713D01*
X104577246Y-142143757D01*
X104511557Y-141941588D01*
X104415051Y-141752184D01*
X104415049Y-141752181D01*
X104415048Y-141752179D01*
X104290109Y-141580213D01*
X104139786Y-141429890D01*
X103967820Y-141304951D01*
X103778414Y-141208444D01*
X103778413Y-141208443D01*
X103778412Y-141208443D01*
X103576243Y-141142754D01*
X103576241Y-141142753D01*
X103576240Y-141142753D01*
X103414957Y-141117208D01*
X103366287Y-141109500D01*
X103153713Y-141109500D01*
X103105042Y-141117208D01*
X102943760Y-141142753D01*
X102741585Y-141208444D01*
X102552179Y-141304951D01*
X102380213Y-141429890D01*
X102229890Y-141580213D01*
X102104951Y-141752179D01*
X102008444Y-141941585D01*
X101942753Y-142143760D01*
X101909500Y-142353713D01*
X58890500Y-142353713D01*
X58857246Y-142143757D01*
X58791557Y-141941588D01*
X58695051Y-141752184D01*
X58695049Y-141752181D01*
X58695048Y-141752179D01*
X58570109Y-141580213D01*
X58419786Y-141429890D01*
X58247820Y-141304951D01*
X58058414Y-141208444D01*
X58058413Y-141208443D01*
X58058412Y-141208443D01*
X57856243Y-141142754D01*
X57856241Y-141142753D01*
X57856240Y-141142753D01*
X57694957Y-141117208D01*
X57646287Y-141109500D01*
X57433713Y-141109500D01*
X57385042Y-141117208D01*
X57223760Y-141142753D01*
X57021585Y-141208444D01*
X56832179Y-141304951D01*
X56660213Y-141429890D01*
X56509890Y-141580213D01*
X56384951Y-141752179D01*
X56288444Y-141941585D01*
X56222753Y-142143760D01*
X56189500Y-142353713D01*
X55075500Y-142353713D01*
X55075500Y-137149691D01*
X99598860Y-137149691D01*
X99707360Y-137258192D01*
X99707365Y-137258196D01*
X99849243Y-137342102D01*
X99849246Y-137342103D01*
X100007526Y-137388088D01*
X100007532Y-137388089D01*
X100044518Y-137390999D01*
X101395469Y-137390999D01*
X101395491Y-137390998D01*
X101432466Y-137388089D01*
X101590757Y-137342102D01*
X101732632Y-137258197D01*
X101732636Y-137258194D01*
X101841139Y-137149691D01*
X100720000Y-136028553D01*
X99598860Y-137149691D01*
X55075500Y-137149691D01*
X55075500Y-135654822D01*
X59129499Y-135654822D01*
X59138231Y-135698717D01*
X59138232Y-135698721D01*
X59138233Y-135698722D01*
X59171496Y-135748504D01*
X59221278Y-135781767D01*
X59221281Y-135781767D01*
X59221282Y-135781768D01*
X59265177Y-135790500D01*
X59265180Y-135790500D01*
X60894822Y-135790500D01*
X60938717Y-135781768D01*
X60938717Y-135781767D01*
X60938722Y-135781767D01*
X60988504Y-135748504D01*
X61021767Y-135698722D01*
X61030500Y-135654820D01*
X61030500Y-134746379D01*
X61669500Y-134746379D01*
X61669500Y-134933620D01*
X61706025Y-135117243D01*
X61706027Y-135117251D01*
X61777676Y-135290228D01*
X61777681Y-135290237D01*
X61881697Y-135445907D01*
X61881700Y-135445911D01*
X62014088Y-135578299D01*
X62014092Y-135578302D01*
X62169762Y-135682318D01*
X62169768Y-135682321D01*
X62169769Y-135682322D01*
X62342749Y-135753973D01*
X62482470Y-135781765D01*
X62526379Y-135790499D01*
X62526383Y-135790500D01*
X62526384Y-135790500D01*
X62713617Y-135790500D01*
X62713618Y-135790499D01*
X62897251Y-135753973D01*
X63070231Y-135682322D01*
X63225908Y-135578302D01*
X63358302Y-135445908D01*
X63462322Y-135290231D01*
X63533973Y-135117251D01*
X63570500Y-134933616D01*
X63570500Y-134746384D01*
X63570499Y-134746379D01*
X64209500Y-134746379D01*
X64209500Y-134933620D01*
X64246025Y-135117243D01*
X64246027Y-135117251D01*
X64317676Y-135290228D01*
X64317681Y-135290237D01*
X64421697Y-135445907D01*
X64421700Y-135445911D01*
X64554088Y-135578299D01*
X64554092Y-135578302D01*
X64709762Y-135682318D01*
X64709768Y-135682321D01*
X64709769Y-135682322D01*
X64882749Y-135753973D01*
X65022470Y-135781765D01*
X65066379Y-135790499D01*
X65066383Y-135790500D01*
X65066384Y-135790500D01*
X65253617Y-135790500D01*
X65253618Y-135790499D01*
X65437251Y-135753973D01*
X65610231Y-135682322D01*
X65765908Y-135578302D01*
X65898302Y-135445908D01*
X66002322Y-135290231D01*
X66073973Y-135117251D01*
X66110500Y-134933616D01*
X66110500Y-134746384D01*
X66110499Y-134746379D01*
X66749500Y-134746379D01*
X66749500Y-134933620D01*
X66786025Y-135117243D01*
X66786027Y-135117251D01*
X66857676Y-135290228D01*
X66857681Y-135290237D01*
X66961697Y-135445907D01*
X66961700Y-135445911D01*
X67094088Y-135578299D01*
X67094092Y-135578302D01*
X67249762Y-135682318D01*
X67249768Y-135682321D01*
X67249769Y-135682322D01*
X67422749Y-135753973D01*
X67562470Y-135781765D01*
X67606379Y-135790499D01*
X67606383Y-135790500D01*
X67606384Y-135790500D01*
X67793617Y-135790500D01*
X67793618Y-135790499D01*
X67977251Y-135753973D01*
X68150231Y-135682322D01*
X68305908Y-135578302D01*
X68438302Y-135445908D01*
X68542322Y-135290231D01*
X68613973Y-135117251D01*
X68650500Y-134933616D01*
X68650500Y-134746384D01*
X68650499Y-134746379D01*
X69289500Y-134746379D01*
X69289500Y-134933620D01*
X69326025Y-135117243D01*
X69326027Y-135117251D01*
X69397676Y-135290228D01*
X69397681Y-135290237D01*
X69501697Y-135445907D01*
X69501700Y-135445911D01*
X69634088Y-135578299D01*
X69634092Y-135578302D01*
X69789762Y-135682318D01*
X69789768Y-135682321D01*
X69789769Y-135682322D01*
X69962749Y-135753973D01*
X70102470Y-135781765D01*
X70146379Y-135790499D01*
X70146383Y-135790500D01*
X70146384Y-135790500D01*
X70333617Y-135790500D01*
X70333618Y-135790499D01*
X70517251Y-135753973D01*
X70690231Y-135682322D01*
X70845908Y-135578302D01*
X70978302Y-135445908D01*
X71082322Y-135290231D01*
X71153973Y-135117251D01*
X71190500Y-134933616D01*
X71190500Y-134746384D01*
X71190499Y-134746379D01*
X71829500Y-134746379D01*
X71829500Y-134933620D01*
X71866025Y-135117243D01*
X71866027Y-135117251D01*
X71937676Y-135290228D01*
X71937681Y-135290237D01*
X72041697Y-135445907D01*
X72041700Y-135445911D01*
X72174088Y-135578299D01*
X72174092Y-135578302D01*
X72329762Y-135682318D01*
X72329768Y-135682321D01*
X72329769Y-135682322D01*
X72502749Y-135753973D01*
X72642470Y-135781765D01*
X72686379Y-135790499D01*
X72686383Y-135790500D01*
X72686384Y-135790500D01*
X72873617Y-135790500D01*
X72873618Y-135790499D01*
X73057251Y-135753973D01*
X73230231Y-135682322D01*
X73385908Y-135578302D01*
X73518302Y-135445908D01*
X73622322Y-135290231D01*
X73693973Y-135117251D01*
X73730500Y-134933616D01*
X73730500Y-134746384D01*
X73730499Y-134746379D01*
X74369500Y-134746379D01*
X74369500Y-134933620D01*
X74406025Y-135117243D01*
X74406027Y-135117251D01*
X74477676Y-135290228D01*
X74477681Y-135290237D01*
X74581697Y-135445907D01*
X74581700Y-135445911D01*
X74714088Y-135578299D01*
X74714092Y-135578302D01*
X74869762Y-135682318D01*
X74869768Y-135682321D01*
X74869769Y-135682322D01*
X75042749Y-135753973D01*
X75182470Y-135781765D01*
X75226379Y-135790499D01*
X75226383Y-135790500D01*
X75226384Y-135790500D01*
X75413617Y-135790500D01*
X75413618Y-135790499D01*
X75597251Y-135753973D01*
X75770231Y-135682322D01*
X75925908Y-135578302D01*
X76058302Y-135445908D01*
X76162322Y-135290231D01*
X76233973Y-135117251D01*
X76270500Y-134933616D01*
X76270500Y-134746384D01*
X76270499Y-134746379D01*
X76909500Y-134746379D01*
X76909500Y-134933620D01*
X76946025Y-135117243D01*
X76946027Y-135117251D01*
X77017676Y-135290228D01*
X77017681Y-135290237D01*
X77121697Y-135445907D01*
X77121700Y-135445911D01*
X77254088Y-135578299D01*
X77254092Y-135578302D01*
X77409762Y-135682318D01*
X77409768Y-135682321D01*
X77409769Y-135682322D01*
X77582749Y-135753973D01*
X77722470Y-135781765D01*
X77766379Y-135790499D01*
X77766383Y-135790500D01*
X77766384Y-135790500D01*
X77953617Y-135790500D01*
X77953618Y-135790499D01*
X78137251Y-135753973D01*
X78310231Y-135682322D01*
X78465908Y-135578302D01*
X78598302Y-135445908D01*
X78702322Y-135290231D01*
X78773973Y-135117251D01*
X78810500Y-134933616D01*
X78810500Y-134746384D01*
X78810499Y-134746379D01*
X79449500Y-134746379D01*
X79449500Y-134933620D01*
X79486025Y-135117243D01*
X79486027Y-135117251D01*
X79557676Y-135290228D01*
X79557681Y-135290237D01*
X79661697Y-135445907D01*
X79661700Y-135445911D01*
X79794088Y-135578299D01*
X79794092Y-135578302D01*
X79949762Y-135682318D01*
X79949768Y-135682321D01*
X79949769Y-135682322D01*
X80122749Y-135753973D01*
X80262470Y-135781765D01*
X80306379Y-135790499D01*
X80306383Y-135790500D01*
X80306384Y-135790500D01*
X80493617Y-135790500D01*
X80493618Y-135790499D01*
X80677251Y-135753973D01*
X80850231Y-135682322D01*
X81005908Y-135578302D01*
X81138302Y-135445908D01*
X81242322Y-135290231D01*
X81313973Y-135117251D01*
X81350500Y-134933616D01*
X81350500Y-134746384D01*
X81350499Y-134746379D01*
X81989500Y-134746379D01*
X81989500Y-134933620D01*
X82026025Y-135117243D01*
X82026027Y-135117251D01*
X82097676Y-135290228D01*
X82097681Y-135290237D01*
X82201697Y-135445907D01*
X82201700Y-135445911D01*
X82334088Y-135578299D01*
X82334092Y-135578302D01*
X82489762Y-135682318D01*
X82489768Y-135682321D01*
X82489769Y-135682322D01*
X82662749Y-135753973D01*
X82802470Y-135781765D01*
X82846379Y-135790499D01*
X82846383Y-135790500D01*
X82846384Y-135790500D01*
X83033617Y-135790500D01*
X83033618Y-135790499D01*
X83217251Y-135753973D01*
X83390231Y-135682322D01*
X83545908Y-135578302D01*
X83678302Y-135445908D01*
X83782322Y-135290231D01*
X83853973Y-135117251D01*
X83890500Y-134933616D01*
X83890500Y-134746384D01*
X83854654Y-134566172D01*
X87107500Y-134566172D01*
X87107500Y-136783827D01*
X87110438Y-136809150D01*
X87110438Y-136809152D01*
X87147467Y-136893013D01*
X87156180Y-136912745D01*
X87236255Y-136992820D01*
X87339850Y-137038562D01*
X87365174Y-137041500D01*
X87365175Y-137041500D01*
X88674825Y-137041500D01*
X88674826Y-137041500D01*
X88700150Y-137038562D01*
X88803745Y-136992820D01*
X88883820Y-136912745D01*
X88929562Y-136809150D01*
X88932500Y-136783826D01*
X88932500Y-134566174D01*
X88932500Y-134566172D01*
X89647500Y-134566172D01*
X89647500Y-136783827D01*
X89650438Y-136809150D01*
X89650438Y-136809152D01*
X89687467Y-136893013D01*
X89696180Y-136912745D01*
X89776255Y-136992820D01*
X89879850Y-137038562D01*
X89905174Y-137041500D01*
X89905175Y-137041500D01*
X91214825Y-137041500D01*
X91214826Y-137041500D01*
X91240150Y-137038562D01*
X91343745Y-136992820D01*
X91423820Y-136912745D01*
X91469562Y-136809150D01*
X91472500Y-136783826D01*
X91472500Y-134566174D01*
X91472500Y-134566172D01*
X92187500Y-134566172D01*
X92187500Y-136783827D01*
X92190438Y-136809150D01*
X92190438Y-136809152D01*
X92227467Y-136893013D01*
X92236180Y-136912745D01*
X92316255Y-136992820D01*
X92419850Y-137038562D01*
X92445174Y-137041500D01*
X92445175Y-137041500D01*
X93754825Y-137041500D01*
X93754826Y-137041500D01*
X93780150Y-137038562D01*
X93883745Y-136992820D01*
X93963820Y-136912745D01*
X94009562Y-136809150D01*
X94012500Y-136783826D01*
X94012500Y-134566174D01*
X94012500Y-134566172D01*
X94727500Y-134566172D01*
X94727500Y-136783827D01*
X94730438Y-136809150D01*
X94730438Y-136809152D01*
X94767467Y-136893013D01*
X94776180Y-136912745D01*
X94856255Y-136992820D01*
X94959850Y-137038562D01*
X94985174Y-137041500D01*
X94985175Y-137041500D01*
X96294825Y-137041500D01*
X96294826Y-137041500D01*
X96320150Y-137038562D01*
X96423745Y-136992820D01*
X96503820Y-136912745D01*
X96549562Y-136809150D01*
X96552500Y-136783826D01*
X96552500Y-134566174D01*
X96552500Y-134566172D01*
X97267500Y-134566172D01*
X97267500Y-136783827D01*
X97270438Y-136809150D01*
X97270438Y-136809152D01*
X97307467Y-136893013D01*
X97316180Y-136912745D01*
X97396255Y-136992820D01*
X97499850Y-137038562D01*
X97525174Y-137041500D01*
X97525175Y-137041500D01*
X98834825Y-137041500D01*
X98834826Y-137041500D01*
X98860150Y-137038562D01*
X98963745Y-136992820D01*
X99043820Y-136912745D01*
X99089562Y-136809150D01*
X99092500Y-136783826D01*
X99092500Y-136583446D01*
X99458000Y-136583446D01*
X100366447Y-135675000D01*
X100366447Y-135674999D01*
X101073553Y-135674999D01*
X101073553Y-135675000D01*
X101981998Y-136583446D01*
X101981999Y-136583445D01*
X101981999Y-134945456D01*
X101982000Y-134945435D01*
X101982000Y-134766553D01*
X101981999Y-134766552D01*
X101073553Y-135674999D01*
X100366447Y-135674999D01*
X99458000Y-134766552D01*
X99458000Y-136583446D01*
X99092500Y-136583446D01*
X99092500Y-134566174D01*
X99089562Y-134540850D01*
X99043820Y-134437255D01*
X98963745Y-134357180D01*
X98955620Y-134349055D01*
X98955827Y-134348847D01*
X98954966Y-134347946D01*
X98938474Y-134332258D01*
X98936164Y-134329223D01*
X98888785Y-134258315D01*
X98861179Y-134230709D01*
X98861176Y-134230705D01*
X98830778Y-134200307D01*
X99598860Y-134200307D01*
X100275500Y-134876947D01*
X100275500Y-134898520D01*
X100305792Y-135011571D01*
X100364311Y-135112930D01*
X100447070Y-135195689D01*
X100548429Y-135254208D01*
X100661480Y-135284500D01*
X100683053Y-135284500D01*
X100720000Y-135321447D01*
X100720001Y-135321447D01*
X100756948Y-135284500D01*
X100778520Y-135284500D01*
X100891571Y-135254208D01*
X100992930Y-135195689D01*
X101075689Y-135112930D01*
X101134208Y-135011571D01*
X101164500Y-134898520D01*
X101164500Y-134876947D01*
X101475275Y-134566172D01*
X102347500Y-134566172D01*
X102347500Y-136783827D01*
X102350438Y-136809150D01*
X102350438Y-136809152D01*
X102387467Y-136893013D01*
X102396180Y-136912745D01*
X102476255Y-136992820D01*
X102579850Y-137038562D01*
X102605174Y-137041500D01*
X102605175Y-137041500D01*
X103914825Y-137041500D01*
X103914826Y-137041500D01*
X103940150Y-137038562D01*
X104043745Y-136992820D01*
X104123820Y-136912745D01*
X104169562Y-136809150D01*
X104172500Y-136783826D01*
X104172500Y-134566174D01*
X104169562Y-134540850D01*
X104123820Y-134437255D01*
X104043745Y-134357180D01*
X104035620Y-134349055D01*
X104036205Y-134348469D01*
X104014040Y-134326045D01*
X103968783Y-134258312D01*
X103841688Y-134131217D01*
X103841684Y-134131214D01*
X103692237Y-134031356D01*
X103692224Y-134031349D01*
X103526170Y-133962568D01*
X103526158Y-133962565D01*
X103349876Y-133927500D01*
X103349873Y-133927500D01*
X103170127Y-133927500D01*
X103170124Y-133927500D01*
X102993841Y-133962565D01*
X102993829Y-133962568D01*
X102827775Y-134031349D01*
X102827762Y-134031356D01*
X102678315Y-134131214D01*
X102678311Y-134131217D01*
X102551217Y-134258311D01*
X102505956Y-134326049D01*
X102483793Y-134348470D01*
X102484379Y-134349056D01*
X102396182Y-134437252D01*
X102396178Y-134437259D01*
X102350438Y-134540847D01*
X102350438Y-134540849D01*
X102347500Y-134566172D01*
X101475275Y-134566172D01*
X101566535Y-134474912D01*
X101841139Y-134200307D01*
X101777192Y-134136360D01*
X101777191Y-134136360D01*
X101157647Y-134755904D01*
X101134208Y-134668429D01*
X101075689Y-134567070D01*
X100992930Y-134484311D01*
X100891571Y-134425792D01*
X100804094Y-134402352D01*
X101418716Y-133787731D01*
X101418715Y-133787730D01*
X101381432Y-133760641D01*
X101204437Y-133670457D01*
X101015522Y-133609075D01*
X100819321Y-133578000D01*
X100620679Y-133578000D01*
X100424479Y-133609075D01*
X100424476Y-133609075D01*
X100235562Y-133670457D01*
X100058564Y-133760643D01*
X100021283Y-133787729D01*
X100021282Y-133787730D01*
X100635906Y-134402352D01*
X100548429Y-134425792D01*
X100447070Y-134484311D01*
X100364311Y-134567070D01*
X100305792Y-134668429D01*
X100282352Y-134755905D01*
X99662808Y-134136360D01*
X99662807Y-134136360D01*
X99598860Y-134200307D01*
X98830778Y-134200307D01*
X98761688Y-134131217D01*
X98761684Y-134131214D01*
X98612237Y-134031356D01*
X98612224Y-134031349D01*
X98446170Y-133962568D01*
X98446158Y-133962565D01*
X98416206Y-133956607D01*
X98269876Y-133927500D01*
X98269873Y-133927500D01*
X98090127Y-133927500D01*
X98090124Y-133927500D01*
X97913841Y-133962565D01*
X97913829Y-133962568D01*
X97747775Y-134031349D01*
X97747762Y-134031356D01*
X97598315Y-134131214D01*
X97598311Y-134131217D01*
X97471217Y-134258311D01*
X97425956Y-134326049D01*
X97403793Y-134348470D01*
X97404379Y-134349056D01*
X97316182Y-134437252D01*
X97316178Y-134437259D01*
X97270438Y-134540847D01*
X97270438Y-134540849D01*
X97267500Y-134566172D01*
X96552500Y-134566172D01*
X96549562Y-134540850D01*
X96503820Y-134437255D01*
X96423745Y-134357180D01*
X96415620Y-134349055D01*
X96416205Y-134348469D01*
X96394040Y-134326045D01*
X96348783Y-134258312D01*
X96221688Y-134131217D01*
X96221684Y-134131214D01*
X96072237Y-134031356D01*
X96072224Y-134031349D01*
X95906170Y-133962568D01*
X95906158Y-133962565D01*
X95729876Y-133927500D01*
X95729873Y-133927500D01*
X95550127Y-133927500D01*
X95550124Y-133927500D01*
X95373841Y-133962565D01*
X95373829Y-133962568D01*
X95207775Y-134031349D01*
X95207762Y-134031356D01*
X95058315Y-134131214D01*
X95058311Y-134131217D01*
X94931217Y-134258311D01*
X94885956Y-134326049D01*
X94863793Y-134348470D01*
X94864379Y-134349056D01*
X94776182Y-134437252D01*
X94776178Y-134437259D01*
X94730438Y-134540847D01*
X94730438Y-134540849D01*
X94727500Y-134566172D01*
X94012500Y-134566172D01*
X94009562Y-134540850D01*
X93963820Y-134437255D01*
X93883745Y-134357180D01*
X93875620Y-134349055D01*
X93876205Y-134348469D01*
X93854040Y-134326045D01*
X93808783Y-134258312D01*
X93681688Y-134131217D01*
X93681684Y-134131214D01*
X93532237Y-134031356D01*
X93532224Y-134031349D01*
X93366170Y-133962568D01*
X93366158Y-133962565D01*
X93189876Y-133927500D01*
X93189873Y-133927500D01*
X93010127Y-133927500D01*
X93010124Y-133927500D01*
X92833841Y-133962565D01*
X92833829Y-133962568D01*
X92667775Y-134031349D01*
X92667762Y-134031356D01*
X92518315Y-134131214D01*
X92518311Y-134131217D01*
X92391217Y-134258311D01*
X92345956Y-134326049D01*
X92323793Y-134348470D01*
X92324379Y-134349056D01*
X92236182Y-134437252D01*
X92236178Y-134437259D01*
X92190438Y-134540847D01*
X92190438Y-134540849D01*
X92187500Y-134566172D01*
X91472500Y-134566172D01*
X91469562Y-134540850D01*
X91423820Y-134437255D01*
X91343745Y-134357180D01*
X91335620Y-134349055D01*
X91336205Y-134348469D01*
X91314040Y-134326045D01*
X91268783Y-134258312D01*
X91141688Y-134131217D01*
X91141684Y-134131214D01*
X90992237Y-134031356D01*
X90992224Y-134031349D01*
X90826170Y-133962568D01*
X90826158Y-133962565D01*
X90649876Y-133927500D01*
X90649873Y-133927500D01*
X90470127Y-133927500D01*
X90470124Y-133927500D01*
X90293841Y-133962565D01*
X90293829Y-133962568D01*
X90127775Y-134031349D01*
X90127762Y-134031356D01*
X89978315Y-134131214D01*
X89978311Y-134131217D01*
X89851217Y-134258311D01*
X89805956Y-134326049D01*
X89783793Y-134348470D01*
X89784379Y-134349056D01*
X89696182Y-134437252D01*
X89696178Y-134437259D01*
X89650438Y-134540847D01*
X89650438Y-134540849D01*
X89647500Y-134566172D01*
X88932500Y-134566172D01*
X88929562Y-134540850D01*
X88883820Y-134437255D01*
X88803745Y-134357180D01*
X88795620Y-134349055D01*
X88796205Y-134348469D01*
X88774040Y-134326045D01*
X88728783Y-134258312D01*
X88601688Y-134131217D01*
X88601684Y-134131214D01*
X88452237Y-134031356D01*
X88452224Y-134031349D01*
X88286170Y-133962568D01*
X88286158Y-133962565D01*
X88109876Y-133927500D01*
X88109873Y-133927500D01*
X87930127Y-133927500D01*
X87930124Y-133927500D01*
X87753841Y-133962565D01*
X87753829Y-133962568D01*
X87587775Y-134031349D01*
X87587762Y-134031356D01*
X87438315Y-134131214D01*
X87438311Y-134131217D01*
X87311217Y-134258311D01*
X87265956Y-134326049D01*
X87243793Y-134348470D01*
X87244379Y-134349056D01*
X87156182Y-134437252D01*
X87156178Y-134437259D01*
X87110438Y-134540847D01*
X87110438Y-134540849D01*
X87107500Y-134566172D01*
X83854654Y-134566172D01*
X83853973Y-134562749D01*
X83782322Y-134389769D01*
X83782321Y-134389768D01*
X83782318Y-134389762D01*
X83678302Y-134234092D01*
X83678299Y-134234088D01*
X83545911Y-134101700D01*
X83545907Y-134101697D01*
X83390237Y-133997681D01*
X83390228Y-133997676D01*
X83217251Y-133926027D01*
X83217243Y-133926025D01*
X83033620Y-133889500D01*
X83033616Y-133889500D01*
X82846384Y-133889500D01*
X82846379Y-133889500D01*
X82662756Y-133926025D01*
X82662748Y-133926027D01*
X82489771Y-133997676D01*
X82489762Y-133997681D01*
X82334092Y-134101697D01*
X82334088Y-134101700D01*
X82201700Y-134234088D01*
X82201697Y-134234092D01*
X82097681Y-134389762D01*
X82097676Y-134389771D01*
X82026027Y-134562748D01*
X82026025Y-134562756D01*
X81989500Y-134746379D01*
X81350499Y-134746379D01*
X81313973Y-134562749D01*
X81242322Y-134389769D01*
X81242321Y-134389768D01*
X81242318Y-134389762D01*
X81138302Y-134234092D01*
X81138299Y-134234088D01*
X81005911Y-134101700D01*
X81005907Y-134101697D01*
X80850237Y-133997681D01*
X80850228Y-133997676D01*
X80677251Y-133926027D01*
X80677243Y-133926025D01*
X80493620Y-133889500D01*
X80493616Y-133889500D01*
X80306384Y-133889500D01*
X80306379Y-133889500D01*
X80122756Y-133926025D01*
X80122748Y-133926027D01*
X79949771Y-133997676D01*
X79949762Y-133997681D01*
X79794092Y-134101697D01*
X79794088Y-134101700D01*
X79661700Y-134234088D01*
X79661697Y-134234092D01*
X79557681Y-134389762D01*
X79557676Y-134389771D01*
X79486027Y-134562748D01*
X79486025Y-134562756D01*
X79449500Y-134746379D01*
X78810499Y-134746379D01*
X78773973Y-134562749D01*
X78702322Y-134389769D01*
X78702321Y-134389768D01*
X78702318Y-134389762D01*
X78598302Y-134234092D01*
X78598299Y-134234088D01*
X78465911Y-134101700D01*
X78465907Y-134101697D01*
X78310237Y-133997681D01*
X78310228Y-133997676D01*
X78137251Y-133926027D01*
X78137243Y-133926025D01*
X77953620Y-133889500D01*
X77953616Y-133889500D01*
X77766384Y-133889500D01*
X77766379Y-133889500D01*
X77582756Y-133926025D01*
X77582748Y-133926027D01*
X77409771Y-133997676D01*
X77409762Y-133997681D01*
X77254092Y-134101697D01*
X77254088Y-134101700D01*
X77121700Y-134234088D01*
X77121697Y-134234092D01*
X77017681Y-134389762D01*
X77017676Y-134389771D01*
X76946027Y-134562748D01*
X76946025Y-134562756D01*
X76909500Y-134746379D01*
X76270499Y-134746379D01*
X76233973Y-134562749D01*
X76162322Y-134389769D01*
X76162321Y-134389768D01*
X76162318Y-134389762D01*
X76058302Y-134234092D01*
X76058299Y-134234088D01*
X75925911Y-134101700D01*
X75925907Y-134101697D01*
X75770237Y-133997681D01*
X75770228Y-133997676D01*
X75597251Y-133926027D01*
X75597243Y-133926025D01*
X75413620Y-133889500D01*
X75413616Y-133889500D01*
X75226384Y-133889500D01*
X75226379Y-133889500D01*
X75042756Y-133926025D01*
X75042748Y-133926027D01*
X74869771Y-133997676D01*
X74869762Y-133997681D01*
X74714092Y-134101697D01*
X74714088Y-134101700D01*
X74581700Y-134234088D01*
X74581697Y-134234092D01*
X74477681Y-134389762D01*
X74477676Y-134389771D01*
X74406027Y-134562748D01*
X74406025Y-134562756D01*
X74369500Y-134746379D01*
X73730499Y-134746379D01*
X73693973Y-134562749D01*
X73622322Y-134389769D01*
X73622321Y-134389768D01*
X73622318Y-134389762D01*
X73518302Y-134234092D01*
X73518299Y-134234088D01*
X73385911Y-134101700D01*
X73385907Y-134101697D01*
X73230237Y-133997681D01*
X73230228Y-133997676D01*
X73057251Y-133926027D01*
X73057243Y-133926025D01*
X72873620Y-133889500D01*
X72873616Y-133889500D01*
X72686384Y-133889500D01*
X72686379Y-133889500D01*
X72502756Y-133926025D01*
X72502748Y-133926027D01*
X72329771Y-133997676D01*
X72329762Y-133997681D01*
X72174092Y-134101697D01*
X72174088Y-134101700D01*
X72041700Y-134234088D01*
X72041697Y-134234092D01*
X71937681Y-134389762D01*
X71937676Y-134389771D01*
X71866027Y-134562748D01*
X71866025Y-134562756D01*
X71829500Y-134746379D01*
X71190499Y-134746379D01*
X71153973Y-134562749D01*
X71082322Y-134389769D01*
X71082321Y-134389768D01*
X71082318Y-134389762D01*
X70978302Y-134234092D01*
X70978299Y-134234088D01*
X70845911Y-134101700D01*
X70845907Y-134101697D01*
X70695609Y-134001271D01*
X70650804Y-133947659D01*
X70640500Y-133898169D01*
X70640500Y-131247255D01*
X70660185Y-131180216D01*
X70676819Y-131159574D01*
X72274574Y-129561819D01*
X72335897Y-129528334D01*
X72362255Y-129525500D01*
X97597725Y-129525500D01*
X97597727Y-129525500D01*
X97699588Y-129498207D01*
X97790913Y-129445480D01*
X103495703Y-123740687D01*
X103495708Y-123740684D01*
X103505911Y-123730480D01*
X103505913Y-123730480D01*
X103580480Y-123655913D01*
X103633207Y-123564587D01*
X103660501Y-123462726D01*
X103660501Y-123357273D01*
X103660501Y-123349678D01*
X103660500Y-123349660D01*
X103660500Y-120496128D01*
X103680185Y-120429089D01*
X103715610Y-120393026D01*
X103779748Y-120350169D01*
X103841685Y-120308785D01*
X103968785Y-120181685D01*
X104014041Y-120113951D01*
X104036205Y-120091532D01*
X104035619Y-120090946D01*
X104060640Y-120065925D01*
X104123820Y-120002745D01*
X104169562Y-119899150D01*
X104172500Y-119873826D01*
X104172500Y-117656174D01*
X104169562Y-117630850D01*
X104123820Y-117527255D01*
X104043745Y-117447180D01*
X104010597Y-117432543D01*
X103940151Y-117401438D01*
X103914827Y-117398500D01*
X103914826Y-117398500D01*
X102605174Y-117398500D01*
X102605172Y-117398500D01*
X102579849Y-117401438D01*
X102579847Y-117401438D01*
X102476259Y-117447178D01*
X102476257Y-117447179D01*
X102476255Y-117447180D01*
X102476254Y-117447180D01*
X102476252Y-117447182D01*
X102396182Y-117527252D01*
X102396178Y-117527259D01*
X102350438Y-117630847D01*
X102350438Y-117630849D01*
X102347500Y-117656172D01*
X102347500Y-119873827D01*
X102350438Y-119899150D01*
X102350438Y-119899152D01*
X102373111Y-119950500D01*
X102396180Y-120002745D01*
X102459360Y-120065925D01*
X102484381Y-120090946D01*
X102483793Y-120091533D01*
X102505958Y-120113954D01*
X102551211Y-120181680D01*
X102551217Y-120181688D01*
X102678311Y-120308782D01*
X102678319Y-120308788D01*
X102804390Y-120393026D01*
X102849196Y-120446638D01*
X102859500Y-120496128D01*
X102859500Y-123192745D01*
X102839815Y-123259784D01*
X102823181Y-123280426D01*
X97415426Y-128688181D01*
X97354103Y-128721666D01*
X97327745Y-128724500D01*
X72092273Y-128724500D01*
X71990410Y-128751793D01*
X71899087Y-128804520D01*
X71899084Y-128804522D01*
X69919522Y-130784084D01*
X69919518Y-130784090D01*
X69866792Y-130875412D01*
X69866793Y-130875413D01*
X69839500Y-130977273D01*
X69839500Y-133898169D01*
X69819815Y-133965208D01*
X69784391Y-134001271D01*
X69634092Y-134101697D01*
X69634088Y-134101700D01*
X69501700Y-134234088D01*
X69501697Y-134234092D01*
X69397681Y-134389762D01*
X69397676Y-134389771D01*
X69326027Y-134562748D01*
X69326025Y-134562756D01*
X69289500Y-134746379D01*
X68650499Y-134746379D01*
X68613973Y-134562749D01*
X68542322Y-134389769D01*
X68542321Y-134389768D01*
X68542318Y-134389762D01*
X68438302Y-134234092D01*
X68438299Y-134234088D01*
X68305911Y-134101700D01*
X68305907Y-134101697D01*
X68155609Y-134001271D01*
X68110804Y-133947659D01*
X68100500Y-133898169D01*
X68100500Y-130993255D01*
X68120185Y-130926216D01*
X68136819Y-130905574D01*
X70750574Y-128291819D01*
X70811897Y-128258334D01*
X70838255Y-128255500D01*
X95565725Y-128255500D01*
X95565727Y-128255500D01*
X95667588Y-128228207D01*
X95758913Y-128175480D01*
X101040480Y-122893913D01*
X101093207Y-122802588D01*
X101120500Y-122700727D01*
X101120500Y-122595273D01*
X101120500Y-120496128D01*
X101140185Y-120429089D01*
X101175610Y-120393026D01*
X101239748Y-120350169D01*
X101301685Y-120308785D01*
X101428785Y-120181685D01*
X101474041Y-120113951D01*
X101496205Y-120091532D01*
X101495619Y-120090946D01*
X101520640Y-120065925D01*
X101583820Y-120002745D01*
X101629562Y-119899150D01*
X101632500Y-119873826D01*
X101632500Y-117656174D01*
X101629562Y-117630850D01*
X101583820Y-117527255D01*
X101503745Y-117447180D01*
X101470597Y-117432543D01*
X101400151Y-117401438D01*
X101374827Y-117398500D01*
X101374826Y-117398500D01*
X100065174Y-117398500D01*
X100065172Y-117398500D01*
X100039849Y-117401438D01*
X100039847Y-117401438D01*
X99936259Y-117447178D01*
X99936257Y-117447179D01*
X99936255Y-117447180D01*
X99936254Y-117447180D01*
X99936252Y-117447182D01*
X99856182Y-117527252D01*
X99856178Y-117527259D01*
X99810438Y-117630847D01*
X99810438Y-117630849D01*
X99807500Y-117656172D01*
X99807500Y-119873827D01*
X99810438Y-119899150D01*
X99810438Y-119899152D01*
X99833111Y-119950500D01*
X99856180Y-120002745D01*
X99919360Y-120065925D01*
X99944381Y-120090946D01*
X99943793Y-120091533D01*
X99965958Y-120113954D01*
X100011211Y-120181680D01*
X100011217Y-120181688D01*
X100138311Y-120308782D01*
X100138319Y-120308788D01*
X100264390Y-120393026D01*
X100309196Y-120446638D01*
X100319500Y-120496128D01*
X100319500Y-122430745D01*
X100299815Y-122497784D01*
X100283181Y-122518426D01*
X95383426Y-127418181D01*
X95322103Y-127451666D01*
X95295745Y-127454500D01*
X70568273Y-127454500D01*
X70466410Y-127481793D01*
X70375087Y-127534520D01*
X70375084Y-127534522D01*
X67379522Y-130530084D01*
X67379518Y-130530090D01*
X67326792Y-130621412D01*
X67326793Y-130621413D01*
X67299500Y-130723273D01*
X67299500Y-133898169D01*
X67279815Y-133965208D01*
X67244391Y-134001271D01*
X67094092Y-134101697D01*
X67094088Y-134101700D01*
X66961700Y-134234088D01*
X66961697Y-134234092D01*
X66857681Y-134389762D01*
X66857676Y-134389771D01*
X66786027Y-134562748D01*
X66786025Y-134562756D01*
X66749500Y-134746379D01*
X66110499Y-134746379D01*
X66073973Y-134562749D01*
X66002322Y-134389769D01*
X66002321Y-134389768D01*
X66002318Y-134389762D01*
X65898302Y-134234092D01*
X65898299Y-134234088D01*
X65765911Y-134101700D01*
X65765907Y-134101697D01*
X65615609Y-134001271D01*
X65570804Y-133947659D01*
X65560500Y-133898169D01*
X65560500Y-130612254D01*
X65580185Y-130545215D01*
X65596819Y-130524573D01*
X69099573Y-127021819D01*
X69160896Y-126988334D01*
X69187254Y-126985500D01*
X93787725Y-126985500D01*
X93787727Y-126985500D01*
X93889588Y-126958207D01*
X93980913Y-126905480D01*
X98500480Y-122385913D01*
X98553207Y-122294588D01*
X98580500Y-122192727D01*
X98580500Y-122087273D01*
X98580500Y-120496128D01*
X98600185Y-120429089D01*
X98635610Y-120393026D01*
X98699748Y-120350169D01*
X98761685Y-120308785D01*
X98888785Y-120181685D01*
X98934041Y-120113951D01*
X98956205Y-120091532D01*
X98955619Y-120090946D01*
X98980640Y-120065925D01*
X99043820Y-120002745D01*
X99089562Y-119899150D01*
X99092500Y-119873826D01*
X99092500Y-117656174D01*
X99089562Y-117630850D01*
X99043820Y-117527255D01*
X98963745Y-117447180D01*
X98930597Y-117432543D01*
X98860151Y-117401438D01*
X98834827Y-117398500D01*
X98834826Y-117398500D01*
X97525174Y-117398500D01*
X97525172Y-117398500D01*
X97499849Y-117401438D01*
X97499847Y-117401438D01*
X97396259Y-117447178D01*
X97396257Y-117447179D01*
X97396255Y-117447180D01*
X97396254Y-117447180D01*
X97396252Y-117447182D01*
X97316182Y-117527252D01*
X97316178Y-117527259D01*
X97270438Y-117630847D01*
X97270438Y-117630849D01*
X97267500Y-117656172D01*
X97267500Y-119873827D01*
X97270438Y-119899150D01*
X97270438Y-119899152D01*
X97293111Y-119950500D01*
X97316180Y-120002745D01*
X97379360Y-120065925D01*
X97404381Y-120090946D01*
X97403793Y-120091533D01*
X97425958Y-120113954D01*
X97471211Y-120181680D01*
X97471217Y-120181688D01*
X97598311Y-120308782D01*
X97598319Y-120308788D01*
X97724390Y-120393026D01*
X97769196Y-120446638D01*
X97779500Y-120496128D01*
X97779500Y-121922745D01*
X97759815Y-121989784D01*
X97743181Y-122010426D01*
X93605426Y-126148181D01*
X93544103Y-126181666D01*
X93517745Y-126184500D01*
X69030339Y-126184500D01*
X69030323Y-126184499D01*
X69022727Y-126184499D01*
X68917273Y-126184499D01*
X68849366Y-126202695D01*
X68815412Y-126211793D01*
X68724084Y-126264522D01*
X64839522Y-130149084D01*
X64839518Y-130149090D01*
X64786792Y-130240412D01*
X64786793Y-130240413D01*
X64759500Y-130342273D01*
X64759500Y-133898169D01*
X64739815Y-133965208D01*
X64704391Y-134001271D01*
X64554092Y-134101697D01*
X64554088Y-134101700D01*
X64421700Y-134234088D01*
X64421697Y-134234092D01*
X64317681Y-134389762D01*
X64317676Y-134389771D01*
X64246027Y-134562748D01*
X64246025Y-134562756D01*
X64209500Y-134746379D01*
X63570499Y-134746379D01*
X63533973Y-134562749D01*
X63462322Y-134389769D01*
X63462321Y-134389768D01*
X63462318Y-134389762D01*
X63358302Y-134234092D01*
X63358299Y-134234088D01*
X63225911Y-134101700D01*
X63225907Y-134101697D01*
X63075609Y-134001271D01*
X63030804Y-133947659D01*
X63020500Y-133898169D01*
X63020500Y-129977255D01*
X63040185Y-129910216D01*
X63056819Y-129889574D01*
X67194574Y-125751819D01*
X67255897Y-125718334D01*
X67282255Y-125715500D01*
X92517725Y-125715500D01*
X92517727Y-125715500D01*
X92619588Y-125688207D01*
X92710913Y-125635480D01*
X95960480Y-122385913D01*
X96013207Y-122294588D01*
X96040500Y-122192727D01*
X96040500Y-122087273D01*
X96040500Y-120496128D01*
X96060185Y-120429089D01*
X96095610Y-120393026D01*
X96159748Y-120350169D01*
X96221685Y-120308785D01*
X96348785Y-120181685D01*
X96394041Y-120113951D01*
X96416205Y-120091532D01*
X96415619Y-120090946D01*
X96440640Y-120065925D01*
X96503820Y-120002745D01*
X96549562Y-119899150D01*
X96552500Y-119873826D01*
X96552500Y-117656174D01*
X96549562Y-117630850D01*
X96503820Y-117527255D01*
X96423745Y-117447180D01*
X96390597Y-117432543D01*
X96320151Y-117401438D01*
X96294827Y-117398500D01*
X96294826Y-117398500D01*
X94985174Y-117398500D01*
X94985172Y-117398500D01*
X94959849Y-117401438D01*
X94959847Y-117401438D01*
X94856259Y-117447178D01*
X94856257Y-117447179D01*
X94856255Y-117447180D01*
X94856254Y-117447180D01*
X94856252Y-117447182D01*
X94776182Y-117527252D01*
X94776178Y-117527259D01*
X94730438Y-117630847D01*
X94730438Y-117630849D01*
X94727500Y-117656172D01*
X94727500Y-119873827D01*
X94730438Y-119899150D01*
X94730438Y-119899152D01*
X94753111Y-119950500D01*
X94776180Y-120002745D01*
X94839360Y-120065925D01*
X94864381Y-120090946D01*
X94863793Y-120091533D01*
X94885958Y-120113954D01*
X94931211Y-120181680D01*
X94931217Y-120181688D01*
X95058311Y-120308782D01*
X95058319Y-120308788D01*
X95184390Y-120393026D01*
X95229196Y-120446638D01*
X95239500Y-120496128D01*
X95239500Y-121922745D01*
X95219815Y-121989784D01*
X95203181Y-122010426D01*
X92335426Y-124878181D01*
X92274103Y-124911666D01*
X92247745Y-124914500D01*
X67012273Y-124914500D01*
X66910410Y-124941793D01*
X66819087Y-124994520D01*
X66819084Y-124994522D01*
X62299522Y-129514084D01*
X62299518Y-129514090D01*
X62246792Y-129605412D01*
X62246793Y-129605413D01*
X62219500Y-129707273D01*
X62219500Y-133898169D01*
X62199815Y-133965208D01*
X62164391Y-134001271D01*
X62014092Y-134101697D01*
X62014088Y-134101700D01*
X61881700Y-134234088D01*
X61881697Y-134234092D01*
X61777681Y-134389762D01*
X61777676Y-134389771D01*
X61706027Y-134562748D01*
X61706025Y-134562756D01*
X61669500Y-134746379D01*
X61030500Y-134746379D01*
X61030500Y-134025180D01*
X61030500Y-134025177D01*
X61021768Y-133981282D01*
X61021767Y-133981281D01*
X61021767Y-133981278D01*
X61005282Y-133956607D01*
X60988504Y-133931496D01*
X60988503Y-133931495D01*
X60938724Y-133898234D01*
X60938717Y-133898231D01*
X60894822Y-133889500D01*
X60894820Y-133889500D01*
X59265180Y-133889500D01*
X59265178Y-133889500D01*
X59221282Y-133898231D01*
X59221275Y-133898234D01*
X59171496Y-133931495D01*
X59171495Y-133931496D01*
X59138234Y-133981275D01*
X59138231Y-133981282D01*
X59129500Y-134025177D01*
X59129500Y-134025180D01*
X59129500Y-135654820D01*
X59129500Y-135654822D01*
X59129499Y-135654822D01*
X55075500Y-135654822D01*
X55075500Y-118702155D01*
X58730000Y-118702155D01*
X58730000Y-119350000D01*
X59646988Y-119350000D01*
X59614075Y-119407007D01*
X59580000Y-119534174D01*
X59580000Y-119665826D01*
X59614075Y-119792993D01*
X59646988Y-119850000D01*
X58730000Y-119850000D01*
X58730000Y-120497844D01*
X58736401Y-120557372D01*
X58736403Y-120557379D01*
X58786645Y-120692086D01*
X58786649Y-120692093D01*
X58872809Y-120807187D01*
X58872812Y-120807190D01*
X58987906Y-120893350D01*
X58987913Y-120893354D01*
X59122620Y-120943596D01*
X59122627Y-120943598D01*
X59182155Y-120949999D01*
X59182172Y-120950000D01*
X59830000Y-120950000D01*
X59830000Y-120033012D01*
X59887007Y-120065925D01*
X60014174Y-120100000D01*
X60145826Y-120100000D01*
X60272993Y-120065925D01*
X60330000Y-120033012D01*
X60330000Y-120950000D01*
X60977828Y-120950000D01*
X60977844Y-120949999D01*
X61037372Y-120943598D01*
X61037379Y-120943596D01*
X61172086Y-120893354D01*
X61172093Y-120893350D01*
X61287187Y-120807190D01*
X61287190Y-120807187D01*
X61373350Y-120692093D01*
X61373354Y-120692086D01*
X61423596Y-120557379D01*
X61423598Y-120557372D01*
X61429999Y-120497844D01*
X61430000Y-120497827D01*
X61430000Y-119964907D01*
X61449685Y-119897868D01*
X61502489Y-119852113D01*
X61571647Y-119842169D01*
X61635203Y-119871194D01*
X61668561Y-119917455D01*
X61733364Y-120073907D01*
X61733371Y-120073920D01*
X61842860Y-120237781D01*
X61842863Y-120237785D01*
X61982214Y-120377136D01*
X61982218Y-120377139D01*
X62146079Y-120486628D01*
X62146092Y-120486635D01*
X62328160Y-120562049D01*
X62328165Y-120562051D01*
X62328169Y-120562051D01*
X62328170Y-120562052D01*
X62521456Y-120600500D01*
X62521459Y-120600500D01*
X62718543Y-120600500D01*
X62848582Y-120574632D01*
X62911835Y-120562051D01*
X63066887Y-120497827D01*
X63093907Y-120486635D01*
X63093907Y-120486634D01*
X63093914Y-120486632D01*
X63257782Y-120377139D01*
X63397139Y-120237782D01*
X63506632Y-120073914D01*
X63582051Y-119891835D01*
X63620500Y-119698543D01*
X64159499Y-119698543D01*
X64197947Y-119891829D01*
X64197950Y-119891839D01*
X64273364Y-120073907D01*
X64273371Y-120073920D01*
X64382860Y-120237781D01*
X64382863Y-120237785D01*
X64522214Y-120377136D01*
X64522218Y-120377139D01*
X64686079Y-120486628D01*
X64686092Y-120486635D01*
X64868160Y-120562049D01*
X64868165Y-120562051D01*
X64868169Y-120562051D01*
X64868170Y-120562052D01*
X65061456Y-120600500D01*
X65061459Y-120600500D01*
X65258543Y-120600500D01*
X65388582Y-120574632D01*
X65451835Y-120562051D01*
X65606887Y-120497827D01*
X65633907Y-120486635D01*
X65633907Y-120486634D01*
X65633914Y-120486632D01*
X65797782Y-120377139D01*
X65937139Y-120237782D01*
X66046632Y-120073914D01*
X66122051Y-119891835D01*
X66160500Y-119698543D01*
X66699499Y-119698543D01*
X66737947Y-119891829D01*
X66737950Y-119891839D01*
X66813364Y-120073907D01*
X66813371Y-120073920D01*
X66922860Y-120237781D01*
X66922863Y-120237785D01*
X67062214Y-120377136D01*
X67062218Y-120377139D01*
X67226079Y-120486628D01*
X67226092Y-120486635D01*
X67408160Y-120562049D01*
X67408165Y-120562051D01*
X67408169Y-120562051D01*
X67408170Y-120562052D01*
X67601456Y-120600500D01*
X67601459Y-120600500D01*
X67798543Y-120600500D01*
X67928582Y-120574632D01*
X67991835Y-120562051D01*
X68146887Y-120497827D01*
X68173907Y-120486635D01*
X68173907Y-120486634D01*
X68173914Y-120486632D01*
X68337782Y-120377139D01*
X68477139Y-120237782D01*
X68586632Y-120073914D01*
X68662051Y-119891835D01*
X68700500Y-119698543D01*
X69239499Y-119698543D01*
X69277947Y-119891829D01*
X69277950Y-119891839D01*
X69353364Y-120073907D01*
X69353371Y-120073920D01*
X69462860Y-120237781D01*
X69462863Y-120237785D01*
X69602214Y-120377136D01*
X69602218Y-120377139D01*
X69766079Y-120486628D01*
X69766092Y-120486635D01*
X69948160Y-120562049D01*
X69948165Y-120562051D01*
X69948169Y-120562051D01*
X69948170Y-120562052D01*
X70141456Y-120600500D01*
X70141459Y-120600500D01*
X70338543Y-120600500D01*
X70468582Y-120574632D01*
X70531835Y-120562051D01*
X70686887Y-120497827D01*
X70713907Y-120486635D01*
X70713907Y-120486634D01*
X70713914Y-120486632D01*
X70877782Y-120377139D01*
X71017139Y-120237782D01*
X71126632Y-120073914D01*
X71202051Y-119891835D01*
X71240500Y-119698543D01*
X71779499Y-119698543D01*
X71817947Y-119891829D01*
X71817950Y-119891839D01*
X71893364Y-120073907D01*
X71893371Y-120073920D01*
X72002860Y-120237781D01*
X72002863Y-120237785D01*
X72142214Y-120377136D01*
X72142218Y-120377139D01*
X72306079Y-120486628D01*
X72306092Y-120486635D01*
X72488160Y-120562049D01*
X72488165Y-120562051D01*
X72488169Y-120562051D01*
X72488170Y-120562052D01*
X72681456Y-120600500D01*
X72681459Y-120600500D01*
X72878543Y-120600500D01*
X73008582Y-120574632D01*
X73071835Y-120562051D01*
X73226887Y-120497827D01*
X73253907Y-120486635D01*
X73253907Y-120486634D01*
X73253914Y-120486632D01*
X73417782Y-120377139D01*
X73557139Y-120237782D01*
X73666632Y-120073914D01*
X73742051Y-119891835D01*
X73780500Y-119698543D01*
X74319499Y-119698543D01*
X74357947Y-119891829D01*
X74357950Y-119891839D01*
X74433364Y-120073907D01*
X74433371Y-120073920D01*
X74542860Y-120237781D01*
X74542863Y-120237785D01*
X74682214Y-120377136D01*
X74682218Y-120377139D01*
X74846079Y-120486628D01*
X74846092Y-120486635D01*
X75028160Y-120562049D01*
X75028165Y-120562051D01*
X75028169Y-120562051D01*
X75028170Y-120562052D01*
X75221456Y-120600500D01*
X75221459Y-120600500D01*
X75418543Y-120600500D01*
X75548582Y-120574632D01*
X75611835Y-120562051D01*
X75766887Y-120497827D01*
X75793907Y-120486635D01*
X75793907Y-120486634D01*
X75793914Y-120486632D01*
X75957782Y-120377139D01*
X76097139Y-120237782D01*
X76206632Y-120073914D01*
X76282051Y-119891835D01*
X76320500Y-119698543D01*
X76859499Y-119698543D01*
X76897947Y-119891829D01*
X76897950Y-119891839D01*
X76973364Y-120073907D01*
X76973371Y-120073920D01*
X77082860Y-120237781D01*
X77082863Y-120237785D01*
X77222214Y-120377136D01*
X77222218Y-120377139D01*
X77386079Y-120486628D01*
X77386092Y-120486635D01*
X77568160Y-120562049D01*
X77568165Y-120562051D01*
X77568169Y-120562051D01*
X77568170Y-120562052D01*
X77761456Y-120600500D01*
X77761459Y-120600500D01*
X77958543Y-120600500D01*
X78088582Y-120574632D01*
X78151835Y-120562051D01*
X78306887Y-120497827D01*
X78333907Y-120486635D01*
X78333907Y-120486634D01*
X78333914Y-120486632D01*
X78497782Y-120377139D01*
X78637139Y-120237782D01*
X78746632Y-120073914D01*
X78766044Y-120027046D01*
X78809884Y-119972645D01*
X78876178Y-119950579D01*
X78880605Y-119950500D01*
X87055030Y-119950500D01*
X87122069Y-119970185D01*
X87147650Y-119995025D01*
X87148055Y-119994621D01*
X87244380Y-120090946D01*
X87243793Y-120091532D01*
X87265958Y-120113954D01*
X87311211Y-120181680D01*
X87311217Y-120181688D01*
X87438311Y-120308782D01*
X87438315Y-120308785D01*
X87587762Y-120408643D01*
X87587775Y-120408650D01*
X87753829Y-120477431D01*
X87753834Y-120477433D01*
X87856447Y-120497844D01*
X87930122Y-120512499D01*
X87930125Y-120512500D01*
X87930127Y-120512500D01*
X88109875Y-120512500D01*
X88109876Y-120512499D01*
X88286166Y-120477433D01*
X88452231Y-120408647D01*
X88601685Y-120308785D01*
X88728785Y-120181685D01*
X88774041Y-120113951D01*
X88796205Y-120091532D01*
X88795619Y-120090946D01*
X88820640Y-120065925D01*
X88883820Y-120002745D01*
X88929562Y-119899150D01*
X88932500Y-119873826D01*
X88932500Y-117656174D01*
X88932500Y-117656172D01*
X89647500Y-117656172D01*
X89647500Y-119873827D01*
X89650438Y-119899150D01*
X89650438Y-119899152D01*
X89673111Y-119950500D01*
X89696180Y-120002745D01*
X89759360Y-120065925D01*
X89784381Y-120090946D01*
X89783793Y-120091533D01*
X89805958Y-120113954D01*
X89851211Y-120181680D01*
X89851217Y-120181688D01*
X89978311Y-120308782D01*
X89978315Y-120308785D01*
X90127762Y-120408643D01*
X90127775Y-120408650D01*
X90293829Y-120477431D01*
X90293834Y-120477433D01*
X90396447Y-120497844D01*
X90470122Y-120512499D01*
X90470125Y-120512500D01*
X90470127Y-120512500D01*
X90649875Y-120512500D01*
X90649876Y-120512499D01*
X90826166Y-120477433D01*
X90992231Y-120408647D01*
X91141685Y-120308785D01*
X91268785Y-120181685D01*
X91314041Y-120113951D01*
X91336205Y-120091532D01*
X91335619Y-120090946D01*
X91360640Y-120065925D01*
X91423820Y-120002745D01*
X91469562Y-119899150D01*
X91472500Y-119873826D01*
X91472500Y-117656174D01*
X91472500Y-117656172D01*
X92187500Y-117656172D01*
X92187500Y-119873827D01*
X92190438Y-119899150D01*
X92190438Y-119899152D01*
X92213111Y-119950500D01*
X92236180Y-120002745D01*
X92299360Y-120065925D01*
X92324381Y-120090946D01*
X92323793Y-120091533D01*
X92345958Y-120113954D01*
X92391211Y-120181680D01*
X92391217Y-120181688D01*
X92518311Y-120308782D01*
X92518315Y-120308785D01*
X92667762Y-120408643D01*
X92667775Y-120408650D01*
X92833829Y-120477431D01*
X92833834Y-120477433D01*
X92936447Y-120497844D01*
X93010122Y-120512499D01*
X93010125Y-120512500D01*
X93010127Y-120512500D01*
X93189875Y-120512500D01*
X93189876Y-120512499D01*
X93366166Y-120477433D01*
X93532231Y-120408647D01*
X93681685Y-120308785D01*
X93808785Y-120181685D01*
X93854041Y-120113951D01*
X93876205Y-120091532D01*
X93875619Y-120090946D01*
X93900640Y-120065925D01*
X93963820Y-120002745D01*
X94009562Y-119899150D01*
X94012500Y-119873826D01*
X94012500Y-117656174D01*
X94009562Y-117630850D01*
X93963820Y-117527255D01*
X93883745Y-117447180D01*
X93850597Y-117432543D01*
X93780151Y-117401438D01*
X93754827Y-117398500D01*
X93754826Y-117398500D01*
X92445174Y-117398500D01*
X92445172Y-117398500D01*
X92419849Y-117401438D01*
X92419847Y-117401438D01*
X92316259Y-117447178D01*
X92316257Y-117447179D01*
X92316255Y-117447180D01*
X92316254Y-117447180D01*
X92316252Y-117447182D01*
X92236182Y-117527252D01*
X92236178Y-117527259D01*
X92190438Y-117630847D01*
X92190438Y-117630849D01*
X92187500Y-117656172D01*
X91472500Y-117656172D01*
X91469562Y-117630850D01*
X91423820Y-117527255D01*
X91343745Y-117447180D01*
X91310597Y-117432543D01*
X91240151Y-117401438D01*
X91214827Y-117398500D01*
X91214826Y-117398500D01*
X89905174Y-117398500D01*
X89905172Y-117398500D01*
X89879849Y-117401438D01*
X89879847Y-117401438D01*
X89776259Y-117447178D01*
X89776257Y-117447179D01*
X89776255Y-117447180D01*
X89776254Y-117447180D01*
X89776252Y-117447182D01*
X89696182Y-117527252D01*
X89696178Y-117527259D01*
X89650438Y-117630847D01*
X89650438Y-117630849D01*
X89647500Y-117656172D01*
X88932500Y-117656172D01*
X88929562Y-117630850D01*
X88883820Y-117527255D01*
X88803745Y-117447180D01*
X88770597Y-117432543D01*
X88700151Y-117401438D01*
X88674827Y-117398500D01*
X88674826Y-117398500D01*
X87365174Y-117398500D01*
X87365172Y-117398500D01*
X87339849Y-117401438D01*
X87339847Y-117401438D01*
X87236259Y-117447178D01*
X87236257Y-117447179D01*
X87236255Y-117447180D01*
X87236254Y-117447180D01*
X87236252Y-117447182D01*
X87156182Y-117527252D01*
X87156178Y-117527259D01*
X87110438Y-117630847D01*
X87110438Y-117630849D01*
X87107500Y-117656172D01*
X87107500Y-119125500D01*
X87087815Y-119192539D01*
X87035011Y-119238294D01*
X86983500Y-119249500D01*
X78880605Y-119249500D01*
X78813566Y-119229815D01*
X78767811Y-119177011D01*
X78766060Y-119172990D01*
X78746632Y-119126086D01*
X78729202Y-119100000D01*
X78637139Y-118962217D01*
X78497785Y-118822863D01*
X78497781Y-118822860D01*
X78333920Y-118713371D01*
X78333907Y-118713364D01*
X78151839Y-118637950D01*
X78151829Y-118637947D01*
X77958543Y-118599500D01*
X77958541Y-118599500D01*
X77761459Y-118599500D01*
X77761457Y-118599500D01*
X77568170Y-118637947D01*
X77568160Y-118637950D01*
X77386092Y-118713364D01*
X77386079Y-118713371D01*
X77222218Y-118822860D01*
X77222214Y-118822863D01*
X77082863Y-118962214D01*
X77082860Y-118962218D01*
X76973371Y-119126079D01*
X76973364Y-119126092D01*
X76897950Y-119308160D01*
X76897947Y-119308170D01*
X76859500Y-119501456D01*
X76859500Y-119501459D01*
X76859500Y-119698541D01*
X76859500Y-119698543D01*
X76859499Y-119698543D01*
X76320500Y-119698543D01*
X76320500Y-119698541D01*
X76320500Y-119501459D01*
X76320500Y-119501456D01*
X76282052Y-119308170D01*
X76282051Y-119308169D01*
X76282051Y-119308165D01*
X76271439Y-119282544D01*
X76206635Y-119126092D01*
X76206628Y-119126079D01*
X76097139Y-118962218D01*
X76097136Y-118962214D01*
X75957785Y-118822863D01*
X75957781Y-118822860D01*
X75793920Y-118713371D01*
X75793907Y-118713364D01*
X75611839Y-118637950D01*
X75611829Y-118637947D01*
X75418543Y-118599500D01*
X75418541Y-118599500D01*
X75221459Y-118599500D01*
X75221457Y-118599500D01*
X75028170Y-118637947D01*
X75028160Y-118637950D01*
X74846092Y-118713364D01*
X74846079Y-118713371D01*
X74682218Y-118822860D01*
X74682214Y-118822863D01*
X74542863Y-118962214D01*
X74542860Y-118962218D01*
X74433371Y-119126079D01*
X74433364Y-119126092D01*
X74357950Y-119308160D01*
X74357947Y-119308170D01*
X74319500Y-119501456D01*
X74319500Y-119501459D01*
X74319500Y-119698541D01*
X74319500Y-119698543D01*
X74319499Y-119698543D01*
X73780500Y-119698543D01*
X73780500Y-119698541D01*
X73780500Y-119501459D01*
X73780500Y-119501456D01*
X73742052Y-119308170D01*
X73742051Y-119308169D01*
X73742051Y-119308165D01*
X73731439Y-119282544D01*
X73666635Y-119126092D01*
X73666628Y-119126079D01*
X73557139Y-118962218D01*
X73557136Y-118962214D01*
X73417785Y-118822863D01*
X73417781Y-118822860D01*
X73253920Y-118713371D01*
X73253907Y-118713364D01*
X73071839Y-118637950D01*
X73071829Y-118637947D01*
X72878543Y-118599500D01*
X72878541Y-118599500D01*
X72681459Y-118599500D01*
X72681457Y-118599500D01*
X72488170Y-118637947D01*
X72488160Y-118637950D01*
X72306092Y-118713364D01*
X72306079Y-118713371D01*
X72142218Y-118822860D01*
X72142214Y-118822863D01*
X72002863Y-118962214D01*
X72002860Y-118962218D01*
X71893371Y-119126079D01*
X71893364Y-119126092D01*
X71817950Y-119308160D01*
X71817947Y-119308170D01*
X71779500Y-119501456D01*
X71779500Y-119501459D01*
X71779500Y-119698541D01*
X71779500Y-119698543D01*
X71779499Y-119698543D01*
X71240500Y-119698543D01*
X71240500Y-119698541D01*
X71240500Y-119501459D01*
X71240500Y-119501456D01*
X71202052Y-119308170D01*
X71202051Y-119308169D01*
X71202051Y-119308165D01*
X71191439Y-119282544D01*
X71126635Y-119126092D01*
X71126628Y-119126079D01*
X71017139Y-118962218D01*
X71017136Y-118962214D01*
X70877785Y-118822863D01*
X70877781Y-118822860D01*
X70713920Y-118713371D01*
X70713907Y-118713364D01*
X70531839Y-118637950D01*
X70531829Y-118637947D01*
X70338543Y-118599500D01*
X70338541Y-118599500D01*
X70141459Y-118599500D01*
X70141457Y-118599500D01*
X69948170Y-118637947D01*
X69948160Y-118637950D01*
X69766092Y-118713364D01*
X69766079Y-118713371D01*
X69602218Y-118822860D01*
X69602214Y-118822863D01*
X69462863Y-118962214D01*
X69462860Y-118962218D01*
X69353371Y-119126079D01*
X69353364Y-119126092D01*
X69277950Y-119308160D01*
X69277947Y-119308170D01*
X69239500Y-119501456D01*
X69239500Y-119501459D01*
X69239500Y-119698541D01*
X69239500Y-119698543D01*
X69239499Y-119698543D01*
X68700500Y-119698543D01*
X68700500Y-119698541D01*
X68700500Y-119501459D01*
X68700500Y-119501456D01*
X68662052Y-119308170D01*
X68662051Y-119308169D01*
X68662051Y-119308165D01*
X68651439Y-119282544D01*
X68586635Y-119126092D01*
X68586628Y-119126079D01*
X68477139Y-118962218D01*
X68477136Y-118962214D01*
X68337785Y-118822863D01*
X68337781Y-118822860D01*
X68173920Y-118713371D01*
X68173907Y-118713364D01*
X67991839Y-118637950D01*
X67991829Y-118637947D01*
X67798543Y-118599500D01*
X67798541Y-118599500D01*
X67601459Y-118599500D01*
X67601457Y-118599500D01*
X67408170Y-118637947D01*
X67408160Y-118637950D01*
X67226092Y-118713364D01*
X67226079Y-118713371D01*
X67062218Y-118822860D01*
X67062214Y-118822863D01*
X66922863Y-118962214D01*
X66922860Y-118962218D01*
X66813371Y-119126079D01*
X66813364Y-119126092D01*
X66737950Y-119308160D01*
X66737947Y-119308170D01*
X66699500Y-119501456D01*
X66699500Y-119501459D01*
X66699500Y-119698541D01*
X66699500Y-119698543D01*
X66699499Y-119698543D01*
X66160500Y-119698543D01*
X66160500Y-119698541D01*
X66160500Y-119501459D01*
X66160500Y-119501456D01*
X66122052Y-119308170D01*
X66122051Y-119308169D01*
X66122051Y-119308165D01*
X66111439Y-119282544D01*
X66046635Y-119126092D01*
X66046628Y-119126079D01*
X65937139Y-118962218D01*
X65937136Y-118962214D01*
X65797785Y-118822863D01*
X65797781Y-118822860D01*
X65633920Y-118713371D01*
X65633907Y-118713364D01*
X65451839Y-118637950D01*
X65451829Y-118637947D01*
X65258543Y-118599500D01*
X65258541Y-118599500D01*
X65061459Y-118599500D01*
X65061457Y-118599500D01*
X64868170Y-118637947D01*
X64868160Y-118637950D01*
X64686092Y-118713364D01*
X64686079Y-118713371D01*
X64522218Y-118822860D01*
X64522214Y-118822863D01*
X64382863Y-118962214D01*
X64382860Y-118962218D01*
X64273371Y-119126079D01*
X64273364Y-119126092D01*
X64197950Y-119308160D01*
X64197947Y-119308170D01*
X64159500Y-119501456D01*
X64159500Y-119501459D01*
X64159500Y-119698541D01*
X64159500Y-119698543D01*
X64159499Y-119698543D01*
X63620500Y-119698543D01*
X63620500Y-119698541D01*
X63620500Y-119501459D01*
X63620500Y-119501456D01*
X63582052Y-119308170D01*
X63582051Y-119308169D01*
X63582051Y-119308165D01*
X63571439Y-119282544D01*
X63506635Y-119126092D01*
X63506628Y-119126079D01*
X63397139Y-118962218D01*
X63397136Y-118962214D01*
X63257785Y-118822863D01*
X63257781Y-118822860D01*
X63093920Y-118713371D01*
X63093907Y-118713364D01*
X62911839Y-118637950D01*
X62911829Y-118637947D01*
X62718543Y-118599500D01*
X62718541Y-118599500D01*
X62521459Y-118599500D01*
X62521457Y-118599500D01*
X62328170Y-118637947D01*
X62328160Y-118637950D01*
X62146092Y-118713364D01*
X62146079Y-118713371D01*
X61982218Y-118822860D01*
X61982214Y-118822863D01*
X61842863Y-118962214D01*
X61842860Y-118962218D01*
X61733371Y-119126079D01*
X61733364Y-119126092D01*
X61668561Y-119282544D01*
X61624720Y-119336948D01*
X61558426Y-119359013D01*
X61490727Y-119341734D01*
X61443116Y-119290597D01*
X61430000Y-119235092D01*
X61430000Y-118702172D01*
X61429999Y-118702155D01*
X61423598Y-118642627D01*
X61423596Y-118642620D01*
X61373354Y-118507913D01*
X61373350Y-118507906D01*
X61287190Y-118392812D01*
X61287187Y-118392809D01*
X61172093Y-118306649D01*
X61172086Y-118306645D01*
X61037379Y-118256403D01*
X61037372Y-118256401D01*
X60977844Y-118250000D01*
X60330000Y-118250000D01*
X60330000Y-119166988D01*
X60272993Y-119134075D01*
X60145826Y-119100000D01*
X60014174Y-119100000D01*
X59887007Y-119134075D01*
X59830000Y-119166988D01*
X59830000Y-118250000D01*
X59182155Y-118250000D01*
X59122627Y-118256401D01*
X59122620Y-118256403D01*
X58987913Y-118306645D01*
X58987906Y-118306649D01*
X58872812Y-118392809D01*
X58872809Y-118392812D01*
X58786649Y-118507906D01*
X58786645Y-118507913D01*
X58736403Y-118642620D01*
X58736401Y-118642627D01*
X58730000Y-118702155D01*
X55075500Y-118702155D01*
X55075500Y-113146530D01*
X65760500Y-113146530D01*
X65760500Y-113353469D01*
X65800868Y-113556412D01*
X65800870Y-113556420D01*
X65880058Y-113747596D01*
X65995024Y-113919657D01*
X66141342Y-114065975D01*
X66141345Y-114065977D01*
X66313402Y-114180941D01*
X66504580Y-114260130D01*
X66707530Y-114300499D01*
X66707534Y-114300500D01*
X66707535Y-114300500D01*
X66914466Y-114300500D01*
X66914467Y-114300499D01*
X67117420Y-114260130D01*
X67308598Y-114180941D01*
X67480655Y-114065977D01*
X67626977Y-113919655D01*
X67741941Y-113747598D01*
X67821130Y-113556420D01*
X67861500Y-113353465D01*
X67861500Y-113146535D01*
X67861499Y-113146530D01*
X68300500Y-113146530D01*
X68300500Y-113353469D01*
X68340868Y-113556412D01*
X68340870Y-113556420D01*
X68420058Y-113747596D01*
X68535024Y-113919657D01*
X68681342Y-114065975D01*
X68681345Y-114065977D01*
X68845391Y-114175588D01*
X68890196Y-114229199D01*
X68900500Y-114278690D01*
X68900500Y-115468308D01*
X68924712Y-115558672D01*
X68931200Y-115582885D01*
X68931200Y-115582886D01*
X68931201Y-115582887D01*
X68990511Y-115685614D01*
X69709386Y-116404490D01*
X69812114Y-116463799D01*
X69926691Y-116494500D01*
X69926694Y-116494500D01*
X87063308Y-116494500D01*
X87063309Y-116494500D01*
X87153673Y-116470286D01*
X87177887Y-116463799D01*
X87280614Y-116404489D01*
X87999490Y-115685614D01*
X88058799Y-115582886D01*
X88089500Y-115468309D01*
X88089500Y-114278690D01*
X88109185Y-114211651D01*
X88144608Y-114175588D01*
X88308655Y-114065977D01*
X88454977Y-113919655D01*
X88569941Y-113747598D01*
X88649130Y-113556420D01*
X88689500Y-113353465D01*
X88689500Y-113146535D01*
X88689499Y-113146530D01*
X89128500Y-113146530D01*
X89128500Y-113353469D01*
X89168868Y-113556412D01*
X89168870Y-113556420D01*
X89248058Y-113747596D01*
X89363024Y-113919657D01*
X89509342Y-114065975D01*
X89509345Y-114065977D01*
X89681402Y-114180941D01*
X89872580Y-114260130D01*
X90075530Y-114300499D01*
X90075534Y-114300500D01*
X90075535Y-114300500D01*
X90282466Y-114300500D01*
X90282467Y-114300499D01*
X90485420Y-114260130D01*
X90676598Y-114180941D01*
X90848655Y-114065977D01*
X90994977Y-113919655D01*
X91109941Y-113747598D01*
X91189130Y-113556420D01*
X91229500Y-113353465D01*
X91229500Y-113146535D01*
X91229499Y-113146530D01*
X91668500Y-113146530D01*
X91668500Y-113353469D01*
X91708868Y-113556412D01*
X91708870Y-113556420D01*
X91788058Y-113747596D01*
X91903024Y-113919657D01*
X92049342Y-114065975D01*
X92049345Y-114065977D01*
X92221402Y-114180941D01*
X92412580Y-114260130D01*
X92615530Y-114300499D01*
X92615534Y-114300500D01*
X92615535Y-114300500D01*
X92822466Y-114300500D01*
X92822467Y-114300499D01*
X93025420Y-114260130D01*
X93216598Y-114180941D01*
X93388655Y-114065977D01*
X93534977Y-113919655D01*
X93649941Y-113747598D01*
X93729130Y-113556420D01*
X93769500Y-113353465D01*
X93769500Y-113146535D01*
X93729130Y-112943580D01*
X93649941Y-112752402D01*
X93534977Y-112580345D01*
X93534975Y-112580342D01*
X93388657Y-112434024D01*
X93302626Y-112376541D01*
X93216598Y-112319059D01*
X93025420Y-112239870D01*
X93025412Y-112239868D01*
X92822469Y-112199500D01*
X92822465Y-112199500D01*
X92615535Y-112199500D01*
X92615530Y-112199500D01*
X92412587Y-112239868D01*
X92412579Y-112239870D01*
X92221403Y-112319058D01*
X92049342Y-112434024D01*
X91903024Y-112580342D01*
X91788058Y-112752403D01*
X91708870Y-112943579D01*
X91708868Y-112943587D01*
X91668500Y-113146530D01*
X91229499Y-113146530D01*
X91189130Y-112943580D01*
X91109941Y-112752402D01*
X90994977Y-112580345D01*
X90994975Y-112580342D01*
X90848657Y-112434024D01*
X90762626Y-112376541D01*
X90676598Y-112319059D01*
X90485420Y-112239870D01*
X90485412Y-112239868D01*
X90282469Y-112199500D01*
X90282465Y-112199500D01*
X90075535Y-112199500D01*
X90075530Y-112199500D01*
X89872587Y-112239868D01*
X89872579Y-112239870D01*
X89681403Y-112319058D01*
X89509342Y-112434024D01*
X89363024Y-112580342D01*
X89248058Y-112752403D01*
X89168870Y-112943579D01*
X89168868Y-112943587D01*
X89128500Y-113146530D01*
X88689499Y-113146530D01*
X88649130Y-112943580D01*
X88569941Y-112752402D01*
X88454977Y-112580345D01*
X88454975Y-112580342D01*
X88308657Y-112434024D01*
X88222626Y-112376541D01*
X88136598Y-112319059D01*
X87945420Y-112239870D01*
X87945412Y-112239868D01*
X87742469Y-112199500D01*
X87742465Y-112199500D01*
X87535535Y-112199500D01*
X87535530Y-112199500D01*
X87332587Y-112239868D01*
X87332579Y-112239870D01*
X87141403Y-112319058D01*
X86969342Y-112434024D01*
X86823024Y-112580342D01*
X86708058Y-112752403D01*
X86628870Y-112943579D01*
X86628868Y-112943587D01*
X86588500Y-113146530D01*
X86588500Y-113353469D01*
X86628868Y-113556412D01*
X86628870Y-113556420D01*
X86708058Y-113747596D01*
X86823024Y-113919657D01*
X86969342Y-114065975D01*
X86969345Y-114065977D01*
X87133391Y-114175588D01*
X87178196Y-114229199D01*
X87188500Y-114278690D01*
X87188500Y-115171034D01*
X87168815Y-115238073D01*
X87152181Y-115258715D01*
X86853716Y-115557181D01*
X86792393Y-115590666D01*
X86766035Y-115593500D01*
X70223966Y-115593500D01*
X70156927Y-115573815D01*
X70136285Y-115557181D01*
X69837819Y-115258715D01*
X69804334Y-115197392D01*
X69801500Y-115171034D01*
X69801500Y-114278690D01*
X69821185Y-114211651D01*
X69856608Y-114175588D01*
X70020655Y-114065977D01*
X70166977Y-113919655D01*
X70281941Y-113747598D01*
X70361130Y-113556420D01*
X70401500Y-113353465D01*
X70401500Y-113146535D01*
X70401499Y-113146530D01*
X70840500Y-113146530D01*
X70840500Y-113353469D01*
X70880868Y-113556412D01*
X70880870Y-113556420D01*
X70960058Y-113747596D01*
X71075024Y-113919657D01*
X71221342Y-114065975D01*
X71221345Y-114065977D01*
X71393402Y-114180941D01*
X71584580Y-114260130D01*
X71787530Y-114300499D01*
X71787534Y-114300500D01*
X71787535Y-114300500D01*
X71994466Y-114300500D01*
X71994467Y-114300499D01*
X72197420Y-114260130D01*
X72388598Y-114180941D01*
X72560655Y-114065977D01*
X72706977Y-113919655D01*
X72821941Y-113747598D01*
X72901130Y-113556420D01*
X72941500Y-113353465D01*
X72941500Y-113146535D01*
X72941499Y-113146530D01*
X73380500Y-113146530D01*
X73380500Y-113353469D01*
X73420868Y-113556412D01*
X73420870Y-113556420D01*
X73500058Y-113747596D01*
X73615024Y-113919657D01*
X73761342Y-114065975D01*
X73761345Y-114065977D01*
X73933402Y-114180941D01*
X74124580Y-114260130D01*
X74327530Y-114300499D01*
X74327534Y-114300500D01*
X74327535Y-114300500D01*
X74534466Y-114300500D01*
X74534467Y-114300499D01*
X74737420Y-114260130D01*
X74928598Y-114180941D01*
X75100655Y-114065977D01*
X75246977Y-113919655D01*
X75361941Y-113747598D01*
X75441130Y-113556420D01*
X75481500Y-113353465D01*
X75481500Y-113146535D01*
X75481499Y-113146530D01*
X84048500Y-113146530D01*
X84048500Y-113353469D01*
X84088868Y-113556412D01*
X84088870Y-113556420D01*
X84168058Y-113747596D01*
X84283024Y-113919657D01*
X84429342Y-114065975D01*
X84429345Y-114065977D01*
X84601402Y-114180941D01*
X84792580Y-114260130D01*
X84995530Y-114300499D01*
X84995534Y-114300500D01*
X84995535Y-114300500D01*
X85202466Y-114300500D01*
X85202467Y-114300499D01*
X85405420Y-114260130D01*
X85596598Y-114180941D01*
X85768655Y-114065977D01*
X85914977Y-113919655D01*
X86029941Y-113747598D01*
X86109130Y-113556420D01*
X86149500Y-113353465D01*
X86149500Y-113146535D01*
X86109130Y-112943580D01*
X86029941Y-112752402D01*
X85914977Y-112580345D01*
X85914975Y-112580342D01*
X85768657Y-112434024D01*
X85682626Y-112376541D01*
X85596598Y-112319059D01*
X85405420Y-112239870D01*
X85405412Y-112239868D01*
X85202469Y-112199500D01*
X85202465Y-112199500D01*
X84995535Y-112199500D01*
X84995530Y-112199500D01*
X84792587Y-112239868D01*
X84792579Y-112239870D01*
X84601403Y-112319058D01*
X84429342Y-112434024D01*
X84283024Y-112580342D01*
X84168058Y-112752403D01*
X84088870Y-112943579D01*
X84088868Y-112943587D01*
X84048500Y-113146530D01*
X75481499Y-113146530D01*
X75441130Y-112943580D01*
X75361941Y-112752402D01*
X75246977Y-112580345D01*
X75246975Y-112580342D01*
X75100657Y-112434024D01*
X75014626Y-112376541D01*
X74928598Y-112319059D01*
X74737420Y-112239870D01*
X74737412Y-112239868D01*
X74534469Y-112199500D01*
X74534465Y-112199500D01*
X74327535Y-112199500D01*
X74327530Y-112199500D01*
X74124587Y-112239868D01*
X74124579Y-112239870D01*
X73933403Y-112319058D01*
X73761342Y-112434024D01*
X73615024Y-112580342D01*
X73500058Y-112752403D01*
X73420870Y-112943579D01*
X73420868Y-112943587D01*
X73380500Y-113146530D01*
X72941499Y-113146530D01*
X72901130Y-112943580D01*
X72821941Y-112752402D01*
X72706977Y-112580345D01*
X72706975Y-112580342D01*
X72560657Y-112434024D01*
X72474626Y-112376541D01*
X72388598Y-112319059D01*
X72197420Y-112239870D01*
X72197412Y-112239868D01*
X71994469Y-112199500D01*
X71994465Y-112199500D01*
X71787535Y-112199500D01*
X71787530Y-112199500D01*
X71584587Y-112239868D01*
X71584579Y-112239870D01*
X71393403Y-112319058D01*
X71221342Y-112434024D01*
X71075024Y-112580342D01*
X70960058Y-112752403D01*
X70880870Y-112943579D01*
X70880868Y-112943587D01*
X70840500Y-113146530D01*
X70401499Y-113146530D01*
X70361130Y-112943580D01*
X70281941Y-112752402D01*
X70166977Y-112580345D01*
X70166975Y-112580342D01*
X70020657Y-112434024D01*
X69934626Y-112376541D01*
X69848598Y-112319059D01*
X69657420Y-112239870D01*
X69657412Y-112239868D01*
X69454469Y-112199500D01*
X69454465Y-112199500D01*
X69247535Y-112199500D01*
X69247530Y-112199500D01*
X69044587Y-112239868D01*
X69044579Y-112239870D01*
X68853403Y-112319058D01*
X68681342Y-112434024D01*
X68535024Y-112580342D01*
X68420058Y-112752403D01*
X68340870Y-112943579D01*
X68340868Y-112943587D01*
X68300500Y-113146530D01*
X67861499Y-113146530D01*
X67821130Y-112943580D01*
X67741941Y-112752402D01*
X67626977Y-112580345D01*
X67626975Y-112580342D01*
X67480657Y-112434024D01*
X67394626Y-112376541D01*
X67308598Y-112319059D01*
X67117420Y-112239870D01*
X67117412Y-112239868D01*
X66914469Y-112199500D01*
X66914465Y-112199500D01*
X66707535Y-112199500D01*
X66707530Y-112199500D01*
X66504587Y-112239868D01*
X66504579Y-112239870D01*
X66313403Y-112319058D01*
X66141342Y-112434024D01*
X65995024Y-112580342D01*
X65880058Y-112752403D01*
X65800870Y-112943579D01*
X65800868Y-112943587D01*
X65760500Y-113146530D01*
X55075500Y-113146530D01*
X55075500Y-110606530D01*
X67030500Y-110606530D01*
X67030500Y-110813469D01*
X67070868Y-111016412D01*
X67070870Y-111016420D01*
X67115710Y-111124674D01*
X67150059Y-111207598D01*
X67187122Y-111263067D01*
X67265024Y-111379657D01*
X67411342Y-111525975D01*
X67411345Y-111525977D01*
X67583402Y-111640941D01*
X67774580Y-111720130D01*
X67933621Y-111751765D01*
X67977530Y-111760499D01*
X67977534Y-111760500D01*
X67977535Y-111760500D01*
X68184466Y-111760500D01*
X68184467Y-111760499D01*
X68387420Y-111720130D01*
X68578598Y-111640941D01*
X68750655Y-111525977D01*
X68896977Y-111379655D01*
X69011941Y-111207598D01*
X69091130Y-111016420D01*
X69131500Y-110813465D01*
X69131500Y-110606535D01*
X69131499Y-110606530D01*
X69570500Y-110606530D01*
X69570500Y-110813469D01*
X69610868Y-111016412D01*
X69610870Y-111016420D01*
X69655710Y-111124674D01*
X69690059Y-111207598D01*
X69727122Y-111263067D01*
X69805024Y-111379657D01*
X69951342Y-111525975D01*
X69951345Y-111525977D01*
X70123402Y-111640941D01*
X70314580Y-111720130D01*
X70473621Y-111751765D01*
X70517530Y-111760499D01*
X70517534Y-111760500D01*
X70517535Y-111760500D01*
X70724466Y-111760500D01*
X70724467Y-111760499D01*
X70927420Y-111720130D01*
X71118598Y-111640941D01*
X71290655Y-111525977D01*
X71436977Y-111379655D01*
X71551941Y-111207598D01*
X71590703Y-111114018D01*
X71634542Y-111059616D01*
X71700836Y-111037551D01*
X71768536Y-111054830D01*
X71816147Y-111105967D01*
X71823194Y-111123154D01*
X71863567Y-111247410D01*
X71963611Y-111443756D01*
X72009932Y-111507513D01*
X72722944Y-110794501D01*
X72746326Y-110881764D01*
X72804911Y-110983236D01*
X72887764Y-111066089D01*
X72989236Y-111124674D01*
X73076497Y-111148055D01*
X72363485Y-111861065D01*
X72363485Y-111861066D01*
X72427243Y-111907388D01*
X72623589Y-112007432D01*
X72833164Y-112075526D01*
X73050819Y-112110000D01*
X73271181Y-112110000D01*
X73488835Y-112075526D01*
X73698410Y-112007432D01*
X73894760Y-111907386D01*
X73958513Y-111861066D01*
X73958514Y-111861066D01*
X73245502Y-111148055D01*
X73332764Y-111124674D01*
X73434236Y-111066089D01*
X73517089Y-110983236D01*
X73575674Y-110881764D01*
X73599055Y-110794503D01*
X74312066Y-111507514D01*
X74312066Y-111507513D01*
X74358386Y-111443760D01*
X74416015Y-111330658D01*
X74463989Y-111279862D01*
X74531810Y-111263067D01*
X74597945Y-111285604D01*
X74641397Y-111340319D01*
X74650500Y-111386953D01*
X74650500Y-111624820D01*
X74650500Y-111624822D01*
X74650499Y-111624822D01*
X74659231Y-111668717D01*
X74659232Y-111668721D01*
X74659233Y-111668722D01*
X74692496Y-111718504D01*
X74742278Y-111751767D01*
X74742281Y-111751767D01*
X74742282Y-111751768D01*
X74786177Y-111760500D01*
X74786180Y-111760500D01*
X76615822Y-111760500D01*
X76659717Y-111751768D01*
X76659717Y-111751767D01*
X76659722Y-111751767D01*
X76709504Y-111718504D01*
X76742767Y-111668722D01*
X76751500Y-111624820D01*
X76751500Y-110606530D01*
X85318500Y-110606530D01*
X85318500Y-110813469D01*
X85358868Y-111016412D01*
X85358870Y-111016420D01*
X85403710Y-111124674D01*
X85438059Y-111207598D01*
X85475122Y-111263067D01*
X85553024Y-111379657D01*
X85699342Y-111525975D01*
X85699345Y-111525977D01*
X85871402Y-111640941D01*
X86062580Y-111720130D01*
X86221621Y-111751765D01*
X86265530Y-111760499D01*
X86265534Y-111760500D01*
X86265535Y-111760500D01*
X86472466Y-111760500D01*
X86472467Y-111760499D01*
X86675420Y-111720130D01*
X86866598Y-111640941D01*
X87038655Y-111525977D01*
X87184977Y-111379655D01*
X87299941Y-111207598D01*
X87379130Y-111016420D01*
X87419500Y-110813465D01*
X87419500Y-110606535D01*
X87419499Y-110606530D01*
X87858500Y-110606530D01*
X87858500Y-110813469D01*
X87898868Y-111016412D01*
X87898870Y-111016420D01*
X87943710Y-111124674D01*
X87978059Y-111207598D01*
X88015122Y-111263067D01*
X88093024Y-111379657D01*
X88239342Y-111525975D01*
X88239345Y-111525977D01*
X88411402Y-111640941D01*
X88602580Y-111720130D01*
X88761621Y-111751765D01*
X88805530Y-111760499D01*
X88805534Y-111760500D01*
X88805535Y-111760500D01*
X89012466Y-111760500D01*
X89012467Y-111760499D01*
X89215420Y-111720130D01*
X89406598Y-111640941D01*
X89578655Y-111525977D01*
X89724977Y-111379655D01*
X89839941Y-111207598D01*
X89878703Y-111114018D01*
X89922542Y-111059616D01*
X89988836Y-111037551D01*
X90056536Y-111054830D01*
X90104147Y-111105967D01*
X90111194Y-111123154D01*
X90151567Y-111247410D01*
X90251611Y-111443756D01*
X90297932Y-111507513D01*
X91010944Y-110794501D01*
X91034326Y-110881764D01*
X91092911Y-110983236D01*
X91175764Y-111066089D01*
X91277236Y-111124674D01*
X91364497Y-111148055D01*
X90651485Y-111861065D01*
X90651485Y-111861066D01*
X90715243Y-111907388D01*
X90911589Y-112007432D01*
X91121164Y-112075526D01*
X91338819Y-112110000D01*
X91559181Y-112110000D01*
X91776835Y-112075526D01*
X91986410Y-112007432D01*
X92182760Y-111907386D01*
X92246513Y-111861066D01*
X92246514Y-111861066D01*
X91533502Y-111148055D01*
X91620764Y-111124674D01*
X91722236Y-111066089D01*
X91805089Y-110983236D01*
X91863674Y-110881764D01*
X91887055Y-110794503D01*
X92600066Y-111507514D01*
X92600066Y-111507513D01*
X92646386Y-111443760D01*
X92704015Y-111330658D01*
X92751989Y-111279862D01*
X92819810Y-111263067D01*
X92885945Y-111285604D01*
X92929397Y-111340319D01*
X92938500Y-111386953D01*
X92938500Y-111624820D01*
X92938500Y-111624822D01*
X92938499Y-111624822D01*
X92947231Y-111668717D01*
X92947232Y-111668721D01*
X92947233Y-111668722D01*
X92980496Y-111718504D01*
X93030278Y-111751767D01*
X93030281Y-111751767D01*
X93030282Y-111751768D01*
X93074177Y-111760500D01*
X93074180Y-111760500D01*
X94903822Y-111760500D01*
X94947717Y-111751768D01*
X94947717Y-111751767D01*
X94947722Y-111751767D01*
X94997504Y-111718504D01*
X95030767Y-111668722D01*
X95039500Y-111624820D01*
X95039500Y-109795180D01*
X95039500Y-109795177D01*
X95030768Y-109751282D01*
X95030767Y-109751281D01*
X95030767Y-109751278D01*
X94997504Y-109701496D01*
X94997503Y-109701495D01*
X94947724Y-109668234D01*
X94947717Y-109668231D01*
X94903822Y-109659500D01*
X94903820Y-109659500D01*
X93074180Y-109659500D01*
X93074178Y-109659500D01*
X93030282Y-109668231D01*
X93030275Y-109668234D01*
X92980496Y-109701495D01*
X92980495Y-109701496D01*
X92947234Y-109751275D01*
X92947231Y-109751282D01*
X92938500Y-109795177D01*
X92938500Y-110033046D01*
X92918815Y-110100085D01*
X92866011Y-110145840D01*
X92796853Y-110155784D01*
X92733297Y-110126759D01*
X92704015Y-110089341D01*
X92646388Y-109976243D01*
X92600066Y-109912485D01*
X92600065Y-109912485D01*
X91887055Y-110625496D01*
X91863674Y-110538236D01*
X91805089Y-110436764D01*
X91722236Y-110353911D01*
X91620764Y-110295326D01*
X91533500Y-110271944D01*
X92246513Y-109558932D01*
X92182756Y-109512611D01*
X91986410Y-109412567D01*
X91776835Y-109344473D01*
X91559181Y-109310000D01*
X91338819Y-109310000D01*
X91121164Y-109344473D01*
X90911589Y-109412567D01*
X90715233Y-109512616D01*
X90651485Y-109558931D01*
X90651485Y-109558932D01*
X91364497Y-110271944D01*
X91277236Y-110295326D01*
X91175764Y-110353911D01*
X91092911Y-110436764D01*
X91034326Y-110538236D01*
X91010944Y-110625497D01*
X90297932Y-109912485D01*
X90297931Y-109912485D01*
X90251616Y-109976233D01*
X90151567Y-110172590D01*
X90111194Y-110296845D01*
X90071756Y-110354521D01*
X90007398Y-110381719D01*
X89938551Y-110369804D01*
X89887076Y-110322560D01*
X89878702Y-110305979D01*
X89839943Y-110212405D01*
X89724975Y-110040342D01*
X89578657Y-109894024D01*
X89430720Y-109795177D01*
X89406598Y-109779059D01*
X89215420Y-109699870D01*
X89215412Y-109699868D01*
X89012469Y-109659500D01*
X89012465Y-109659500D01*
X88805535Y-109659500D01*
X88805530Y-109659500D01*
X88602587Y-109699868D01*
X88602579Y-109699870D01*
X88411403Y-109779058D01*
X88239342Y-109894024D01*
X88093024Y-110040342D01*
X87978058Y-110212403D01*
X87898870Y-110403579D01*
X87898868Y-110403587D01*
X87858500Y-110606530D01*
X87419499Y-110606530D01*
X87379130Y-110403580D01*
X87299941Y-110212402D01*
X87184977Y-110040345D01*
X87184975Y-110040342D01*
X87038657Y-109894024D01*
X86890720Y-109795177D01*
X86866598Y-109779059D01*
X86675420Y-109699870D01*
X86675412Y-109699868D01*
X86472469Y-109659500D01*
X86472465Y-109659500D01*
X86265535Y-109659500D01*
X86265530Y-109659500D01*
X86062587Y-109699868D01*
X86062579Y-109699870D01*
X85871403Y-109779058D01*
X85699342Y-109894024D01*
X85553024Y-110040342D01*
X85438058Y-110212403D01*
X85358870Y-110403579D01*
X85358868Y-110403587D01*
X85318500Y-110606530D01*
X76751500Y-110606530D01*
X76751500Y-109795180D01*
X76751500Y-109795177D01*
X76742768Y-109751282D01*
X76742767Y-109751281D01*
X76742767Y-109751278D01*
X76709504Y-109701496D01*
X76709503Y-109701495D01*
X76659724Y-109668234D01*
X76659717Y-109668231D01*
X76615822Y-109659500D01*
X76615820Y-109659500D01*
X74786180Y-109659500D01*
X74786178Y-109659500D01*
X74742282Y-109668231D01*
X74742275Y-109668234D01*
X74692496Y-109701495D01*
X74692495Y-109701496D01*
X74659234Y-109751275D01*
X74659231Y-109751282D01*
X74650500Y-109795177D01*
X74650500Y-110033046D01*
X74630815Y-110100085D01*
X74578011Y-110145840D01*
X74508853Y-110155784D01*
X74445297Y-110126759D01*
X74416015Y-110089341D01*
X74358388Y-109976243D01*
X74312066Y-109912485D01*
X74312065Y-109912485D01*
X73599055Y-110625496D01*
X73575674Y-110538236D01*
X73517089Y-110436764D01*
X73434236Y-110353911D01*
X73332764Y-110295326D01*
X73245500Y-110271944D01*
X73958513Y-109558932D01*
X73894756Y-109512611D01*
X73698410Y-109412567D01*
X73488835Y-109344473D01*
X73271181Y-109310000D01*
X73050819Y-109310000D01*
X72833164Y-109344473D01*
X72623589Y-109412567D01*
X72427233Y-109512616D01*
X72363485Y-109558931D01*
X72363485Y-109558932D01*
X73076497Y-110271944D01*
X72989236Y-110295326D01*
X72887764Y-110353911D01*
X72804911Y-110436764D01*
X72746326Y-110538236D01*
X72722944Y-110625497D01*
X72009932Y-109912485D01*
X72009931Y-109912485D01*
X71963616Y-109976233D01*
X71863567Y-110172590D01*
X71823194Y-110296845D01*
X71783756Y-110354521D01*
X71719398Y-110381719D01*
X71650551Y-110369804D01*
X71599076Y-110322560D01*
X71590702Y-110305979D01*
X71551943Y-110212405D01*
X71436975Y-110040342D01*
X71290657Y-109894024D01*
X71142720Y-109795177D01*
X71118598Y-109779059D01*
X70927420Y-109699870D01*
X70927412Y-109699868D01*
X70724469Y-109659500D01*
X70724465Y-109659500D01*
X70517535Y-109659500D01*
X70517530Y-109659500D01*
X70314587Y-109699868D01*
X70314579Y-109699870D01*
X70123403Y-109779058D01*
X69951342Y-109894024D01*
X69805024Y-110040342D01*
X69690058Y-110212403D01*
X69610870Y-110403579D01*
X69610868Y-110403587D01*
X69570500Y-110606530D01*
X69131499Y-110606530D01*
X69091130Y-110403580D01*
X69011941Y-110212402D01*
X68896977Y-110040345D01*
X68896975Y-110040342D01*
X68750657Y-109894024D01*
X68602720Y-109795177D01*
X68578598Y-109779059D01*
X68387420Y-109699870D01*
X68387412Y-109699868D01*
X68184469Y-109659500D01*
X68184465Y-109659500D01*
X67977535Y-109659500D01*
X67977530Y-109659500D01*
X67774587Y-109699868D01*
X67774579Y-109699870D01*
X67583403Y-109779058D01*
X67411342Y-109894024D01*
X67265024Y-110040342D01*
X67150058Y-110212403D01*
X67070870Y-110403579D01*
X67070868Y-110403587D01*
X67030500Y-110606530D01*
X55075500Y-110606530D01*
X55075500Y-107278905D01*
X61511000Y-107278905D01*
X61511000Y-107541094D01*
X61545220Y-107801009D01*
X61545222Y-107801020D01*
X61613075Y-108054255D01*
X61713404Y-108296471D01*
X61713409Y-108296482D01*
X61844488Y-108523516D01*
X61844494Y-108523524D01*
X61931080Y-108636365D01*
X62795152Y-107772292D01*
X62802049Y-107788942D01*
X62889599Y-107919970D01*
X63001030Y-108031401D01*
X63132058Y-108118951D01*
X63148705Y-108125846D01*
X62284633Y-108989917D01*
X62284633Y-108989918D01*
X62397475Y-109076505D01*
X62397483Y-109076511D01*
X62624517Y-109207590D01*
X62624528Y-109207595D01*
X62866744Y-109307924D01*
X63119979Y-109375777D01*
X63119990Y-109375779D01*
X63379905Y-109409999D01*
X63379920Y-109410000D01*
X63642080Y-109410000D01*
X63642094Y-109409999D01*
X63902009Y-109375779D01*
X63902020Y-109375777D01*
X64155255Y-109307924D01*
X64397471Y-109207595D01*
X64397482Y-109207590D01*
X64624516Y-109076511D01*
X64624534Y-109076499D01*
X64737365Y-108989919D01*
X64737365Y-108989917D01*
X63873294Y-108125846D01*
X63889942Y-108118951D01*
X64020970Y-108031401D01*
X64132401Y-107919970D01*
X64219951Y-107788942D01*
X64226846Y-107772293D01*
X65090917Y-108636365D01*
X65090919Y-108636365D01*
X65177499Y-108523534D01*
X65177511Y-108523516D01*
X65308590Y-108296482D01*
X65308595Y-108296471D01*
X65408924Y-108054255D01*
X65476777Y-107801020D01*
X65476779Y-107801009D01*
X65510999Y-107541094D01*
X65511000Y-107541080D01*
X65511000Y-107278919D01*
X65510999Y-107278905D01*
X65476779Y-107018990D01*
X65476777Y-107018979D01*
X65408924Y-106765744D01*
X65308595Y-106523528D01*
X65308590Y-106523517D01*
X65177503Y-106296471D01*
X65062493Y-106146586D01*
X65037299Y-106081417D01*
X65051337Y-106012972D01*
X65100151Y-105962983D01*
X65168243Y-105947319D01*
X65180267Y-105948627D01*
X65236800Y-105957581D01*
X65413070Y-105985500D01*
X65413071Y-105985500D01*
X65668929Y-105985500D01*
X65668930Y-105985500D01*
X65921639Y-105945474D01*
X66164975Y-105866410D01*
X66392947Y-105750252D01*
X66599942Y-105599862D01*
X66780862Y-105418942D01*
X66931252Y-105211947D01*
X67047410Y-104983975D01*
X67126474Y-104740639D01*
X67166500Y-104487930D01*
X67166500Y-104232070D01*
X75345500Y-104232070D01*
X75345500Y-104487929D01*
X75385526Y-104740640D01*
X75464588Y-104983972D01*
X75464589Y-104983975D01*
X75580750Y-105211950D01*
X75731132Y-105418935D01*
X75731136Y-105418940D01*
X75912059Y-105599863D01*
X75912064Y-105599867D01*
X76018568Y-105677246D01*
X76119053Y-105750252D01*
X76268080Y-105826185D01*
X76347024Y-105866410D01*
X76347027Y-105866411D01*
X76468693Y-105905942D01*
X76590361Y-105945474D01*
X76843070Y-105985500D01*
X76843071Y-105985500D01*
X77098929Y-105985500D01*
X77098930Y-105985500D01*
X77331732Y-105948627D01*
X77401025Y-105957581D01*
X77454477Y-106002578D01*
X77475117Y-106069329D01*
X77456392Y-106136643D01*
X77449506Y-106146586D01*
X77334496Y-106296471D01*
X77203409Y-106523517D01*
X77203404Y-106523528D01*
X77103075Y-106765744D01*
X77035222Y-107018979D01*
X77035220Y-107018990D01*
X77001000Y-107278905D01*
X77001000Y-107541094D01*
X77035220Y-107801009D01*
X77035222Y-107801020D01*
X77103075Y-108054255D01*
X77203404Y-108296471D01*
X77203409Y-108296482D01*
X77334488Y-108523516D01*
X77334494Y-108523524D01*
X77421080Y-108636365D01*
X78285152Y-107772292D01*
X78292049Y-107788942D01*
X78379599Y-107919970D01*
X78491030Y-108031401D01*
X78622058Y-108118951D01*
X78638705Y-108125846D01*
X77774633Y-108989917D01*
X77774633Y-108989918D01*
X77887475Y-109076505D01*
X77887483Y-109076511D01*
X78114517Y-109207590D01*
X78114528Y-109207595D01*
X78356744Y-109307924D01*
X78609979Y-109375777D01*
X78609990Y-109375779D01*
X78869905Y-109409999D01*
X78869920Y-109410000D01*
X79132080Y-109410000D01*
X79132094Y-109409999D01*
X79392009Y-109375779D01*
X79392020Y-109375777D01*
X79645255Y-109307924D01*
X79887471Y-109207595D01*
X79887482Y-109207590D01*
X80114516Y-109076511D01*
X80114534Y-109076499D01*
X80227365Y-108989919D01*
X80227365Y-108989917D01*
X79363294Y-108125846D01*
X79379942Y-108118951D01*
X79510970Y-108031401D01*
X79622401Y-107919970D01*
X79709951Y-107788942D01*
X79716846Y-107772293D01*
X80399999Y-108455446D01*
X81083152Y-107772292D01*
X81090049Y-107788942D01*
X81177599Y-107919970D01*
X81289030Y-108031401D01*
X81420058Y-108118951D01*
X81436705Y-108125846D01*
X80572633Y-108989917D01*
X80572633Y-108989918D01*
X80685475Y-109076505D01*
X80685483Y-109076511D01*
X80912517Y-109207590D01*
X80912528Y-109207595D01*
X81154744Y-109307924D01*
X81407979Y-109375777D01*
X81407990Y-109375779D01*
X81667905Y-109409999D01*
X81667920Y-109410000D01*
X81930080Y-109410000D01*
X81930094Y-109409999D01*
X82190009Y-109375779D01*
X82190020Y-109375777D01*
X82443255Y-109307924D01*
X82685471Y-109207595D01*
X82685482Y-109207590D01*
X82912516Y-109076511D01*
X82912534Y-109076499D01*
X83025365Y-108989919D01*
X83025365Y-108989917D01*
X82161294Y-108125846D01*
X82177942Y-108118951D01*
X82308970Y-108031401D01*
X82420401Y-107919970D01*
X82507951Y-107788942D01*
X82514846Y-107772293D01*
X83378917Y-108636365D01*
X83378919Y-108636365D01*
X83465499Y-108523534D01*
X83465511Y-108523516D01*
X83596590Y-108296482D01*
X83596595Y-108296471D01*
X83696924Y-108054255D01*
X83764777Y-107801020D01*
X83764779Y-107801009D01*
X83798999Y-107541094D01*
X83799000Y-107541080D01*
X83799000Y-107278919D01*
X83798999Y-107278905D01*
X83764779Y-107018990D01*
X83764777Y-107018979D01*
X83696924Y-106765744D01*
X83596595Y-106523528D01*
X83596590Y-106523517D01*
X83465503Y-106296471D01*
X83350493Y-106146586D01*
X83325299Y-106081417D01*
X83339337Y-106012972D01*
X83388151Y-105962983D01*
X83456243Y-105947319D01*
X83468267Y-105948627D01*
X83524800Y-105957581D01*
X83701070Y-105985500D01*
X83701071Y-105985500D01*
X83956929Y-105985500D01*
X83956930Y-105985500D01*
X84209639Y-105945474D01*
X84452975Y-105866410D01*
X84680947Y-105750252D01*
X84887942Y-105599862D01*
X85068862Y-105418942D01*
X85219252Y-105211947D01*
X85335410Y-104983975D01*
X85414474Y-104740639D01*
X85454500Y-104487930D01*
X85454500Y-104232070D01*
X93633500Y-104232070D01*
X93633500Y-104487929D01*
X93673526Y-104740640D01*
X93752588Y-104983972D01*
X93752589Y-104983975D01*
X93868750Y-105211950D01*
X94019132Y-105418935D01*
X94019136Y-105418940D01*
X94200059Y-105599863D01*
X94200064Y-105599867D01*
X94306568Y-105677246D01*
X94407053Y-105750252D01*
X94556080Y-105826185D01*
X94635024Y-105866410D01*
X94635027Y-105866411D01*
X94756693Y-105905942D01*
X94878361Y-105945474D01*
X95131070Y-105985500D01*
X95131071Y-105985500D01*
X95386929Y-105985500D01*
X95386930Y-105985500D01*
X95619732Y-105948627D01*
X95689025Y-105957581D01*
X95742477Y-106002578D01*
X95763117Y-106069329D01*
X95744392Y-106136643D01*
X95737506Y-106146586D01*
X95622496Y-106296471D01*
X95491409Y-106523517D01*
X95491404Y-106523528D01*
X95391075Y-106765744D01*
X95323222Y-107018979D01*
X95323220Y-107018990D01*
X95289000Y-107278905D01*
X95289000Y-107541094D01*
X95323220Y-107801009D01*
X95323222Y-107801020D01*
X95391075Y-108054255D01*
X95491404Y-108296471D01*
X95491409Y-108296482D01*
X95622488Y-108523516D01*
X95622494Y-108523524D01*
X95709080Y-108636365D01*
X96573152Y-107772292D01*
X96580049Y-107788942D01*
X96667599Y-107919970D01*
X96779030Y-108031401D01*
X96910058Y-108118951D01*
X96926705Y-108125846D01*
X96062633Y-108989917D01*
X96062633Y-108989918D01*
X96175475Y-109076505D01*
X96175483Y-109076511D01*
X96402517Y-109207590D01*
X96402528Y-109207595D01*
X96644744Y-109307924D01*
X96897979Y-109375777D01*
X96897990Y-109375779D01*
X97157905Y-109409999D01*
X97157920Y-109410000D01*
X97420080Y-109410000D01*
X97420094Y-109409999D01*
X97680009Y-109375779D01*
X97680020Y-109375777D01*
X97933255Y-109307924D01*
X98175471Y-109207595D01*
X98175482Y-109207590D01*
X98402516Y-109076511D01*
X98402534Y-109076499D01*
X98515365Y-108989919D01*
X98515365Y-108989917D01*
X97651294Y-108125846D01*
X97667942Y-108118951D01*
X97798970Y-108031401D01*
X97910401Y-107919970D01*
X97997951Y-107788942D01*
X98004846Y-107772294D01*
X98868917Y-108636365D01*
X98868919Y-108636365D01*
X98955499Y-108523534D01*
X98955511Y-108523516D01*
X99086590Y-108296482D01*
X99086595Y-108296471D01*
X99186924Y-108054255D01*
X99254777Y-107801020D01*
X99254779Y-107801009D01*
X99288999Y-107541094D01*
X99289000Y-107541080D01*
X99289000Y-107278919D01*
X99288999Y-107278905D01*
X99254779Y-107018990D01*
X99254777Y-107018979D01*
X99186924Y-106765744D01*
X99086595Y-106523528D01*
X99086590Y-106523517D01*
X98955511Y-106296483D01*
X98955505Y-106296475D01*
X98868918Y-106183633D01*
X98868917Y-106183633D01*
X98004846Y-107047704D01*
X97997951Y-107031058D01*
X97910401Y-106900030D01*
X97798970Y-106788599D01*
X97667942Y-106701049D01*
X97651292Y-106694152D01*
X98515365Y-105830080D01*
X98402524Y-105743494D01*
X98402516Y-105743488D01*
X98175482Y-105612409D01*
X98175471Y-105612404D01*
X97933255Y-105512075D01*
X97680020Y-105444222D01*
X97680009Y-105444220D01*
X97420094Y-105410000D01*
X97157905Y-105410000D01*
X96897990Y-105444220D01*
X96897979Y-105444222D01*
X96717806Y-105492498D01*
X96647956Y-105490835D01*
X96590093Y-105451672D01*
X96562590Y-105387443D01*
X96574177Y-105318541D01*
X96585388Y-105299848D01*
X96649252Y-105211947D01*
X96765410Y-104983975D01*
X96844474Y-104740639D01*
X96884500Y-104487930D01*
X96884500Y-104253713D01*
X101909500Y-104253713D01*
X101909500Y-104466286D01*
X101942753Y-104676239D01*
X102008444Y-104878414D01*
X102104951Y-105067820D01*
X102229890Y-105239786D01*
X102380213Y-105390109D01*
X102552179Y-105515048D01*
X102552181Y-105515049D01*
X102552184Y-105515051D01*
X102741588Y-105611557D01*
X102943757Y-105677246D01*
X103153713Y-105710500D01*
X103153714Y-105710500D01*
X103366286Y-105710500D01*
X103366287Y-105710500D01*
X103576243Y-105677246D01*
X103778412Y-105611557D01*
X103967816Y-105515051D01*
X104012766Y-105482393D01*
X104139786Y-105390109D01*
X104139788Y-105390106D01*
X104139792Y-105390104D01*
X104290104Y-105239792D01*
X104290106Y-105239788D01*
X104290109Y-105239786D01*
X104415048Y-105067820D01*
X104415047Y-105067820D01*
X104415051Y-105067816D01*
X104511557Y-104878412D01*
X104577246Y-104676243D01*
X104610500Y-104466287D01*
X104610500Y-104253713D01*
X104577246Y-104043757D01*
X104511557Y-103841588D01*
X104415051Y-103652184D01*
X104415049Y-103652181D01*
X104415048Y-103652179D01*
X104290109Y-103480213D01*
X104139786Y-103329890D01*
X103967820Y-103204951D01*
X103778414Y-103108444D01*
X103778413Y-103108443D01*
X103778412Y-103108443D01*
X103576243Y-103042754D01*
X103576241Y-103042753D01*
X103576240Y-103042753D01*
X103414957Y-103017208D01*
X103366287Y-103009500D01*
X103153713Y-103009500D01*
X103105042Y-103017208D01*
X102943760Y-103042753D01*
X102741585Y-103108444D01*
X102552179Y-103204951D01*
X102380213Y-103329890D01*
X102229890Y-103480213D01*
X102104951Y-103652179D01*
X102008444Y-103841585D01*
X101942753Y-104043760D01*
X101909500Y-104253713D01*
X96884500Y-104253713D01*
X96884500Y-104232070D01*
X96844474Y-103979361D01*
X96765410Y-103736025D01*
X96765410Y-103736024D01*
X96680205Y-103568802D01*
X96649252Y-103508053D01*
X96629022Y-103480208D01*
X96498867Y-103301064D01*
X96498863Y-103301059D01*
X96317940Y-103120136D01*
X96317935Y-103120132D01*
X96110950Y-102969750D01*
X96110949Y-102969749D01*
X96110947Y-102969748D01*
X96037910Y-102932533D01*
X95882975Y-102853589D01*
X95882972Y-102853588D01*
X95639640Y-102774526D01*
X95513284Y-102754513D01*
X95386930Y-102734500D01*
X95131070Y-102734500D01*
X95046833Y-102747842D01*
X94878359Y-102774526D01*
X94635027Y-102853588D01*
X94635024Y-102853589D01*
X94407049Y-102969750D01*
X94200064Y-103120132D01*
X94200059Y-103120136D01*
X94019136Y-103301059D01*
X94019132Y-103301064D01*
X93868750Y-103508049D01*
X93752589Y-103736024D01*
X93752588Y-103736027D01*
X93673526Y-103979359D01*
X93633500Y-104232070D01*
X85454500Y-104232070D01*
X85414474Y-103979361D01*
X85335410Y-103736025D01*
X85335410Y-103736024D01*
X85250205Y-103568802D01*
X85219252Y-103508053D01*
X85199022Y-103480208D01*
X85068867Y-103301064D01*
X85068863Y-103301059D01*
X84887940Y-103120136D01*
X84887935Y-103120132D01*
X84680950Y-102969750D01*
X84680949Y-102969749D01*
X84680947Y-102969748D01*
X84607910Y-102932533D01*
X84452975Y-102853589D01*
X84452972Y-102853588D01*
X84209640Y-102774526D01*
X84083284Y-102754513D01*
X83956930Y-102734500D01*
X83701070Y-102734500D01*
X83616833Y-102747842D01*
X83448359Y-102774526D01*
X83205027Y-102853588D01*
X83205024Y-102853589D01*
X82977049Y-102969750D01*
X82770064Y-103120132D01*
X82770059Y-103120136D01*
X82589136Y-103301059D01*
X82589132Y-103301064D01*
X82438750Y-103508049D01*
X82322589Y-103736024D01*
X82322588Y-103736027D01*
X82243526Y-103979359D01*
X82203500Y-104232070D01*
X82203500Y-104487929D01*
X82243526Y-104740640D01*
X82322588Y-104983972D01*
X82322589Y-104983975D01*
X82438750Y-105211950D01*
X82502604Y-105299838D01*
X82526084Y-105365644D01*
X82510259Y-105433698D01*
X82460153Y-105482393D01*
X82391675Y-105496268D01*
X82370193Y-105492498D01*
X82190020Y-105444222D01*
X82190009Y-105444220D01*
X81930094Y-105410000D01*
X81667905Y-105410000D01*
X81407990Y-105444220D01*
X81407979Y-105444222D01*
X81154744Y-105512075D01*
X80912528Y-105612404D01*
X80912517Y-105612409D01*
X80685471Y-105743496D01*
X80572633Y-105830079D01*
X80572633Y-105830080D01*
X81436706Y-106694152D01*
X81420058Y-106701049D01*
X81289030Y-106788599D01*
X81177599Y-106900030D01*
X81090049Y-107031058D01*
X81083153Y-107047705D01*
X80400001Y-106364553D01*
X80400000Y-106364553D01*
X79716846Y-107047706D01*
X79709951Y-107031058D01*
X79622401Y-106900030D01*
X79510970Y-106788599D01*
X79379942Y-106701049D01*
X79363292Y-106694152D01*
X80227365Y-105830080D01*
X80114524Y-105743494D01*
X80114516Y-105743488D01*
X79887482Y-105612409D01*
X79887471Y-105612404D01*
X79645255Y-105512075D01*
X79392020Y-105444222D01*
X79392009Y-105444220D01*
X79132094Y-105410000D01*
X78869905Y-105410000D01*
X78609990Y-105444220D01*
X78609979Y-105444222D01*
X78429806Y-105492498D01*
X78359956Y-105490835D01*
X78302093Y-105451672D01*
X78274590Y-105387443D01*
X78286177Y-105318541D01*
X78297388Y-105299848D01*
X78361252Y-105211947D01*
X78477410Y-104983975D01*
X78556474Y-104740639D01*
X78596500Y-104487930D01*
X78596500Y-104232070D01*
X78556474Y-103979361D01*
X78477410Y-103736025D01*
X78477410Y-103736024D01*
X78392205Y-103568802D01*
X78361252Y-103508053D01*
X78341022Y-103480208D01*
X78210867Y-103301064D01*
X78210863Y-103301059D01*
X78029940Y-103120136D01*
X78029935Y-103120132D01*
X77822950Y-102969750D01*
X77822949Y-102969749D01*
X77822947Y-102969748D01*
X77749910Y-102932533D01*
X77594975Y-102853589D01*
X77594972Y-102853588D01*
X77351640Y-102774526D01*
X77225284Y-102754513D01*
X77098930Y-102734500D01*
X76843070Y-102734500D01*
X76758833Y-102747842D01*
X76590359Y-102774526D01*
X76347027Y-102853588D01*
X76347024Y-102853589D01*
X76119049Y-102969750D01*
X75912064Y-103120132D01*
X75912059Y-103120136D01*
X75731136Y-103301059D01*
X75731132Y-103301064D01*
X75580750Y-103508049D01*
X75464589Y-103736024D01*
X75464588Y-103736027D01*
X75385526Y-103979359D01*
X75345500Y-104232070D01*
X67166500Y-104232070D01*
X67126474Y-103979361D01*
X67047410Y-103736025D01*
X67047410Y-103736024D01*
X66962205Y-103568802D01*
X66931252Y-103508053D01*
X66911022Y-103480208D01*
X66780867Y-103301064D01*
X66780863Y-103301059D01*
X66599940Y-103120136D01*
X66599935Y-103120132D01*
X66392950Y-102969750D01*
X66392949Y-102969749D01*
X66392947Y-102969748D01*
X66319910Y-102932533D01*
X66164975Y-102853589D01*
X66164972Y-102853588D01*
X65921640Y-102774526D01*
X65795284Y-102754513D01*
X65668930Y-102734500D01*
X65413070Y-102734500D01*
X65328833Y-102747842D01*
X65160359Y-102774526D01*
X64917027Y-102853588D01*
X64917024Y-102853589D01*
X64689049Y-102969750D01*
X64482064Y-103120132D01*
X64482059Y-103120136D01*
X64301136Y-103301059D01*
X64301132Y-103301064D01*
X64150750Y-103508049D01*
X64034589Y-103736024D01*
X64034588Y-103736027D01*
X63955526Y-103979359D01*
X63915500Y-104232070D01*
X63915500Y-104487929D01*
X63955526Y-104740640D01*
X64034588Y-104983972D01*
X64034589Y-104983975D01*
X64150750Y-105211950D01*
X64214604Y-105299838D01*
X64238084Y-105365644D01*
X64222259Y-105433698D01*
X64172153Y-105482393D01*
X64103675Y-105496268D01*
X64082193Y-105492498D01*
X63902020Y-105444222D01*
X63902009Y-105444220D01*
X63642094Y-105410000D01*
X63379905Y-105410000D01*
X63119990Y-105444220D01*
X63119979Y-105444222D01*
X62866744Y-105512075D01*
X62624528Y-105612404D01*
X62624517Y-105612409D01*
X62397471Y-105743496D01*
X62284633Y-105830079D01*
X62284633Y-105830080D01*
X63148706Y-106694152D01*
X63132058Y-106701049D01*
X63001030Y-106788599D01*
X62889599Y-106900030D01*
X62802049Y-107031058D01*
X62795153Y-107047706D01*
X61931080Y-106183633D01*
X61931079Y-106183633D01*
X61844496Y-106296471D01*
X61713409Y-106523517D01*
X61713404Y-106523528D01*
X61613075Y-106765744D01*
X61545222Y-107018979D01*
X61545220Y-107018990D01*
X61511000Y-107278905D01*
X55075500Y-107278905D01*
X55075500Y-104253713D01*
X56189500Y-104253713D01*
X56189500Y-104466286D01*
X56222753Y-104676239D01*
X56288444Y-104878414D01*
X56384951Y-105067820D01*
X56509890Y-105239786D01*
X56660213Y-105390109D01*
X56832179Y-105515048D01*
X56832181Y-105515049D01*
X56832184Y-105515051D01*
X57021588Y-105611557D01*
X57223757Y-105677246D01*
X57433713Y-105710500D01*
X57433714Y-105710500D01*
X57646286Y-105710500D01*
X57646287Y-105710500D01*
X57856243Y-105677246D01*
X58058412Y-105611557D01*
X58247816Y-105515051D01*
X58292766Y-105482393D01*
X58419786Y-105390109D01*
X58419788Y-105390106D01*
X58419792Y-105390104D01*
X58570104Y-105239792D01*
X58570106Y-105239788D01*
X58570109Y-105239786D01*
X58695048Y-105067820D01*
X58695047Y-105067820D01*
X58695051Y-105067816D01*
X58791557Y-104878412D01*
X58857246Y-104676243D01*
X58890500Y-104466287D01*
X58890500Y-104253713D01*
X58857246Y-104043757D01*
X58791557Y-103841588D01*
X58695051Y-103652184D01*
X58695049Y-103652181D01*
X58695048Y-103652179D01*
X58570109Y-103480213D01*
X58419786Y-103329890D01*
X58247820Y-103204951D01*
X58058414Y-103108444D01*
X58058413Y-103108443D01*
X58058412Y-103108443D01*
X57856243Y-103042754D01*
X57856241Y-103042753D01*
X57856240Y-103042753D01*
X57694957Y-103017208D01*
X57646287Y-103009500D01*
X57433713Y-103009500D01*
X57385042Y-103017208D01*
X57223760Y-103042753D01*
X57021585Y-103108444D01*
X56832179Y-103204951D01*
X56660213Y-103329890D01*
X56509890Y-103480213D01*
X56384951Y-103652179D01*
X56288444Y-103841585D01*
X56222753Y-104043760D01*
X56189500Y-104253713D01*
X55075500Y-104253713D01*
X55075500Y-103824065D01*
X55075765Y-103815957D01*
X55076484Y-103804982D01*
X55084406Y-103684106D01*
X55108432Y-103618502D01*
X55120446Y-103604552D01*
X56784542Y-101940456D01*
X56845861Y-101906974D01*
X56864092Y-101904407D01*
X56988993Y-101896221D01*
X56995958Y-101895765D01*
X57004066Y-101895500D01*
X57024531Y-101895500D01*
X103775469Y-101895500D01*
X103795934Y-101895500D01*
X103804043Y-101895765D01*
G37*
%TD.AperFunction*%
%TD*%
M02*
